<mxfile host="app.diagrams.net" modified="2024-04-09T16:56:12.672Z" agent="Mozilla/5.0 (Macintosh; Intel Mac OS X 10_15_7) AppleWebKit/537.36 (KHTML, like Gecko) Chrome/123.0.0.0 Safari/537.36" etag="akiJkW8bqi-Lq-AW2R6P" version="24.2.3" type="github">
  <diagram name="Page-1" id="c7558073-3199-34d8-9f00-42111426c3f3">
    <mxGraphModel dx="1626" dy="49" grid="0" gridSize="10" guides="1" tooltips="1" connect="1" arrows="1" fold="1" page="1" pageScale="1" pageWidth="1600" pageHeight="900" background="#FFFFFF" math="0" shadow="0">
      <root>
        <mxCell id="0" />
        <mxCell id="1" parent="0" />
        <mxCell id="OSjPSiPlIUPiHuO4zLnv-2" style="edgeStyle=orthogonalEdgeStyle;curved=1;rounded=0;sketch=1;hachureGap=4;jiggle=2;curveFitting=1;orthogonalLoop=1;jettySize=auto;html=1;exitX=0;exitY=0;exitDx=0;exitDy=0;fontFamily=Architects Daughter;fontSource=https%3A%2F%2Ffonts.googleapis.com%2Fcss%3Ffamily%3DArchitects%2BDaughter;entryX=0.307;entryY=1;entryDx=0;entryDy=0;entryPerimeter=0;strokeColor=#000000;fontColor=#000000;" parent="1" source="wP0E1fFUgcn85LKdr6hC-170" target="wP0E1fFUgcn85LKdr6hC-212" edge="1">
          <mxGeometry relative="1" as="geometry">
            <Array as="points">
              <mxPoint x="658" y="1157" />
              <mxPoint x="521" y="1157" />
              <mxPoint x="521" y="1098" />
              <mxPoint x="504" y="1098" />
            </Array>
          </mxGeometry>
        </mxCell>
        <mxCell id="wP0E1fFUgcn85LKdr6hC-170" value="Knowledge Base Preparation" style="swimlane;fontStyle=1;align=center;verticalAlign=top;childLayout=stackLayout;horizontal=1;startSize=24.6;horizontalStack=0;resizeParent=1;resizeParentMax=0;resizeLast=0;collapsible=0;marginBottom=0;sketch=1;hachureGap=4;jiggle=2;curveFitting=1;fontFamily=Roboto;fontSource=https%3A%2F%2Ffonts.googleapis.com%2Fcss%3Ffamily%3DRoboto;strokeColor=#000000;fontColor=#000000;" parent="1" vertex="1">
          <mxGeometry x="658" y="1231" width="278" height="182.6" as="geometry" />
        </mxCell>
        <mxCell id="wP0E1fFUgcn85LKdr6hC-171" style="line;strokeWidth=1;fillColor=none;align=left;verticalAlign=middle;spacingTop=-1;spacingLeft=3;spacingRight=3;rotatable=0;labelPosition=right;points=[];portConstraint=eastwest;strokeColor=#000000;sketch=1;hachureGap=4;jiggle=2;curveFitting=1;fontFamily=Roboto;fontSource=https%3A%2F%2Ffonts.googleapis.com%2Fcss%3Ffamily%3DRoboto;fontColor=#000000;" parent="wP0E1fFUgcn85LKdr6hC-170" vertex="1">
          <mxGeometry y="24.6" width="278" height="8" as="geometry" />
        </mxCell>
        <mxCell id="wP0E1fFUgcn85LKdr6hC-172" value="+Select and Structure Data" style="text;strokeColor=#000000;fillColor=none;align=left;verticalAlign=top;spacingLeft=4;spacingRight=4;overflow=hidden;rotatable=0;points=[[0,0.5],[1,0.5]];portConstraint=eastwest;fontFamily=Roboto;fontSource=https%3A%2F%2Ffonts.googleapis.com%2Fcss%3Ffamily%3DRoboto;fontColor=#000000;" parent="wP0E1fFUgcn85LKdr6hC-170" vertex="1">
          <mxGeometry y="32.6" width="278" height="25" as="geometry" />
        </mxCell>
        <mxCell id="wP0E1fFUgcn85LKdr6hC-173" value="+Define Attributes" style="text;strokeColor=#000000;fillColor=none;align=left;verticalAlign=top;spacingLeft=4;spacingRight=4;overflow=hidden;rotatable=0;points=[[0,0.5],[1,0.5]];portConstraint=eastwest;fontFamily=Roboto;fontSource=https%3A%2F%2Ffonts.googleapis.com%2Fcss%3Ffamily%3DRoboto;fontColor=#000000;" parent="wP0E1fFUgcn85LKdr6hC-170" vertex="1">
          <mxGeometry y="57.6" width="278" height="25" as="geometry" />
        </mxCell>
        <mxCell id="wP0E1fFUgcn85LKdr6hC-174" value="+Gather Internal Documents" style="text;strokeColor=#000000;fillColor=none;align=left;verticalAlign=top;spacingLeft=4;spacingRight=4;overflow=hidden;rotatable=0;points=[[0,0.5],[1,0.5]];portConstraint=eastwest;fontFamily=Roboto;fontSource=https%3A%2F%2Ffonts.googleapis.com%2Fcss%3Ffamily%3DRoboto;fontColor=#000000;" parent="wP0E1fFUgcn85LKdr6hC-170" vertex="1">
          <mxGeometry y="82.6" width="278" height="25" as="geometry" />
        </mxCell>
        <mxCell id="wP0E1fFUgcn85LKdr6hC-175" value="+Connect Internal Databases and Applications" style="text;strokeColor=#000000;fillColor=none;align=left;verticalAlign=top;spacingLeft=4;spacingRight=4;overflow=hidden;rotatable=0;points=[[0,0.5],[1,0.5]];portConstraint=eastwest;fontFamily=Roboto;fontSource=https%3A%2F%2Ffonts.googleapis.com%2Fcss%3Ffamily%3DRoboto;fontColor=#000000;" parent="wP0E1fFUgcn85LKdr6hC-170" vertex="1">
          <mxGeometry y="107.6" width="278" height="25" as="geometry" />
        </mxCell>
        <mxCell id="wP0E1fFUgcn85LKdr6hC-176" value="+Connect DomainSpecificDatabases" style="text;strokeColor=#000000;fillColor=none;align=left;verticalAlign=top;spacingLeft=4;spacingRight=4;overflow=hidden;rotatable=0;points=[[0,0.5],[1,0.5]];portConstraint=eastwest;fontFamily=Roboto;fontSource=https%3A%2F%2Ffonts.googleapis.com%2Fcss%3Ffamily%3DRoboto;fontColor=#000000;" parent="wP0E1fFUgcn85LKdr6hC-170" vertex="1">
          <mxGeometry y="132.6" width="278" height="25" as="geometry" />
        </mxCell>
        <mxCell id="wP0E1fFUgcn85LKdr6hC-177" value="+Web-Based Knowledge Sources" style="text;strokeColor=#000000;fillColor=none;align=left;verticalAlign=top;spacingLeft=4;spacingRight=4;overflow=hidden;rotatable=0;points=[[0,0.5],[1,0.5]];portConstraint=eastwest;fontFamily=Roboto;fontSource=https%3A%2F%2Ffonts.googleapis.com%2Fcss%3Ffamily%3DRoboto;fontColor=#000000;" parent="wP0E1fFUgcn85LKdr6hC-170" vertex="1">
          <mxGeometry y="157.6" width="278" height="25" as="geometry" />
        </mxCell>
        <mxCell id="wP0E1fFUgcn85LKdr6hC-178" value="Internal Documents" style="swimlane;fontStyle=1;align=center;verticalAlign=top;childLayout=stackLayout;horizontal=1;startSize=27;horizontalStack=0;resizeParent=1;resizeParentMax=0;resizeLast=0;collapsible=0;marginBottom=0;sketch=1;hachureGap=4;jiggle=2;curveFitting=1;fontFamily=Roboto;fontSource=https%3A%2F%2Ffonts.googleapis.com%2Fcss%3Ffamily%3DRoboto;strokeColor=#000000;fontColor=#000000;" parent="1" vertex="1">
          <mxGeometry x="259" y="1503" width="165" height="143" as="geometry" />
        </mxCell>
        <mxCell id="wP0E1fFUgcn85LKdr6hC-179" style="line;strokeWidth=1;fillColor=none;align=left;verticalAlign=middle;spacingTop=-1;spacingLeft=3;spacingRight=3;rotatable=0;labelPosition=right;points=[];portConstraint=eastwest;strokeColor=#000000;sketch=1;hachureGap=4;jiggle=2;curveFitting=1;fontFamily=Roboto;fontSource=https%3A%2F%2Ffonts.googleapis.com%2Fcss%3Ffamily%3DRoboto;fontColor=#000000;" parent="wP0E1fFUgcn85LKdr6hC-178" vertex="1">
          <mxGeometry y="27" width="165" height="8" as="geometry" />
        </mxCell>
        <mxCell id="wP0E1fFUgcn85LKdr6hC-180" value="+MS Office Documents" style="text;strokeColor=#000000;fillColor=none;align=left;verticalAlign=top;spacingLeft=4;spacingRight=4;overflow=hidden;rotatable=0;points=[[0,0.5],[1,0.5]];portConstraint=eastwest;fontFamily=Roboto;fontSource=https%3A%2F%2Ffonts.googleapis.com%2Fcss%3Ffamily%3DRoboto;fontColor=#000000;" parent="wP0E1fFUgcn85LKdr6hC-178" vertex="1">
          <mxGeometry y="35" width="165" height="27" as="geometry" />
        </mxCell>
        <mxCell id="wP0E1fFUgcn85LKdr6hC-181" value="+Other Formats" style="text;strokeColor=#000000;fillColor=none;align=left;verticalAlign=top;spacingLeft=4;spacingRight=4;overflow=hidden;rotatable=0;points=[[0,0.5],[1,0.5]];portConstraint=eastwest;fontFamily=Roboto;fontSource=https%3A%2F%2Ffonts.googleapis.com%2Fcss%3Ffamily%3DRoboto;fontColor=#000000;" parent="wP0E1fFUgcn85LKdr6hC-178" vertex="1">
          <mxGeometry y="62" width="165" height="27" as="geometry" />
        </mxCell>
        <mxCell id="wP0E1fFUgcn85LKdr6hC-238" value="+PDF" style="text;strokeColor=#000000;fillColor=none;align=left;verticalAlign=top;spacingLeft=4;spacingRight=4;overflow=hidden;rotatable=0;points=[[0,0.5],[1,0.5]];portConstraint=eastwest;fontFamily=Roboto;fontSource=https%3A%2F%2Ffonts.googleapis.com%2Fcss%3Ffamily%3DRoboto;fontColor=#000000;" parent="wP0E1fFUgcn85LKdr6hC-178" vertex="1">
          <mxGeometry y="89" width="165" height="27" as="geometry" />
        </mxCell>
        <mxCell id="wP0E1fFUgcn85LKdr6hC-240" value="+CSV" style="text;strokeColor=#000000;fillColor=none;align=left;verticalAlign=top;spacingLeft=4;spacingRight=4;overflow=hidden;rotatable=0;points=[[0,0.5],[1,0.5]];portConstraint=eastwest;fontFamily=Roboto;fontSource=https%3A%2F%2Ffonts.googleapis.com%2Fcss%3Ffamily%3DRoboto;fontColor=#000000;" parent="wP0E1fFUgcn85LKdr6hC-178" vertex="1">
          <mxGeometry y="116" width="165" height="27" as="geometry" />
        </mxCell>
        <mxCell id="wP0E1fFUgcn85LKdr6hC-182" value="Internal Databases and Applications" style="swimlane;fontStyle=1;align=center;verticalAlign=top;childLayout=stackLayout;horizontal=1;startSize=26;horizontalStack=0;resizeParent=1;resizeParentMax=0;resizeLast=0;collapsible=0;marginBottom=0;sketch=1;hachureGap=4;jiggle=2;curveFitting=1;fontFamily=Roboto;fontSource=https%3A%2F%2Ffonts.googleapis.com%2Fcss%3Ffamily%3DRoboto;strokeColor=#000000;fontColor=#000000;" parent="1" vertex="1">
          <mxGeometry x="459" y="1505" width="210" height="138" as="geometry" />
        </mxCell>
        <mxCell id="wP0E1fFUgcn85LKdr6hC-183" style="line;strokeWidth=1;fillColor=none;align=left;verticalAlign=middle;spacingTop=-1;spacingLeft=3;spacingRight=3;rotatable=0;labelPosition=right;points=[];portConstraint=eastwest;strokeColor=#000000;sketch=1;hachureGap=4;jiggle=2;curveFitting=1;fontFamily=Roboto;fontSource=https%3A%2F%2Ffonts.googleapis.com%2Fcss%3Ffamily%3DRoboto;fontColor=#000000;" parent="wP0E1fFUgcn85LKdr6hC-182" vertex="1">
          <mxGeometry y="26" width="210" height="8" as="geometry" />
        </mxCell>
        <mxCell id="wP0E1fFUgcn85LKdr6hC-184" value="+CRM" style="text;strokeColor=#000000;fillColor=none;align=left;verticalAlign=top;spacingLeft=4;spacingRight=4;overflow=hidden;rotatable=0;points=[[0,0.5],[1,0.5]];portConstraint=eastwest;fontFamily=Roboto;fontSource=https%3A%2F%2Ffonts.googleapis.com%2Fcss%3Ffamily%3DRoboto;fontColor=#000000;" parent="wP0E1fFUgcn85LKdr6hC-182" vertex="1">
          <mxGeometry y="34" width="210" height="26" as="geometry" />
        </mxCell>
        <mxCell id="wP0E1fFUgcn85LKdr6hC-185" value="+ERP" style="text;strokeColor=#000000;fillColor=none;align=left;verticalAlign=top;spacingLeft=4;spacingRight=4;overflow=hidden;rotatable=0;points=[[0,0.5],[1,0.5]];portConstraint=eastwest;fontFamily=Roboto;fontSource=https%3A%2F%2Ffonts.googleapis.com%2Fcss%3Ffamily%3DRoboto;fontColor=#000000;" parent="wP0E1fFUgcn85LKdr6hC-182" vertex="1">
          <mxGeometry y="60" width="210" height="26" as="geometry" />
        </mxCell>
        <mxCell id="wP0E1fFUgcn85LKdr6hC-186" value="+Knowledge Bases" style="text;strokeColor=#000000;fillColor=none;align=left;verticalAlign=top;spacingLeft=4;spacingRight=4;overflow=hidden;rotatable=0;points=[[0,0.5],[1,0.5]];portConstraint=eastwest;fontFamily=Roboto;fontSource=https%3A%2F%2Ffonts.googleapis.com%2Fcss%3Ffamily%3DRoboto;fontColor=#000000;" parent="wP0E1fFUgcn85LKdr6hC-182" vertex="1">
          <mxGeometry y="86" width="210" height="26" as="geometry" />
        </mxCell>
        <mxCell id="OSjPSiPlIUPiHuO4zLnv-3" value="+Legacy Systems" style="text;strokeColor=#000000;fillColor=none;align=left;verticalAlign=top;spacingLeft=4;spacingRight=4;overflow=hidden;rotatable=0;points=[[0,0.5],[1,0.5]];portConstraint=eastwest;fontFamily=Roboto;fontSource=https%3A%2F%2Ffonts.googleapis.com%2Fcss%3Ffamily%3DRoboto;fontColor=#000000;" parent="wP0E1fFUgcn85LKdr6hC-182" vertex="1">
          <mxGeometry y="112" width="210" height="26" as="geometry" />
        </mxCell>
        <mxCell id="wP0E1fFUgcn85LKdr6hC-187" value="Domain Specific Databases" style="swimlane;fontStyle=1;align=center;verticalAlign=top;childLayout=stackLayout;horizontal=1;startSize=27;horizontalStack=0;resizeParent=1;resizeParentMax=0;resizeLast=0;collapsible=0;marginBottom=0;sketch=1;hachureGap=4;jiggle=2;curveFitting=1;fontFamily=Roboto;fontSource=https%3A%2F%2Ffonts.googleapis.com%2Fcss%3Ffamily%3DRoboto;strokeColor=#000000;fontColor=#000000;" parent="1" vertex="1">
          <mxGeometry x="699" y="1503" width="180" height="89" as="geometry" />
        </mxCell>
        <mxCell id="wP0E1fFUgcn85LKdr6hC-188" style="line;strokeWidth=1;fillColor=none;align=left;verticalAlign=middle;spacingTop=-1;spacingLeft=3;spacingRight=3;rotatable=0;labelPosition=right;points=[];portConstraint=eastwest;strokeColor=#000000;sketch=1;hachureGap=4;jiggle=2;curveFitting=1;fontFamily=Roboto;fontSource=https%3A%2F%2Ffonts.googleapis.com%2Fcss%3Ffamily%3DRoboto;fontColor=#000000;" parent="wP0E1fFUgcn85LKdr6hC-187" vertex="1">
          <mxGeometry y="27" width="180" height="8" as="geometry" />
        </mxCell>
        <mxCell id="wP0E1fFUgcn85LKdr6hC-189" value="+Industry Resources" style="text;strokeColor=#000000;fillColor=none;align=left;verticalAlign=top;spacingLeft=4;spacingRight=4;overflow=hidden;rotatable=0;points=[[0,0.5],[1,0.5]];portConstraint=eastwest;fontFamily=Roboto;fontSource=https%3A%2F%2Ffonts.googleapis.com%2Fcss%3Ffamily%3DRoboto;fontColor=#000000;" parent="wP0E1fFUgcn85LKdr6hC-187" vertex="1">
          <mxGeometry y="35" width="180" height="27" as="geometry" />
        </mxCell>
        <mxCell id="wP0E1fFUgcn85LKdr6hC-190" value="+Subscription Services" style="text;strokeColor=#000000;fillColor=none;align=left;verticalAlign=top;spacingLeft=4;spacingRight=4;overflow=hidden;rotatable=0;points=[[0,0.5],[1,0.5]];portConstraint=eastwest;fontFamily=Roboto;fontSource=https%3A%2F%2Ffonts.googleapis.com%2Fcss%3Ffamily%3DRoboto;fontColor=#000000;" parent="wP0E1fFUgcn85LKdr6hC-187" vertex="1">
          <mxGeometry y="62" width="180" height="27" as="geometry" />
        </mxCell>
        <mxCell id="wP0E1fFUgcn85LKdr6hC-191" value="Web-Based Knowledge Sources" style="swimlane;fontStyle=1;align=center;verticalAlign=top;childLayout=stackLayout;horizontal=1;startSize=27;horizontalStack=0;resizeParent=1;resizeParentMax=0;resizeLast=0;collapsible=0;marginBottom=0;sketch=1;hachureGap=4;jiggle=2;curveFitting=1;fontFamily=Roboto;fontSource=https%3A%2F%2Ffonts.googleapis.com%2Fcss%3Ffamily%3DRoboto;strokeColor=#000000;fontColor=#000000;" parent="1" vertex="1">
          <mxGeometry x="911" y="1503" width="200" height="89" as="geometry" />
        </mxCell>
        <mxCell id="wP0E1fFUgcn85LKdr6hC-192" style="line;strokeWidth=1;fillColor=none;align=left;verticalAlign=middle;spacingTop=-1;spacingLeft=3;spacingRight=3;rotatable=0;labelPosition=right;points=[];portConstraint=eastwest;strokeColor=#000000;sketch=1;hachureGap=4;jiggle=2;curveFitting=1;fontFamily=Roboto;fontSource=https%3A%2F%2Ffonts.googleapis.com%2Fcss%3Ffamily%3DRoboto;fontColor=#000000;" parent="wP0E1fFUgcn85LKdr6hC-191" vertex="1">
          <mxGeometry y="27" width="200" height="8" as="geometry" />
        </mxCell>
        <mxCell id="wP0E1fFUgcn85LKdr6hC-193" value="+Wikipedia" style="text;strokeColor=#000000;fillColor=none;align=left;verticalAlign=top;spacingLeft=4;spacingRight=4;overflow=hidden;rotatable=0;points=[[0,0.5],[1,0.5]];portConstraint=eastwest;fontFamily=Roboto;fontSource=https%3A%2F%2Ffonts.googleapis.com%2Fcss%3Ffamily%3DRoboto;fontColor=#000000;" parent="wP0E1fFUgcn85LKdr6hC-191" vertex="1">
          <mxGeometry y="35" width="200" height="27" as="geometry" />
        </mxCell>
        <mxCell id="wP0E1fFUgcn85LKdr6hC-194" value="+Trusted Website Publications" style="text;strokeColor=#000000;fillColor=none;align=left;verticalAlign=top;spacingLeft=4;spacingRight=4;overflow=hidden;rotatable=0;points=[[0,0.5],[1,0.5]];portConstraint=eastwest;fontFamily=Roboto;fontSource=https%3A%2F%2Ffonts.googleapis.com%2Fcss%3Ffamily%3DRoboto;fontColor=#000000;" parent="wP0E1fFUgcn85LKdr6hC-191" vertex="1">
          <mxGeometry y="62" width="200" height="27" as="geometry" />
        </mxCell>
        <mxCell id="wP0E1fFUgcn85LKdr6hC-195" value="Vector Embedding Creation" style="swimlane;fontStyle=1;align=center;verticalAlign=top;childLayout=stackLayout;horizontal=1;startSize=27;horizontalStack=0;resizeParent=1;resizeParentMax=0;resizeLast=0;collapsible=0;marginBottom=0;sketch=1;hachureGap=4;jiggle=2;curveFitting=1;fontFamily=Roboto;fontSource=https%3A%2F%2Ffonts.googleapis.com%2Fcss%3Ffamily%3DRoboto;strokeColor=#000000;fontColor=#000000;" parent="1" vertex="1">
          <mxGeometry x="1141" y="1503" width="194" height="89" as="geometry" />
        </mxCell>
        <mxCell id="wP0E1fFUgcn85LKdr6hC-196" style="line;strokeWidth=1;fillColor=none;align=left;verticalAlign=middle;spacingTop=-1;spacingLeft=3;spacingRight=3;rotatable=0;labelPosition=right;points=[];portConstraint=eastwest;strokeColor=#000000;sketch=1;hachureGap=4;jiggle=2;curveFitting=1;fontFamily=Roboto;fontSource=https%3A%2F%2Ffonts.googleapis.com%2Fcss%3Ffamily%3DRoboto;fontColor=#000000;" parent="wP0E1fFUgcn85LKdr6hC-195" vertex="1">
          <mxGeometry y="27" width="194" height="8" as="geometry" />
        </mxCell>
        <mxCell id="wP0E1fFUgcn85LKdr6hC-197" value="+Choose Embedding Model" style="text;strokeColor=#000000;fillColor=none;align=left;verticalAlign=top;spacingLeft=4;spacingRight=4;overflow=hidden;rotatable=0;points=[[0,0.5],[1,0.5]];portConstraint=eastwest;fontFamily=Roboto;fontSource=https%3A%2F%2Ffonts.googleapis.com%2Fcss%3Ffamily%3DRoboto;fontColor=#000000;" parent="wP0E1fFUgcn85LKdr6hC-195" vertex="1">
          <mxGeometry y="35" width="194" height="27" as="geometry" />
        </mxCell>
        <mxCell id="wP0E1fFUgcn85LKdr6hC-198" value="+Generate Embeddings" style="text;strokeColor=#000000;fillColor=none;align=left;verticalAlign=top;spacingLeft=4;spacingRight=4;overflow=hidden;rotatable=0;points=[[0,0.5],[1,0.5]];portConstraint=eastwest;fontFamily=Roboto;fontSource=https%3A%2F%2Ffonts.googleapis.com%2Fcss%3Ffamily%3DRoboto;fontColor=#000000;" parent="wP0E1fFUgcn85LKdr6hC-195" vertex="1">
          <mxGeometry y="62" width="194" height="27" as="geometry" />
        </mxCell>
        <mxCell id="wP0E1fFUgcn85LKdr6hC-199" value="Vector Database Preparation" style="swimlane;fontStyle=1;align=center;verticalAlign=top;childLayout=stackLayout;horizontal=1;startSize=27;horizontalStack=0;resizeParent=1;resizeParentMax=0;resizeLast=0;collapsible=0;marginBottom=0;sketch=1;hachureGap=4;jiggle=2;curveFitting=1;fontFamily=Roboto;fontSource=https%3A%2F%2Ffonts.googleapis.com%2Fcss%3Ffamily%3DRoboto;strokeColor=#000000;fontColor=#000000;" parent="1" vertex="1">
          <mxGeometry x="1121" y="1635" width="214" height="89" as="geometry" />
        </mxCell>
        <mxCell id="wP0E1fFUgcn85LKdr6hC-200" style="line;strokeWidth=1;fillColor=none;align=left;verticalAlign=middle;spacingTop=-1;spacingLeft=3;spacingRight=3;rotatable=0;labelPosition=right;points=[];portConstraint=eastwest;strokeColor=#000000;sketch=1;hachureGap=4;jiggle=2;curveFitting=1;fontFamily=Roboto;fontSource=https%3A%2F%2Ffonts.googleapis.com%2Fcss%3Ffamily%3DRoboto;fontColor=#000000;" parent="wP0E1fFUgcn85LKdr6hC-199" vertex="1">
          <mxGeometry y="27" width="214" height="8" as="geometry" />
        </mxCell>
        <mxCell id="wP0E1fFUgcn85LKdr6hC-201" value="+Select Vector Database" style="text;strokeColor=#000000;fillColor=none;align=left;verticalAlign=top;spacingLeft=4;spacingRight=4;overflow=hidden;rotatable=0;points=[[0,0.5],[1,0.5]];portConstraint=eastwest;fontFamily=Roboto;fontSource=https%3A%2F%2Ffonts.googleapis.com%2Fcss%3Ffamily%3DRoboto;fontColor=#000000;" parent="wP0E1fFUgcn85LKdr6hC-199" vertex="1">
          <mxGeometry y="35" width="214" height="27" as="geometry" />
        </mxCell>
        <mxCell id="wP0E1fFUgcn85LKdr6hC-202" value="+Store Embeddings and Attributes" style="text;strokeColor=#000000;fillColor=none;align=left;verticalAlign=top;spacingLeft=4;spacingRight=4;overflow=hidden;rotatable=0;points=[[0,0.5],[1,0.5]];portConstraint=eastwest;fontFamily=Roboto;fontSource=https%3A%2F%2Ffonts.googleapis.com%2Fcss%3Ffamily%3DRoboto;fontColor=#000000;" parent="wP0E1fFUgcn85LKdr6hC-199" vertex="1">
          <mxGeometry y="62" width="214" height="27" as="geometry" />
        </mxCell>
        <mxCell id="wP0E1fFUgcn85LKdr6hC-203" value="User Input" style="swimlane;fontStyle=1;align=center;verticalAlign=top;childLayout=stackLayout;horizontal=1;startSize=28.8;horizontalStack=0;resizeParent=1;resizeParentMax=0;resizeLast=0;collapsible=0;marginBottom=0;sketch=1;hachureGap=4;jiggle=2;curveFitting=1;fontFamily=Roboto;fontSource=https%3A%2F%2Ffonts.googleapis.com%2Fcss%3Ffamily%3DRoboto;strokeColor=#000000;" parent="1" vertex="1">
          <mxGeometry x="25.5" y="960" width="134.5" height="65.8" as="geometry" />
        </mxCell>
        <mxCell id="wP0E1fFUgcn85LKdr6hC-204" style="line;strokeWidth=1;align=left;verticalAlign=middle;spacingTop=-1;spacingLeft=3;spacingRight=3;rotatable=0;labelPosition=right;points=[];portConstraint=eastwest;sketch=1;hachureGap=4;jiggle=2;curveFitting=1;fontFamily=Architects Daughter;fontSource=https%3A%2F%2Ffonts.googleapis.com%2Fcss%3Ffamily%3DArchitects%2BDaughter;strokeColor=#000000;" parent="wP0E1fFUgcn85LKdr6hC-203" vertex="1">
          <mxGeometry y="28.8" width="134.5" height="8" as="geometry" />
        </mxCell>
        <mxCell id="wP0E1fFUgcn85LKdr6hC-205" value="+User Query" style="text;strokeColor=#000000;fillColor=#d80073;align=left;verticalAlign=top;spacingLeft=4;spacingRight=4;overflow=hidden;rotatable=0;points=[[0,0.5],[1,0.5]];portConstraint=eastwest;fontFamily=Architects Daughter;fontSource=https%3A%2F%2Ffonts.googleapis.com%2Fcss%3Ffamily%3DArchitects%2BDaughter;fontColor=#ffffff;" parent="wP0E1fFUgcn85LKdr6hC-203" vertex="1">
          <mxGeometry y="36.8" width="134.5" height="29" as="geometry" />
        </mxCell>
        <mxCell id="wP0E1fFUgcn85LKdr6hC-206" value="Query Embedding" style="swimlane;fontStyle=1;align=center;verticalAlign=top;childLayout=stackLayout;horizontal=1;startSize=28.8;horizontalStack=0;resizeParent=1;resizeParentMax=0;resizeLast=0;collapsible=0;marginBottom=0;sketch=1;hachureGap=4;jiggle=2;curveFitting=1;fontFamily=Roboto;fontSource=https%3A%2F%2Ffonts.googleapis.com%2Fcss%3Ffamily%3DRoboto;strokeColor=#000000;fontColor=#000000;" parent="1" vertex="1">
          <mxGeometry x="259" y="1114" width="143" height="65.8" as="geometry" />
        </mxCell>
        <mxCell id="wP0E1fFUgcn85LKdr6hC-207" style="line;strokeWidth=1;fillColor=none;align=left;verticalAlign=middle;spacingTop=-1;spacingLeft=3;spacingRight=3;rotatable=0;labelPosition=right;points=[];portConstraint=eastwest;strokeColor=#000000;sketch=1;hachureGap=4;jiggle=2;curveFitting=1;fontFamily=Roboto;fontSource=https%3A%2F%2Ffonts.googleapis.com%2Fcss%3Ffamily%3DRoboto;fontColor=#000000;" parent="wP0E1fFUgcn85LKdr6hC-206" vertex="1">
          <mxGeometry y="28.8" width="143" height="8" as="geometry" />
        </mxCell>
        <mxCell id="wP0E1fFUgcn85LKdr6hC-208" value="+Process Query" style="text;strokeColor=#000000;fillColor=none;align=left;verticalAlign=top;spacingLeft=4;spacingRight=4;overflow=hidden;rotatable=0;points=[[0,0.5],[1,0.5]];portConstraint=eastwest;fontFamily=Roboto;fontSource=https%3A%2F%2Ffonts.googleapis.com%2Fcss%3Ffamily%3DRoboto;fontColor=#000000;" parent="wP0E1fFUgcn85LKdr6hC-206" vertex="1">
          <mxGeometry y="36.8" width="143" height="29" as="geometry" />
        </mxCell>
        <mxCell id="wP0E1fFUgcn85LKdr6hC-209" value="Dense Retrieval" style="swimlane;fontStyle=1;align=center;verticalAlign=top;childLayout=stackLayout;horizontal=1;startSize=27;horizontalStack=0;resizeParent=1;resizeParentMax=0;resizeLast=0;collapsible=0;marginBottom=0;sketch=1;hachureGap=4;jiggle=2;curveFitting=1;fontFamily=Roboto;fontSource=https%3A%2F%2Ffonts.googleapis.com%2Fcss%3Ffamily%3DRoboto;strokeColor=#000000;fontColor=#000000;" parent="1" vertex="1">
          <mxGeometry x="439" y="994" width="212" height="89" as="geometry" />
        </mxCell>
        <mxCell id="wP0E1fFUgcn85LKdr6hC-210" style="line;strokeWidth=1;fillColor=none;align=left;verticalAlign=middle;spacingTop=-1;spacingLeft=3;spacingRight=3;rotatable=0;labelPosition=right;points=[];portConstraint=eastwest;strokeColor=#000000;sketch=1;hachureGap=4;jiggle=2;curveFitting=1;fontFamily=Roboto;fontSource=https%3A%2F%2Ffonts.googleapis.com%2Fcss%3Ffamily%3DRoboto;fontColor=#000000;" parent="wP0E1fFUgcn85LKdr6hC-209" vertex="1">
          <mxGeometry y="27" width="212" height="8" as="geometry" />
        </mxCell>
        <mxCell id="wP0E1fFUgcn85LKdr6hC-211" value="+Nearest Neighbor Search" style="text;strokeColor=#000000;fillColor=none;align=left;verticalAlign=top;spacingLeft=4;spacingRight=4;overflow=hidden;rotatable=0;points=[[0,0.5],[1,0.5]];portConstraint=eastwest;fontFamily=Roboto;fontSource=https%3A%2F%2Ffonts.googleapis.com%2Fcss%3Ffamily%3DRoboto;fontColor=#000000;" parent="wP0E1fFUgcn85LKdr6hC-209" vertex="1">
          <mxGeometry y="35" width="212" height="27" as="geometry" />
        </mxCell>
        <mxCell id="wP0E1fFUgcn85LKdr6hC-212" value="+Attribute Filtering" style="text;strokeColor=#000000;fillColor=none;align=left;verticalAlign=top;spacingLeft=4;spacingRight=4;overflow=hidden;rotatable=0;points=[[0,0.5],[1,0.5]];portConstraint=eastwest;fontFamily=Roboto;fontSource=https%3A%2F%2Ffonts.googleapis.com%2Fcss%3Ffamily%3DRoboto;fontColor=#000000;" parent="wP0E1fFUgcn85LKdr6hC-209" vertex="1">
          <mxGeometry y="62" width="212" height="27" as="geometry" />
        </mxCell>
        <mxCell id="wP0E1fFUgcn85LKdr6hC-213" value="Role-Based Security" style="swimlane;fontStyle=1;align=center;verticalAlign=top;childLayout=stackLayout;horizontal=1;startSize=27;horizontalStack=0;resizeParent=1;resizeParentMax=0;resizeLast=0;collapsible=0;marginBottom=0;sketch=1;hachureGap=4;jiggle=2;curveFitting=1;fontFamily=Roboto;fontSource=https%3A%2F%2Ffonts.googleapis.com%2Fcss%3Ffamily%3DRoboto;strokeColor=#000000;fontColor=#000000;" parent="1" vertex="1">
          <mxGeometry x="699" y="1102.4" width="153" height="89" as="geometry" />
        </mxCell>
        <mxCell id="wP0E1fFUgcn85LKdr6hC-214" style="line;strokeWidth=1;fillColor=none;align=left;verticalAlign=middle;spacingTop=-1;spacingLeft=3;spacingRight=3;rotatable=0;labelPosition=right;points=[];portConstraint=eastwest;strokeColor=#000000;sketch=1;hachureGap=4;jiggle=2;curveFitting=1;fontFamily=Roboto;fontSource=https%3A%2F%2Ffonts.googleapis.com%2Fcss%3Ffamily%3DRoboto;fontColor=#000000;" parent="wP0E1fFUgcn85LKdr6hC-213" vertex="1">
          <mxGeometry y="27" width="153" height="8" as="geometry" />
        </mxCell>
        <mxCell id="wP0E1fFUgcn85LKdr6hC-215" value="+User Credentials" style="text;strokeColor=#000000;fillColor=none;align=left;verticalAlign=top;spacingLeft=4;spacingRight=4;overflow=hidden;rotatable=0;points=[[0,0.5],[1,0.5]];portConstraint=eastwest;fontFamily=Roboto;fontSource=https%3A%2F%2Ffonts.googleapis.com%2Fcss%3Ffamily%3DRoboto;fontColor=#000000;" parent="wP0E1fFUgcn85LKdr6hC-213" vertex="1">
          <mxGeometry y="35" width="153" height="27" as="geometry" />
        </mxCell>
        <mxCell id="wP0E1fFUgcn85LKdr6hC-216" value="+Authorization" style="text;strokeColor=#000000;fillColor=none;align=left;verticalAlign=top;spacingLeft=4;spacingRight=4;overflow=hidden;rotatable=0;points=[[0,0.5],[1,0.5]];portConstraint=eastwest;fontFamily=Roboto;fontSource=https%3A%2F%2Ffonts.googleapis.com%2Fcss%3Ffamily%3DRoboto;fontColor=#000000;" parent="wP0E1fFUgcn85LKdr6hC-213" vertex="1">
          <mxGeometry y="62" width="153" height="27" as="geometry" />
        </mxCell>
        <mxCell id="wP0E1fFUgcn85LKdr6hC-217" value="Passage Ranking" style="swimlane;fontStyle=1;align=center;verticalAlign=top;childLayout=stackLayout;horizontal=1;startSize=28.8;horizontalStack=0;resizeParent=1;resizeParentMax=0;resizeLast=0;collapsible=0;marginBottom=0;sketch=1;hachureGap=4;jiggle=2;curveFitting=1;fontFamily=Roboto;fontSource=https%3A%2F%2Ffonts.googleapis.com%2Fcss%3Ffamily%3DRoboto;strokeColor=#000000;fontColor=#000000;" parent="1" vertex="1">
          <mxGeometry x="936" y="994" width="185.5" height="65.8" as="geometry" />
        </mxCell>
        <mxCell id="wP0E1fFUgcn85LKdr6hC-218" style="line;strokeWidth=1;fillColor=none;align=left;verticalAlign=middle;spacingTop=-1;spacingLeft=3;spacingRight=3;rotatable=0;labelPosition=right;points=[];portConstraint=eastwest;strokeColor=#000000;sketch=1;hachureGap=4;jiggle=2;curveFitting=1;fontFamily=Roboto;fontSource=https%3A%2F%2Ffonts.googleapis.com%2Fcss%3Ffamily%3DRoboto;fontColor=#000000;" parent="wP0E1fFUgcn85LKdr6hC-217" vertex="1">
          <mxGeometry y="28.8" width="185.5" height="8" as="geometry" />
        </mxCell>
        <mxCell id="wP0E1fFUgcn85LKdr6hC-219" value="+Rank Retrieved Passages" style="text;strokeColor=#000000;fillColor=none;align=left;verticalAlign=top;spacingLeft=4;spacingRight=4;overflow=hidden;rotatable=0;points=[[0,0.5],[1,0.5]];portConstraint=eastwest;fontFamily=Roboto;fontSource=https%3A%2F%2Ffonts.googleapis.com%2Fcss%3Ffamily%3DRoboto;fontColor=#000000;" parent="wP0E1fFUgcn85LKdr6hC-217" vertex="1">
          <mxGeometry y="36.8" width="185.5" height="29" as="geometry" />
        </mxCell>
        <mxCell id="wP0E1fFUgcn85LKdr6hC-220" value="Generation Model Input" style="swimlane;fontStyle=1;align=center;verticalAlign=top;childLayout=stackLayout;horizontal=1;startSize=28.8;horizontalStack=0;resizeParent=1;resizeParentMax=0;resizeLast=0;collapsible=0;marginBottom=0;sketch=1;hachureGap=4;jiggle=2;curveFitting=1;fontFamily=Roboto;fontSource=https%3A%2F%2Ffonts.googleapis.com%2Fcss%3Ffamily%3DRoboto;strokeColor=#000000;fontColor=#000000;" parent="1" vertex="1">
          <mxGeometry x="1159" y="1102.4" width="176" height="65.8" as="geometry" />
        </mxCell>
        <mxCell id="wP0E1fFUgcn85LKdr6hC-221" style="line;strokeWidth=1;fillColor=none;align=left;verticalAlign=middle;spacingTop=-1;spacingLeft=3;spacingRight=3;rotatable=0;labelPosition=right;points=[];portConstraint=eastwest;strokeColor=#000000;sketch=1;hachureGap=4;jiggle=2;curveFitting=1;fontFamily=Roboto;fontSource=https%3A%2F%2Ffonts.googleapis.com%2Fcss%3Ffamily%3DRoboto;fontColor=#000000;" parent="wP0E1fFUgcn85LKdr6hC-220" vertex="1">
          <mxGeometry y="28.8" width="176" height="8" as="geometry" />
        </mxCell>
        <mxCell id="wP0E1fFUgcn85LKdr6hC-222" value="+Concatenate Information" style="text;strokeColor=#000000;fillColor=none;align=left;verticalAlign=top;spacingLeft=4;spacingRight=4;overflow=hidden;rotatable=0;points=[[0,0.5],[1,0.5]];portConstraint=eastwest;fontFamily=Roboto;fontSource=https%3A%2F%2Ffonts.googleapis.com%2Fcss%3Ffamily%3DRoboto;fontColor=#000000;" parent="wP0E1fFUgcn85LKdr6hC-220" vertex="1">
          <mxGeometry y="36.8" width="176" height="29" as="geometry" />
        </mxCell>
        <mxCell id="wP0E1fFUgcn85LKdr6hC-223" value="Generative Model Processing" style="swimlane;fontStyle=1;align=center;verticalAlign=top;childLayout=stackLayout;horizontal=1;startSize=28.8;horizontalStack=0;resizeParent=1;resizeParentMax=0;resizeLast=0;collapsible=0;marginBottom=0;sketch=1;hachureGap=4;jiggle=2;curveFitting=1;fontFamily=Roboto;fontSource=https%3A%2F%2Ffonts.googleapis.com%2Fcss%3Ffamily%3DRoboto;strokeColor=#000000;" parent="1" vertex="1">
          <mxGeometry x="1380" y="960" width="200" height="65.8" as="geometry" />
        </mxCell>
        <mxCell id="wP0E1fFUgcn85LKdr6hC-224" style="line;strokeWidth=1;fillColor=none;align=left;verticalAlign=middle;spacingTop=-1;spacingLeft=3;spacingRight=3;rotatable=0;labelPosition=right;points=[];portConstraint=eastwest;strokeColor=#000000;sketch=1;hachureGap=4;jiggle=2;curveFitting=1;fontFamily=Architects Daughter;fontSource=https%3A%2F%2Ffonts.googleapis.com%2Fcss%3Ffamily%3DArchitects%2BDaughter;" parent="wP0E1fFUgcn85LKdr6hC-223" vertex="1">
          <mxGeometry y="28.8" width="200" height="8" as="geometry" />
        </mxCell>
        <mxCell id="wP0E1fFUgcn85LKdr6hC-225" value="+Text Generation based on query" style="text;strokeColor=#000000;fillColor=#008a00;align=left;verticalAlign=top;spacingLeft=4;spacingRight=4;overflow=hidden;rotatable=0;points=[[0,0.5],[1,0.5]];portConstraint=eastwest;fontFamily=Architects Daughter;fontSource=https%3A%2F%2Ffonts.googleapis.com%2Fcss%3Ffamily%3DArchitects%2BDaughter;fontColor=#ffffff;" parent="wP0E1fFUgcn85LKdr6hC-223" vertex="1">
          <mxGeometry y="36.8" width="200" height="29" as="geometry" />
        </mxCell>
        <mxCell id="wP0E1fFUgcn85LKdr6hC-226" value="Utilizes" style="curved=1;startArrow=none;endArrow=open;endSize=12;exitX=1.0004917940647482;exitY=0.6702236044546052;entryX=0.5014467592592593;entryY=0.0024271844660194173;rounded=0;sketch=1;hachureGap=4;jiggle=2;curveFitting=1;fontFamily=Architects Daughter;strokeColor=#000000;fontColor=#000000;labelBackgroundColor=none;" parent="1" source="wP0E1fFUgcn85LKdr6hC-170" target="wP0E1fFUgcn85LKdr6hC-195" edge="1">
          <mxGeometry relative="1" as="geometry">
            <Array as="points">
              <mxPoint x="1345" y="1458" />
            </Array>
          </mxGeometry>
        </mxCell>
        <mxCell id="wP0E1fFUgcn85LKdr6hC-227" value="Feeds into" style="curved=1;startArrow=none;endArrow=open;endSize=12;exitX=0.5014467592592593;exitY=0.9975728155339806;entryX=0.49745370370370373;entryY=-0.0048543689320388345;rounded=0;sketch=1;hachureGap=4;jiggle=2;curveFitting=1;fontFamily=Architects Daughter;edgeStyle=orthogonalEdgeStyle;strokeColor=#000000;fontColor=#000000;labelBackgroundColor=none;" parent="1" source="wP0E1fFUgcn85LKdr6hC-195" target="wP0E1fFUgcn85LKdr6hC-199" edge="1">
          <mxGeometry x="0.2007" y="-43" relative="1" as="geometry">
            <mxPoint y="-4" as="offset" />
          </mxGeometry>
        </mxCell>
        <mxCell id="wP0E1fFUgcn85LKdr6hC-228" value="Transforms" style="startArrow=none;endArrow=open;endSize=12;exitX=0.496;exitY=1.076;entryX=0;entryY=0.152;rounded=0;sketch=1;hachureGap=4;jiggle=2;curveFitting=1;fontFamily=Architects Daughter;fontSource=https%3A%2F%2Ffonts.googleapis.com%2Fcss%3Ffamily%3DArchitects%2BDaughter;exitDx=0;exitDy=0;exitPerimeter=0;edgeStyle=orthogonalEdgeStyle;entryDx=0;entryDy=0;entryPerimeter=0;curved=1;strokeColor=#000000;labelBackgroundColor=none;fontColor=#000000;" parent="1" source="wP0E1fFUgcn85LKdr6hC-205" target="wP0E1fFUgcn85LKdr6hC-206" edge="1">
          <mxGeometry x="-0.0182" y="-7" relative="1" as="geometry">
            <Array as="points">
              <mxPoint x="60" y="1028" />
              <mxPoint x="60" y="1053" />
              <mxPoint x="82" y="1053" />
              <mxPoint x="82" y="1090" />
            </Array>
            <mxPoint as="offset" />
          </mxGeometry>
        </mxCell>
        <mxCell id="wP0E1fFUgcn85LKdr6hC-229" value="Queries" style="curved=1;startArrow=none;endArrow=open;endSize=12;exitX=1.007;exitY=0.365;entryX=-0.009;entryY=0.259;rounded=0;sketch=1;hachureGap=4;jiggle=2;curveFitting=1;fontFamily=Architects Daughter;fontSource=https%3A%2F%2Ffonts.googleapis.com%2Fcss%3Ffamily%3DArchitects%2BDaughter;exitDx=0;exitDy=0;exitPerimeter=0;entryDx=0;entryDy=0;entryPerimeter=0;edgeStyle=orthogonalEdgeStyle;strokeColor=#000000;fontColor=#000000;labelBackgroundColor=none;" parent="1" source="wP0E1fFUgcn85LKdr6hC-206" target="wP0E1fFUgcn85LKdr6hC-211" edge="1">
          <mxGeometry x="0.4034" y="3" relative="1" as="geometry">
            <Array as="points">
              <mxPoint x="429" y="1138" />
              <mxPoint x="429" y="1085" />
              <mxPoint x="341" y="1085" />
              <mxPoint x="341" y="1036" />
            </Array>
            <mxPoint as="offset" />
          </mxGeometry>
        </mxCell>
        <mxCell id="wP0E1fFUgcn85LKdr6hC-230" value="Manage Security" style="curved=1;startArrow=none;endArrow=open;endSize=12;exitX=1.005;exitY=0.125;entryX=-0.007;entryY=0.059;rounded=0;sketch=1;hachureGap=4;jiggle=2;curveFitting=1;fontFamily=Architects Daughter;fontSource=https%3A%2F%2Ffonts.googleapis.com%2Fcss%3Ffamily%3DArchitects%2BDaughter;edgeStyle=orthogonalEdgeStyle;exitDx=0;exitDy=0;exitPerimeter=0;entryDx=0;entryDy=0;entryPerimeter=0;strokeColor=#000000;fontColor=#000000;labelBackgroundColor=none;" parent="1" source="wP0E1fFUgcn85LKdr6hC-210" target="wP0E1fFUgcn85LKdr6hC-215" edge="1">
          <mxGeometry x="-0.1571" y="46" relative="1" as="geometry">
            <mxPoint as="offset" />
          </mxGeometry>
        </mxCell>
        <mxCell id="wP0E1fFUgcn85LKdr6hC-231" value="Optional" style="curved=1;startArrow=none;endArrow=open;endSize=12;exitX=0.987;exitY=0.13;entryX=0;entryY=0.25;rounded=0;sketch=1;hachureGap=4;jiggle=2;curveFitting=1;fontFamily=Architects Daughter;fontSource=https%3A%2F%2Ffonts.googleapis.com%2Fcss%3Ffamily%3DArchitects%2BDaughter;edgeStyle=orthogonalEdgeStyle;exitDx=0;exitDy=0;entryDx=0;entryDy=0;exitPerimeter=0;strokeColor=#000000;fontColor=#000000;labelBackgroundColor=none;" parent="1" source="wP0E1fFUgcn85LKdr6hC-213" target="wP0E1fFUgcn85LKdr6hC-217" edge="1">
          <mxGeometry x="-0.0606" y="-26" relative="1" as="geometry">
            <Array as="points">
              <mxPoint x="869" y="1114" />
              <mxPoint x="839" y="1044" />
              <mxPoint x="869" y="1044" />
            </Array>
            <mxPoint as="offset" />
          </mxGeometry>
        </mxCell>
        <mxCell id="wP0E1fFUgcn85LKdr6hC-232" value="Prepare LLM" style="curved=1;startArrow=none;endArrow=open;endSize=12;entryX=0;entryY=0.5;rounded=0;sketch=1;hachureGap=4;jiggle=2;curveFitting=1;fontFamily=Architects Daughter;fontSource=https%3A%2F%2Ffonts.googleapis.com%2Fcss%3Ffamily%3DArchitects%2BDaughter;edgeStyle=orthogonalEdgeStyle;entryDx=0;entryDy=0;strokeColor=#000000;fontColor=#000000;labelBackgroundColor=none;" parent="1" source="wP0E1fFUgcn85LKdr6hC-218" target="wP0E1fFUgcn85LKdr6hC-220" edge="1">
          <mxGeometry x="-0.3973" y="39" relative="1" as="geometry">
            <mxPoint as="offset" />
          </mxGeometry>
        </mxCell>
        <mxCell id="wP0E1fFUgcn85LKdr6hC-233" value="Inputs into" style="curved=1;startArrow=none;endArrow=open;endSize=12;exitX=1;exitY=0.25;rounded=0;sketch=1;hachureGap=4;jiggle=2;curveFitting=1;fontFamily=Architects Daughter;fontSource=https%3A%2F%2Ffonts.googleapis.com%2Fcss%3Ffamily%3DArchitects%2BDaughter;exitDx=0;exitDy=0;edgeStyle=orthogonalEdgeStyle;entryX=0.5;entryY=1.041;entryDx=0;entryDy=0;strokeColor=#000000;fontColor=#000000;labelBackgroundColor=none;entryPerimeter=0;" parent="1" source="wP0E1fFUgcn85LKdr6hC-220" target="wP0E1fFUgcn85LKdr6hC-225" edge="1">
          <mxGeometry x="0.1896" y="18" relative="1" as="geometry">
            <Array as="points">
              <mxPoint x="1368" y="1119" />
              <mxPoint x="1368" y="1103" />
              <mxPoint x="1400" y="1103" />
              <mxPoint x="1400" y="1071" />
              <mxPoint x="1415" y="1071" />
              <mxPoint x="1415" y="1065" />
              <mxPoint x="1455" y="1065" />
              <mxPoint x="1455" y="1061" />
              <mxPoint x="1480" y="1061" />
            </Array>
            <mxPoint x="1362" y="990" as="targetPoint" />
            <mxPoint x="-2" as="offset" />
          </mxGeometry>
        </mxCell>
        <mxCell id="wP0E1fFUgcn85LKdr6hC-234" value="" style="curved=1;startArrow=none;endArrow=open;endSize=12;exitX=-0.000014051258992805756;exitY=0.6686302981329164;entryX=0.5010890151515152;entryY=0.0024271844660194173;rounded=0;sketch=1;hachureGap=4;jiggle=2;curveFitting=1;fontFamily=Roboto;fontSource=https%3A%2F%2Ffonts.googleapis.com%2Fcss%3Ffamily%3DRoboto;strokeColor=#000000;fontColor=#000000;" parent="1" source="wP0E1fFUgcn85LKdr6hC-170" target="wP0E1fFUgcn85LKdr6hC-178" edge="1">
          <mxGeometry relative="1" as="geometry">
            <Array as="points">
              <mxPoint x="244" y="1458" />
            </Array>
          </mxGeometry>
        </mxCell>
        <mxCell id="wP0E1fFUgcn85LKdr6hC-235" value="" style="curved=1;startArrow=none;endArrow=open;endSize=12;exitX=-0.000014051258992805756;exitY=0.827138069159278;entryX=0.5009438894052045;entryY=0;rounded=0;sketch=1;hachureGap=4;jiggle=2;curveFitting=1;fontFamily=Roboto;fontSource=https%3A%2F%2Ffonts.googleapis.com%2Fcss%3Ffamily%3DRoboto;strokeColor=#000000;fontColor=#000000;" parent="1" source="wP0E1fFUgcn85LKdr6hC-170" target="wP0E1fFUgcn85LKdr6hC-182" edge="1">
          <mxGeometry relative="1" as="geometry">
            <Array as="points">
              <mxPoint x="511" y="1458" />
            </Array>
          </mxGeometry>
        </mxCell>
        <mxCell id="wP0E1fFUgcn85LKdr6hC-236" value="" style="curved=1;startArrow=none;endArrow=open;endSize=12;exitX=0.5002388714028777;exitY=0.9974093264248705;entryX=0.5003255208333334;entryY=0.0024271844660194173;rounded=0;sketch=1;hachureGap=4;jiggle=2;curveFitting=1;fontFamily=Roboto;fontSource=https%3A%2F%2Ffonts.googleapis.com%2Fcss%3Ffamily%3DRoboto;edgeStyle=orthogonalEdgeStyle;strokeColor=#000000;fontColor=#000000;" parent="1" source="wP0E1fFUgcn85LKdr6hC-170" target="wP0E1fFUgcn85LKdr6hC-187" edge="1">
          <mxGeometry relative="1" as="geometry" />
        </mxCell>
        <mxCell id="wP0E1fFUgcn85LKdr6hC-237" value="" style="curved=1;startArrow=none;endArrow=open;endSize=12;exitX=1.0004917940647482;exitY=0.8457257807312445;entryX=0.5001805409663865;entryY=0.0024271844660194173;rounded=0;sketch=1;hachureGap=4;jiggle=2;curveFitting=1;fontFamily=Roboto;fontSource=https%3A%2F%2Ffonts.googleapis.com%2Fcss%3Ffamily%3DRoboto;strokeColor=#000000;fontColor=#000000;" parent="1" source="wP0E1fFUgcn85LKdr6hC-170" target="wP0E1fFUgcn85LKdr6hC-191" edge="1">
          <mxGeometry relative="1" as="geometry">
            <Array as="points">
              <mxPoint x="1068" y="1458" />
            </Array>
          </mxGeometry>
        </mxCell>
        <mxCell id="wP0E1fFUgcn85LKdr6hC-241" value="Prompt and Retrieve Data" style="curved=1;startArrow=none;endArrow=open;endSize=12;exitX=0.108;exitY=1.074;entryX=-0.014;entryY=0.066;rounded=0;sketch=1;hachureGap=4;jiggle=2;curveFitting=1;fontFamily=Architects Daughter;fontSource=https%3A%2F%2Ffonts.googleapis.com%2Fcss%3Ffamily%3DArchitects%2BDaughter;exitDx=0;exitDy=0;exitPerimeter=0;entryDx=0;entryDy=0;entryPerimeter=0;edgeStyle=orthogonalEdgeStyle;strokeColor=#000000;fontColor=#000000;labelBackgroundColor=none;" parent="1" source="wP0E1fFUgcn85LKdr6hC-212" target="wP0E1fFUgcn85LKdr6hC-170" edge="1">
          <mxGeometry x="0.0511" y="-35" relative="1" as="geometry">
            <Array as="points">
              <mxPoint x="462" y="1116" />
              <mxPoint x="516" y="1116" />
              <mxPoint x="516" y="1215" />
              <mxPoint x="614" y="1215" />
              <mxPoint x="614" y="1243" />
            </Array>
            <mxPoint x="413" y="1114" as="sourcePoint" />
            <mxPoint x="447" y="1012" as="targetPoint" />
            <mxPoint x="-35" y="-31" as="offset" />
          </mxGeometry>
        </mxCell>
        <mxCell id="wP0E1fFUgcn85LKdr6hC-243" value="" style="shape=image;verticalLabelPosition=bottom;labelBackgroundColor=default;verticalAlign=top;aspect=fixed;imageAspect=0;image=data:image/svg+xml,PHN2ZyB4bWxucz0iaHR0cDovL3d3dy53My5vcmcvMjAwMC9zdmciIGZpbGw9Im5vbmUiIHZpZXdCb3g9IjAgMCAxNTcgNTAiIGhlaWdodD0iNTAiIHdpZHRoPSIxNTciPiYjeGE7PHBhdGggZmlsbD0id2hpdGUiIGQ9Ik01Mi4xMzM1IDI1LjI2OTdDNTIuMTMzNSAyNi40NzM3IDUxLjE2MjEgMjcuNDgzNSA0OS45NTc5IDI3LjQ4MzVDNDguNzE0OCAyNy40ODM1IDQ3Ljc0MzcgMjYuNTEyOCA0Ny43NDM3IDI1LjIzMDVDNDcuNzQzNyAyNC4wNjUxIDQ4Ljc1MzkgMjMuMDk0IDQ5Ljk1NzkgMjMuMDk0QzUxLjE2MjEgMjMuMDk0IDUyLjEzMzUgMjQuMDY1MSA1Mi4xMzM1IDI1LjI2OTdaTTM1Ljg1MjEgMzUuNDgyMUMzNi43NjggMzIuMzY2NCAzOS4wNzU0IDMwLjMzODEgNDEuNjc4MyAzMC4zMzgxQzQ0LjMzNjcgMzAuMzM4MSA0Ni4wNjM5IDMyLjA5OCA0Ni4wNjM5IDM0Ljg2NjFDNDYuMDYzOSAzNi40MzQ5IDQ1LjIxMTkgMzcuNTQ3MSA0My42ODggMzcuNTQ3MUM0Mi40MTg2IDM3LjU0NzEgNDEuNDg4IDM2LjY5NzEgNDEuNDg4IDM1LjUxMThDNDEuNDg4IDM0LjMzMDIgNDIuMTc5NCAzMy41OTg5IDQzLjI3NDkgMzMuNjA4M0M0My4xMzEgMzMuMDY0MyA0Mi41NzY0IDMyLjMxMTUgNDEuMzgxOCAzMi4zMTE1QzM5LjI4NjYgMzIuMzExNSAzNy41MjAzIDM0LjM1MDQgMzYuNzkzOSAzNi4zNzI1QzM2LjE1MjIgMzguMTU5MiAzNS44NTIxIDQwLjEzMTMgMzUuODUyMSA0Mi4zMDcxVjQ1LjE2NTlDMzUuODUyMSA0Ni45OTE4IDM2LjIwMTggNDcuMzQxMiAzOC4zMzgzIDQ3LjM4SDQwLjI0MTlWNDkuMzAwOEgyOS43MDA1SDI4Ljk3NjNIMTUuODY1VjQ3LjI0MThIMTguNTkwNUMxOS41NjE2IDQ3LjI0MTggMjAuMTA1NSA0Ni45NzAzIDIwLjEwNTUgNDYuNTAzOUMyMC4xMDU1IDQ2LjIzMjkgMjAuMTA1NSA0Ni4wNzY2IDE4Ljc0NTkgNDQuNjAwNUwxMS45NTg1IDM2Ljg1NThMNy43OTEwNCA0MC4yNzQ2VjQ0LjQwNjFDNy43NTIxOSA0Ni44NTMzIDguMDIzODkgNDcuMTY0MSAxMC41NDkzIDQ3LjI0MThIMTIuMjI1OFY0OS4zMDA4SDBWNDcuMjQxOEgxLjM2NTk1QzMuODUyMDYgNDcuMTY0MSA0LjEyMzc2IDQ2Ljg1MzMgNC4wODUxNCA0NC40MDYxVjI5LjQyMjdDNC4xMjM3NiAyNi45NzUyIDMuODUyMDYgMjYuNjY0NCAxLjM2NTk1IDI2LjU4N0gwVjI0LjUyNzlIMTIuMjI1OFYyNi41ODdIMTAuNTQ5M0M4LjAyMzg5IDI2LjY2NDQgNy43NTIxOSAyNi45NzUyIDcuNzkxMDQgMjkuNDIyN1YzNy4xODQ1TDE4LjQ3OTcgMjguNDE2NEMxOC45ODc1IDI3Ljk5OTcgMTkuMjA5MiAyNy43MTMzIDE5LjIwOTIgMjcuMzYzNEMxOS4yMDkyIDI2LjgxOTggMTguNzQ4NyAyNi41ODY4IDE3LjQzMzMgMjYuNTg2OEgxNS41OTNWMjQuNTI3N0gyOC4xMTQyVjI2LjU4NjhIMjYuODYxN0MyNC45MTQ0IDI2LjU4NjggMjMuNjQ1OSAyNy4yOTkxIDIwLjgyMjcgMjkuNTg0MkwxNC43NTU4IDM0LjU2MUwyNC4wMjkxIDQ0Ljk4ODdDMjUuNzY1NSA0Ni43NjI5IDI2LjQ2OCA0Ny4yNDE4IDI4LjUzNTIgNDcuMjQxOEgyOC45NzYzSDI5LjcwMDVIMzAuMDY0MkMzMi4yMDY0IDQ3LjI0MTggMzIuNTUwMyA0Ni44NTMzIDMyLjU1MDMgNDUuMDI3NlYzNS4yMTY4QzMyLjU1MDMgMzMuNDI5OSAzMi4yMDA3IDMzLjA4MDMgMzAuMDY0MiAzMy4wMDI2SDI4Ljk3NjNWMzEuMDgxOUgzNS44NTIxVjM1LjQ4MjFaTTUzLjg2MjkgNDUuMTY1OVYzMS4wODE3SDQ3LjIxNjRMNDcuMjMyNCAzMy4wMDI3SDQ4LjAzNjFDNTAuMTcyNiAzMy4wODAxIDUwLjUyMjIgMzMuMzkxMSA1MC41MjIyIDM1LjIxNjlWNDUuMTY1OUM1MC41MjIyIDQ2Ljk5MTYgNTAuMTcyNiA0Ny4zMDIgNDguMDM2MSA0Ny4zODAxSDQ2Ljc5M1Y0OS4zMDA5SDU3LjM1OTJWNDcuMzgwMUg1Ni4zNDlDNTQuMjEyNSA0Ny4zMDIyIDUzLjg2MjkgNDYuOTkxOSA1My44NjI5IDQ1LjE2NTlaTTY2LjYwNDggMzcuOTU3OEw3MC4yNTY1IDM4LjYxODJDNzQuMTQxMyAzOS4zNTYzIDc2LjI3NzggNDEuMjk4NyA3Ni4yNzc4IDQ0LjA5NjFDNzYuMjc3OCA0Ny42Njk2IDczLjQ0MjEgNDkuOTIyNyA2OS4wMTMzIDQ5LjkyMjdDNjYuNDQ5MiA0OS45MjI3IDY0LjkzNDMgNDkuMzM5NSA2Mi42ODEyIDQ3LjUxNEw2MS45MDQzIDQ5LjQ1NjFINTkuOTIzMlY0MS44NDI0SDYyLjA3MkM2Mi41MDEzIDQ0LjA0ODcgNjIuOTUzMiA0NC45NTAyIDY0LjExODUgNDUuOTk5QzY1LjQwMDYgNDcuMTY0MiA2Ny4xMDk4IDQ3LjgyNDggNjguODU3NyA0Ny44MjQ4QzcxLjQyMTkgNDcuODI0OCA3My4wOTIgNDYuNjU5MiA3My4wOTIgNDQuODcyNUM3My4wOTIgNDMuNDM1IDcyLjAwNDYgNDIuNTgwNCA2OS43MTI3IDQyLjExNDVMNjYuMjE2NCA0MS40NTM5QzYyLjQwOTggNDAuNzE1OCA2MC4xNTY1IDM4LjYxODIgNjAuMTU2NSAzNS44NTk5QzYwLjE1NjUgMzIuNjc0NiA2Mi44NzU3IDMwLjQ2MDQgNjYuNzYwNSAzMC40NjA0QzY5LjA1MjMgMzAuNDYwNCA3MC42NDUgMzEuMDA0NSA3Mi44NTk0IDMyLjQ4MDZMNzMuNTk3NSAzMC44NDg5SDc1LjM0NTVWMzcuOTE5SDczLjI3MTFDNzIuODg4MSAzNS45NDg0IDcyLjUwOTggMzUuMDQ0MiA3MS41NzczIDM0LjE1MTJDNzAuNDUxIDMzLjA2MzEgNjguODk2OSAzMi40ODA2IDY3LjExMDEgMzIuNDgwNkM2NC44MTgyIDMyLjQ4MDYgNjMuMzgwNSAzMy41Mjk0IDYzLjM4MDUgMzUuMTYwN0M2My4zODA1IDM2LjU5OCA2NC41MDcyIDM3LjU2OTQgNjYuNjA0OCAzNy45NTc4Wk04OC4yMjQ4IDQ2LjE5M0M4Ny44NTMgNDcuMjExNCA4Ni44NDUzIDQ3LjY0MTEgODUuNzU3NiA0Ny42NDExQzg0LjUwMzMgNDcuNjQxMSA4My45MjExIDQ2Ljk4MzggODMuOTIxMSA0NS42MTA0VjMzLjAwMjlIOTAuMDY5MlYzMS4wODIySDgzLjkyMTFWMjQuMDgzNkg4Mi4wOTU0QzgxLjY2ODMgMjkuMDU2MSA4MC44Mzk4IDMwLjgxIDc3LjgwOTkgMzEuMDgyMlYzMy4wMDI5SDgwLjYxOTVWNDUuNjEwNEM4MC42MTk1IDQ4LjI5MDkgODIuMzY3NSA0OS45NjE1IDg1LjIwMzQgNDkuOTYxNUM4Ny4zMDExIDQ5Ljk2MTUgODkuMTUwNyA0OS4wNzc3IDg5Ljg1ODcgNDcuMzU4NEM5MC4yNjg5IDQ2LjM2MTggOTAuNDU3OSA0NS4xNzYgOTAuNDU3OSA0My4xMjQ3SDg4LjYwMjdDODguNjAyNSA0NC40NjUyIDg4LjQ4MDUgNDUuNDkyNyA4OC4yMjQ4IDQ2LjE5M1pNMTA5LjM2OSA0Ny44MjU1QzExMC41NzEgNDcuODI1NSAxMTEuMTIyIDQ2LjcyOTMgMTExLjEyMiA0Mi43Njk3SDExMi45MDRDMTEyLjkwNCA0OC4xNTYxIDExMS45MSA1MCAxMDguODQxIDUwQzEwNi44OTkgNTAgMTA1Ljc5NSA0OS4xMDY0IDEwNS4xMzQgNDYuOTMxQzEwMi43ODQgNDkuMTkxMyAxMDAuOSA1MCA5OC4zNzQ3IDUwQzk0Ljk1NTggNTAgOTIuNjY0MiA0OC4wMTkxIDkyLjY2NDIgNDUuMDI3NkM5Mi42NjQyIDQzLjUxMjQgOTMuMzI0NiA0Mi4yMzA3IDk0LjU2NzYgNDEuMzM3Qzk1LjYxNjQgNDAuNTk5MiA5Ni42MjY2IDQwLjIxMDUgOTguOTU3NCAzOS41NTA2TDEwMS45ODggMzguNjk1NkMxMDQuMzU3IDM4LjAzNTIgMTA1LjA1NiAzNy40MjMzIDEwNS4wNTYgMzUuODI1NEMxMDUuMDU2IDMzLjgyNTYgMTAzLjc5NCAzMi4yMDgxIDEwMC41NSAzMi4yMDgxQzk4Ljc3OTIgMzIuMjA4MSA5Ny4yMDU2IDMzLjAwMjYgOTYuNDAzNSAzNC4wNDk5Qzk3LjUyMTYgMzQuMjEzIDk4LjEzODggMzQuOTY5OSA5OC4xMzg4IDM2LjA0MDdDOTguMTM4OCAzNy4xMDA5IDk3LjQwODIgMzcuOTQyOCA5Ni4wNTU4IDM3Ljk0MjhDOTQuNzM1MyAzNy45NDI4IDkzLjU4MzcgMzcuMDY2IDkzLjU4MzcgMzUuNDk3OUM5My41ODM3IDMyLjY4MTcgOTYuODk4MyAzMC40NjAxIDEwMS4wNTUgMzAuNDYwMUMxMDMuMTE0IDMwLjQ2MDEgMTA0LjcwNSAzMC45NDAxIDEwNi4wMzEgMzEuOTExQzEwNy41MjIgMzMuMDAyNiAxMDguMjAzIDM0LjI3MTMgMTA4LjIwMyAzNi43OTgxVjQ1LjYxQzEwOC4yMDMgNDcuMjQxOCAxMDguNTYxIDQ3LjgyNTUgMTA5LjM2OSA0Ny44MjU1Wk0xMDMuMDgxIDQ2LjM5MjlDMTA0LjQwMiA0NS4yNjY0IDEwNC45NCA0My45Nzg4IDEwNC45NCA0MS41NzAxSDEwNC45NFYzOS40NzMxQzEwMy40NzggNDAuMjQ2MyAxMDIuNTcgNDAuNTYwMSAxMDEuNDQzIDQwLjkxTDk5LjkyODMgNDEuNDE1MkM5Ny4zMjU2IDQyLjI2OTYgOTYuMzE1NyA0My4yNDA3IDk2LjMxNTcgNDQuOTUwMUM5Ni4zMTU3IDQ2LjYyMDcgOTcuNDgxMiA0Ny43MDc5IDk5LjM0NTYgNDcuNzA3OUMxMDAuNzA2IDQ3LjcwNzkgMTAyLjE0OCA0Ny4xNjk4IDEwMy4wODEgNDYuMzkyOVoiIGNsaXAtcnVsZT0iZXZlbm9kZCIgZmlsbC1ydWxlPSJldmVub2RkIi8+JiN4YTs8cGF0aCBmaWxsPSJ3aGl0ZSIgZD0iTTE1NC4yMTcgMjcuNTc5QzE1NC4xMzggMjcuNjE1IDE1NC4xMjkgMjcuNjc2NiAxNTQuMTM2IDI3Ljc1NTZDMTU0LjE0NyAyNy44NzQxIDE1NC4xMTIgMjcuOTEyNCAxNTQuMDA5IDI3Ljk1MTJDMTUzLjkzOSAyNy45NzgyIDE1My44NyAyNy45ODY5IDE1My43OTcgMjcuOTY1NUMxNTMuNzIxIDI3Ljk0MyAxNTMuNjUxIDI3Ljk2NDcgMTUzLjU5NCAyOC4wMTIxQzE1My40OTkgMjguMDkxMSAxNTMuNCAyOC4xMDU2IDE1My4yOTIgMjguMDQ3N0MxNTMuMTk3IDI3Ljk5NyAxNTMuMDggMjguMDAyMyAxNTIuOTk3IDI3LjkxNTZDMTUyLjk1NSAyNy44NzAxIDE1Mi45MSAyNy45MDI2IDE1Mi45MDkgMjcuOTc0OEMxNTIuOTA4IDI4LjAxMDIgMTUyLjkwOSAyOC4wNDY0IDE1Mi45MTMgMjguMDgxOEMxNTIuOTE5IDI4LjEzNzEgMTUyLjk1MiAyOC4xNzA3IDE1My4wMjIgMjguMTY4QzE1My4xMDMgMjguMTY0OSAxNTMuMTY3IDI4LjE3NjggMTUzLjE4OCAyOC4yNjI3QzE1My4yMTMgMjguMzY2OCAxNTMuMjM4IDI4LjQ3MTggMTUzLjI1MiAyOC41NzczQzE1My4yNTUgMjguNTk3OSAxNTMuMjE2IDI4LjYzNzYgMTUzLjE5IDI4LjY0NTJDMTUzLjEyIDI4LjY2NTEgMTUzLjAzNyAyOC42NzU0IDE1My4wMSAyOC43NDgzQzE1Mi45MjEgMjguOTkxMyAxNTIuNzY2IDI5LjE4NjEgMTUyLjU3NiAyOS4zNTg4QzE1Mi41MjMgMjkuNDA2NiAxNTIuNDg2IDI5LjQ3MjIgMTUyLjQzOSAyOS41MjY3QzE1Mi4zOTggMjkuNTc0IDE1Mi4zNDQgMjkuNTY4NCAxNTIuMjkyIDI5LjU0NzNDMTUyLjE0OCAyOS40ODczIDE1Mi4wNDYgMjkuNTQ2NyAxNTEuOTYyIDI5LjY1NjdDMTUxLjk0IDI5LjY4NTMgMTUxLjkyMyAyOS43MTczIDE1MS45MDMgMjkuNzQ3N0wxNTEuOTEgMjkuNzQyMUMxNTEuODIgMjkuNzU0NSAxNTEuNzMxIDI5Ljc2NyAxNTEuNjgxIDI5Ljg1NjNMMTUxLjY4NyAyOS44NTA4QzE1MS42NDEgMjkuOTA1OCAxNTEuNiAyOS45NjUgMTUxLjU1IDMwLjAxNTJDMTUxLjQ4NiAzMC4wNzkyIDE1MS40MjYgMzAuMTYwNiAxNTEuMzQ3IDMwLjE5MjRDMTUxLjA3OSAzMC4zMDE1IDE1MC44MzIgMzAuNDY1NSAxNTAuNTM1IDMwLjUwNDFDMTUwLjQwOSAzMC41MjAyIDE1MC4yODQgMzAuNTUxMSAxNTAuMTYxIDMwLjU4MzFDMTUwLjAzOCAzMC42MTQ2IDE0OS45MiAzMC42NjQzIDE0OS43OTYgMzAuNjkxQzE0OS42NjUgMzAuNzE5OCAxNDkuNTUzIDMwLjYyNjUgMTQ5LjQyNiAzMC42MTExQzE0OS4yNzcgMzAuNTkzNCAxNDkuMTMzIDMwLjU5MTMgMTQ5LjAxOSAzMC43MDk1QzE0OC45ODggMzAuNzQxNyAxNDguOTg1IDMwLjc4MDggMTQ5LjAxNyAzMC44MDJDMTQ5LjA2MiAzMC44MyAxNDkuMTEzIDMwLjg0OCAxNDkuMTYxIDMwLjg3MjlDMTQ5LjE2NSAzMC44NzU1IDE0OS4xNjYgMzAuOTAxMSAxNDkuMTYgMzAuOTA3QzE0OS4wNzQgMzAuOTgxMiAxNDguOTcyIDMxLjAxNzIgMTQ4Ljg1OSAzMS4wMTI3QzE0OC44MDUgMzEuMDExMSAxNDguNzQ5IDMxLjAwMTMgMTQ4LjY5OSAzMC45ODIzQzE0OC41MzkgMzAuOTIwNCAxNDguMzggMzAuOTE1OSAxNDguMjE5IDMwLjk3NTdDMTQ4LjE1IDMxLjAwMTEgMTQ4LjA4MSAzMS4wMjk0IDE0OC4wMDYgMzEuMDEwOUMxNDcuOTI3IDMwLjk5MTMgMTQ3Ljg3MSAzMS4wMTY3IDE0Ny44MTMgMzEuMDcyMkMxNDcuNzc3IDMxLjEwNzEgMTQ3LjcxOSAzMS4xMzExIDE0Ny42NjggMzEuMTM4QzE0Ny41MzkgMzEuMTU1MiAxNDcuNDE5IDMxLjE5NTcgMTQ3LjMwNSAzMS4yNTI1QzE0Ny4wNzMgMzEuMzY4NiAxNDYuODI4IDMxLjQxODggMTQ2LjU3IDMxLjQyMzVDMTQ2LjQ4NyAzMS40MjUxIDE0Ni40NTcgMzEuNDk2NSAxNDYuNTA5IDMxLjU3NUMxNDYuNTM0IDMxLjYxMTggMTQ2LjU1NCAzMS42NDc3IDE0Ni41MjUgMzEuNjU2N0MxNDYuNDA2IDMxLjY5NDUgMTQ2LjI5IDMxLjc2MDEgMTQ2LjE1NyAzMS43MjEyQzE0Ni4wNDkgMzEuNjkgMTQ1LjkzOSAzMS42OTY0IDE0NS44MzIgMzEuNzIxMkMxNDUuNjU1IDMxLjc2MiAxNDUuNDc3IDMxLjgwMTkgMTQ1LjMwMiAzMS44NTFDMTQ1LjE5MiAzMS44ODE3IDE0NS4wODUgMzEuODg5OSAxNDQuOTggMzEuODUyMUMxNDQuNzM0IDMxLjc2MzUgMTQ0LjQ3MyAzMS44MDM3IDE0NC4yMjIgMzEuNzU0M0MxNDQuMDk4IDMxLjcyOTcgMTQzLjk3IDMxLjgwNzQgMTQzLjg0NSAzMS43NTE5QzE0My43MDUgMzEuNzg1NSAxNDMuNTY1IDMxLjgwNDggMTQzLjQ0MiAzMS44OTYzQzE0My4zMTEgMzEuOTkyNyAxNDMuMTEgMzEuOTc3MSAxNDIuOTg4IDMxLjg4MjJDMTQyLjkzMiAzMS44Mzg0IDE0Mi44ODggMzEuNzc4MyAxNDIuODMgMzEuNzM3MUMxNDIuODEgMzEuNzIyNiAxNDIuNzU2IDMxLjczMDUgMTQyLjczNCAzMS43NDc5QzE0Mi42NjYgMzEuODAyMSAxNDIuNjEzIDMxLjg4MzMgMTQyLjUxMiAzMS43ODg0QzE0Mi40NiAzMS43MzkgMTQyLjM4OCAzMS43MTczIDE0Mi4zMSAzMS43MjMxQzE0Mi4yMiAzMS43Mjk0IDE0Mi4xMyAzMS43MyAxNDIuMDM5IDMxLjczODJDMTQxLjc4IDMxLjc2MTQgMTQxLjUzNCAzMS43MjM5IDE0MS4zMDYgMzEuNTk0MUMxNDEuMjU5IDMxLjU2NzQgMTQxLjIwNyAzMS41NDY3IDE0MS4xNTQgMzEuNTMyNUMxNDEuMTAzIDMxLjUxODIgMTQxLjA0MSAzMS40OTQ5IDE0MC45OTUgMzEuNTEwOEMxNDAuNjgxIDMxLjYxODQgMTQwLjM4MiAzMS40NzM4IDE0MC4wNzYgMzEuNDYyNEMxMzkuOTkgMzEuNDU4NyAxMzkuOTAyIDMxLjQwODcgMTM5LjgyNCAzMS4zNjQ5QzEzOS42OTUgMzEuMjkyMiAxMzkuNTU3IDMxLjI1MTIgMTM5LjQxMyAzMS4yMjM5QzEzOS4zMzkgMzEuMjA5OSAxMzkuMjY5IDMxLjIxMiAxMzkuMTk4IDMxLjIzNEMxMzkuMTI2IDMxLjI1NjUgMTM5LjA1MyAzMS4yNTEyIDEzOC45ODUgMzEuMjE5N0MxMzguODQ5IDMxLjE1NjMgMTM4LjcwNiAzMS4xNDYyIDEzOC41NTcgMzEuMTUxQzEzOC40MyAzMS4xNTUyIDEzOC4zMDIgMzEuMTQ5MSAxMzguMTc0IDMxLjE0MTdDMTM3Ljk3IDMxLjEyOTggMTM3Ljc3NyAzMS4wNzc3IDEzNy42MTYgMzAuOTQ3N0MxMzcuNTA4IDMwLjg1OTkgMTM3LjM5NyAzMC44MzI5IDEzNy4yNjEgMzAuODcxM0MxMzcuMjE1IDMwLjg4NDIgMTM3LjE1NiAzMC44NTM2IDEzNy4xMDMgMzAuODQ0M0MxMzcuMDMyIDMwLjgzMjQgMTM2Ljk1OCAzMC44MDU3IDEzNi44ODkgMzAuODE0NEMxMzYuNjg0IDMwLjg0MTkgMTM2LjQ5NCAzMC44MDY1IDEzNi4yOTkgMzAuNzM5M0MxMzYuMDc3IDMwLjY2MjEgMTM1Ljg0MyAzMC42MTQ2IDEzNS42MTYgMzAuNTQ4NUMxMzUuNTQyIDMwLjUyNjggMTM1LjQ3MyAzMC41Mjk0IDEzNS40MDMgMzAuNTU1MUMxMzUuMjUzIDMwLjYxMDYgMTM1LjExNiAzMC41NjEyIDEzNC45OCAzMC41MDU0QzEzNC45NiAzMC40NTU3IDEzNC45NDQgMzAuNDQ1NiAxMzQuOTQyIDMwLjQ3NzFDMTM0Ljk0MiAzMC40ODMyIDEzNC45NzEgMzAuNDkxNiAxMzQuOTg3IDMwLjQ5ODVDMTM0Ljk2NyAzMC41Mjg5IDEzNC45NTIgMzAuNTYyNyAxMzQuOTI4IDMwLjU4OTRDMTM0Ljg2MyAzMC42NjMyIDEzNC44MTggMzAuNjc1MSAxMzQuNzQgMzAuNjM1N0MxMzQuNjc2IDMwLjYwMzcgMTM0LjYyNCAzMC41NTMgMTM0LjU0MSAzMC41NjE5QzEzNC4zMDIgMzAuNTg3OSAxMzQuMDczIDMwLjUyNzggMTMzLjg0NSAzMC40Njc4QzEzMy42ODYgMzAuNDI2MyAxMzMuNTI0IDMwLjM5NzggMTMzLjM2NCAzMC4zNTkyQzEzMy4yOSAzMC4zNDEyIDEzMy4yMjEgMzAuMzUzOSAxMzMuMTQ4IDMwLjM2NThDMTMzLjAxMyAzMC4zODggMTMyLjg5NyAzMC4zNDgzIDEzMi43OTcgMzAuMjU1OEMxMzIuNzQxIDMwLjIwNDggMTMyLjY3NCAzMC4xOTQ1IDEzMi41OTQgMzAuMjExMUMxMzIuNDg5IDMwLjIzMzYgMTMyLjM3OSAzMC4yMzc4IDEzMi4yNzEgMzAuMjQ3OUMxMzIuMjExIDMwLjI1MzQgMTMyLjE2OSAzMC4yMTc3IDEzMi4xMyAzMC4xODAyQzEzMi4wOSAzMC4xNDI3IDEzMi4wNTEgMzAuMDkxNCAxMzEuOTk0IDMwLjEwMDFDMTMxLjc3OSAzMC4xMzIzIDEzMS41NjMgMzAuMDA2OCAxMzEuMzQ3IDMwLjEwNTFDMTMxLjMzIDMwLjExMzMgMTMxLjI3NCAzMC4wODE2IDEzMS4yNjUgMzAuMDU3NUMxMzEuMjI0IDI5Ljk1MjggMTMxLjE3IDI5Ljg2NTMgMTMxLjA2MSAyOS44MTU5QzEzMC45OTMgMjkuNzg0NCAxMzAuOTI3IDI5Ljc2MDEgMTMwLjg1OCAyOS44MTQzQzEzMC44NDQgMjkuODI1NyAxMzAuODI5IDI5LjgzNTcgMTMwLjgxNyAyOS44NDkyQzEzMC43MDMgMjkuOTc2NCAxMzAuNTYxIDI5Ljk4MjIgMTMwLjQxOSAyOS45MTgyQzEzMC4zMSAyOS44Njk2IDEzMC4yMTIgMjkuODYyOSAxMzAuMTA2IDI5LjkxNzFDMTMwLjA1NyAyOS45NDI1IDEzMCAyOS45NDYyIDEyOS45NDggMjkuOTE4MkMxMjkuODI4IDI5Ljg1MzIgMTI5LjcxMSAyOS44NTIxIDEyOS41ODEgMjkuOTAwMkMxMjkuMjU0IDMwLjAyMDUgMTI4LjkzNyAzMC4xNTE2IDEyOC42NTIgMzAuMzU0OUMxMjguNCAzMC41MzM0IDEyOC4xMzMgMzAuNjg5OSAxMjcuODUgMzAuODE5MkMxMjcuNTUxIDMwLjk1NTkgMTI3LjI3NSAzMS4xMjg1IDEyNy4wMzIgMzEuMzUxNEMxMjYuOTggMzEuMzk5IDEyNi45MTMgMzEuNDQzNCAxMjYuODQ2IDMxLjQ1OUMxMjYuNjg0IDMxLjQ5NzYgMTI2LjYwMSAzMS42MDI1IDEyNi41NDUgMzEuNzQ0MkMxMjYuNDIyIDMyLjA1NTcgMTI2LjA5MSAzMi4zNTcxIDEyNS44MTggMzIuNTQ3OUMxMjUuNjg1IDMyLjY0MTMgMTI1LjU5OCAzMi43OTIyIDEyNS40MjggMzIuODM4NUMxMjUuMzk3IDMyLjg0NjQgMTI1LjM2MiAzMi44Nzg3IDEyNS4zNSAzMi45MDgzQzEyNS4yNDkgMzMuMTU0NCAxMjQuOTE5IDMzLjM1NTkgMTI0LjcyMiAzMy41MTI0QzEyNC41OCAzMy42MjQ1IDEyNC40NzQgMzMuNzc3OCAxMjQuMzA4IDMzLjg2MTZDMTI0LjI0MyAzMy43NTYxIDEyNC4xNDUgMzMuNzM1MiAxMjQuMDMyIDMzLjc2MTRDMTI0LjAwNCAzMy43NjgzIDEyMy45NzkgMzMuNzkyOSAxMjMuOTUzIDMzLjgwOTNDMTIzLjk2NiAzMy44MjAxIDEyMy45OCAzMy44Mzk0IDEyMy45OTQgMzMuODQwN0MxMjQuMSAzMy44NDc5IDEyNC4yMDYgMzMuODUxNiAxMjQuMzEyIDMzLjg1NjNDMTI0LjE0MyAzNC4wMTU3IDEyMy45NjUgMzQuMTYwOSAxMjMuNzI3IDM0LjIxNDZDMTIzLjY3OSAzNC4yMjU0IDEyMy42MjIgMzQuMjY0OCAxMjMuNiAzNC4zMDY2QzEyMy40OTIgMzQuNTA0OCAxMjMuMTQyIDM0LjczNjIgMTIyLjk0NiAzNC44MzIxQzEyMi44OTkgMzQuODU0OSAxMjIuODU0IDM0Ljg4OSAxMjIuODIxIDM0LjkyNzhDMTIyLjc1NyAzNS4wMDIxIDEyMi43IDM0Ljk3MDEgMTIyLjYzOSAzNC45MzA3QzEyMi41NDkgMzQuODcyNiAxMjIuNDYzIDM0Ljg5ODIgMTIyLjM4OSAzNC45NTM1QzEyMi4zMzMgMzQuOTk0NSAxMjIuMjg3IDM1LjA1MSAxMjIuMjQ1IDM1LjEwNzRDMTIyLjE5MSAzNS4xODAxIDEyMi4xMjkgMzUuMjQxNyAxMjIuMDQzIDM1LjI3NThDMTIyLjAyNCAzNS4yMjc0IDEyMi4wMDggMzUuMjE3MyAxMjIuMDA4IDM1LjI0NTZDMTIyLjAwOCAzNS4yNTMgMTIyLjAzNiAzNS4yNjA0IDEyMi4wNSAzNS4yNjgxQzEyMi4wMTIgMzUuMzQ3MSAxMjEuOTU2IDM1LjQyMyAxMjEuOTM4IDM1LjUwNjZDMTIxLjkxMSAzNS42MzM1IDEyMS44MjggMzUuNjggMTIxLjY5MyAzNS42OEMxMjEuNjcyIDM1LjY2NjIgMTIxLjY3MiAzNS42Nzk1IDEyMS42NzkgMzUuNjg1NUMxMjEuNjg5IDM1LjY5NCAxMjEuNzAzIDM1LjY5NzcgMTIxLjcxNiAzNS43MDMzQzEyMS43MSAzNS42OTA4IDEyMS43MDcgMzUuNjc2MyAxMjEuNjk4IDM1LjY2NjVDMTIxLjY5MyAzNS42NTk5IDEyMS42NzkgMzUuNjU5OSAxMjEuNjkzIDM1LjY4QzEyMS42NjIgMzUuODAxMyAxMjEuNTg5IDM1Ljg3NDMgMTIxLjQ3NiAzNS45MTAzQzEyMS4zOTEgMzUuOTM3OCAxMjEuMzAzIDM1Ljk3MTYgMTIxLjIyOSAzNi4wMjA1QzEyMS4xNTQgMzYuMDcwNSAxMjAuODU4IDM2LjU0MzcgMTIwLjg3MyAzNi42NDcxQzEyMC44NzkgMzYuNjg4MSAxMjAuODY1IDM2LjcxNjMgMTIwLjgyOCAzNi43Mzc1QzEyMC42ODUgMzYuODE3NiAxMjAuNTUxIDM2LjkwNTQgMTIwLjQyNyAzNy4wMTQ4QzEyMC4zMzYgMzcuMDk0NCAxMjAuMTk0IDM3LjExNTUgMTIwLjA5MSAzNy4xODUxQzEyMC4wMDIgMzcuMjQ0MyAxMTkuMzUyIDM3LjcxNDQgMTE5LjI3MSAzNy43ODU1QzExOS4yMzIgMzcuODIwMSAxMTkuMTc4IDM3Ljg0NzEgMTE5LjEyNiAzNy44NTcxQzExOC44OTMgMzcuOTAzMSAxMTguNjY4IDM3Ljk4MDYgMTE4LjQ0NCAzOC4wNTdDMTE4LjI5OSAzOC4xMDY3IDExOC4xNTEgMzguMTA3IDExOC4wMTIgMzguMDYzNkMxMTcuNjEzIDM3LjkzNjIgMTE3LjY4IDM3LjI2NTQgMTE3LjcxNCAzNy4xNjcxQzExNy43MzMgMzcuMTEyOSAxMTcuNzEyIDM3LjA1MjYgMTE3LjY2MSAzNy4wMjcyQzExNy41NDcgMzYuOTcwNCAxMTcuNDA0IDM2Ljc5NyAxMTcuMzAyIDM2LjcyNEMxMTcuMjYyIDM2LjY5NiAxMTcuMjQ3IDM2LjUyMTIgMTE3LjIxOSAzNi41MjkyQzExNy4xODggMzYuNTM3MSAxMTcuMTQ4IDM2LjUyNDcgMTE3LjExNCAzNi41MTQ5QzExNy4wOTkgMzYuNTEwOSAxMTcuMDgyIDM2LjQ5MzIgMTE3LjA3NyAzNi40NzgxQzExNy4wMiAzNi4zMDMxIDExNy4wOTIgMzYuMTg2MyAxMTYuOTcxIDM2LjA1MDZDMTE2LjkyNiAzNi4wMDA0IDExNi44OTUgMzUuOTIwOCAxMTYuODk0IDM1Ljg1NDVDMTE2Ljg5MSAzNS40OTQ5IDExNi44OTIgMzUuMTM1MSAxMTYuOTA5IDM0Ljc3NThDMTE2LjkxNCAzNC42NzMgMTE2Ljk2OSAzNC41NzAxIDExNy4wMTIgMzQuNDcxNUMxMTcuMDQ0IDM0LjM5NjQgMTE3LjIyNSAzNC4yMjE3IDExNy4xNTMgMzQuMTY4QzExNy4xNCAzNC4xNTgyIDExNy4xMjcgMzQuMTM0NyAxMTcuMTMgMzQuMTIwNEMxMTcuMTc5IDMzLjg5MSAxMTcuMTQ3IDMzLjY1NTEgMTE3LjE4NSAzMy40MjU0QzExNy4yMTYgMzMuMjM0MyAxMTcuNDQgMzMuMDQ3MyAxMTcuNjM3IDMyLjk5NjNDMTE3LjcgMzIuOTc5OSAxMTcuNzI1IDMyLjkzOTUgMTE3LjcxOSAzMi44ODA1QzExNy43MTIgMzIuODIwOCAxMTcuNjgxIDMyLjc4MTQgMTE3LjYxNCAzMi43ODAxQzExNy41NDYgMzIuNzc4NSAxMTcuNTE5IDMyLjczMTQgMTE3LjUxMyAzMi42NzYyQzExNy41MDcgMzIuNjIzNiAxMTcuNTAzIDMyLjU2NTEgMTE3LjUyIDMyLjUxNjVDMTE3LjU4IDMyLjM0NDYgMTE3LjczMSAzMi4xMTMzIDExNy43MjkgMzEuOTMwNkMxMTcuNzI3IDMxLjgyMDYgMTE3Ljc2MSAzMS43MTY1IDExNy44MiAzMS42MjM3QzExNy45MjEgMzEuNDY1MSAxMTcuOTY0IDMxLjI5MTEgMTE3Ljk1NCAzMS4xMDg0QzExNy45NDEgMzAuODcwNSAxMTcuOTgzIDMwLjY0MzEgMTE4LjA2NSAzMC40MjI0QzExOC4xMTIgMzAuMzAwMiAxMTguMTE4IDMwLjE4MiAxMTguMDg5IDMwLjA1NTRDMTE4LjA3NyAzMC4wMDYgMTE4LjA5IDI5Ljk0NzMgMTE4LjEwNSAyOS44OTY4QzExOC4xNDYgMjkuNzU5IDExOC4yMDMgMjkuNjI1OCAxMTguMjQgMjkuNDg3QzExOC4yODcgMjkuMzA4OCAxMTguMzY5IDI5LjE1NDQgMTE4LjUwNCAyOS4wMjYyQzExOC41NjQgMjguOTY4OCAxMTguNTU1IDI4Ljg5ODIgMTE4LjU0IDI4LjgyNUMxMTguNTI0IDI4Ljc1MTUgMTE4LjU0MyAyOC42ODEyIDExOC41OTggMjguNjI2N0MxMTguNjggMjguNTQ1MyAxMTguNzE2IDI4LjQ0NzcgMTE4LjcxNiAyOC4zMzQ5QzExOC43MTYgMjguMjI3MiAxMTguNzE5IDI4LjExOTQgMTE4LjcxNiAyOC4wMTEzQzExOC43MTEgMjcuODI2MiAxMTguNzM2IDI3LjY1OTEgMTE4Ljg5OSAyNy41Mjg4QzExOC45NjQgMjcuNDc2MiAxMTkgMjcuMzc5NyAxMTkuMDMxIDI3LjI5NjFDMTE5LjA4MSAyNy4xNjEzIDExOS4xMTEgMjcuMDE5MSAxMTkuMTU5IDI2Ljg4MzRDMTE5LjE3NiAyNi44MzcyIDExOS4yMTQgMjYuNzkyMiAxMTkuMjU0IDI2Ljc2MjFDMTE5LjI3NyAyNi43NDU0IDExOS4zMjUgMjYuNzU3MSAxMTkuMzYgMjYuNzYzNEMxMTkuNDI0IDI2Ljc3NTMgMTE5LjQ2NCAyNi43NDUyIDExOS40ODcgMjYuNjkzMUMxMTkuNTA4IDI2LjY0MzYgMTE5LjUxOCAyNi41ODk3IDExOS41MzYgMjYuNTM4N0MxMTkuNjUzIDI2LjE5NjMgMTE5LjkwOSAyNi4wMjA4IDEyMC4yNTkgMjUuOTU5N0MxMjAuMjgzIDI1Ljk4NTkgMTIwLjMwMiAyNi4wMTg5IDEyMC4zMzEgMjYuMDM3NEMxMjAuMzcyIDI2LjA2NDkgMTIwLjQwMyAyNi4wNDk5IDEyMC40MDIgMjYuMDA3NkMxMjAuNDAyIDI1Ljk5ODMgMTIwLjM3NiAyNS45ODM4IDEyMC4zNiAyNS45ODA2QzEyMC4zMjUgMjUuOTczNSAxMjAuMjg4IDI1Ljk3MTkgMTIwLjI1MiAyNS45Njc2QzEyMC4yMTggMjUuOTI3NSAxMjAuMTg3IDI1Ljg4NDEgMTIwLjE0OSAyNS44NDY4QzEyMC4xMTUgMjUuODEzMiAxMjAuMTEgMjUuNzg2OCAxMjAuMTQ1IDI1Ljc1OUMxMjAuMjIyIDI1LjY5ODUgMTIwLjI0OSAyNS42MTY4IDEyMC4yNTggMjUuNTI0QzEyMC4yNzMgMjUuMzY0MSAxMjAuMzc2IDI1LjI2MDIgMTIwLjUxNCAyNS4yMDA3QzEyMC42NjQgMjUuMTM3IDEyMC44MjIgMjUuMDkzMyAxMjAuOTc4IDI1LjA0NzZDMTIxLjAwOSAyNS4wMzg2IDEyMS4wNDkgMjUuMDU5OCAxMjEuMDg0IDI1LjA2NzRDMTIxLjE2MSAyNS4wODM2IDEyMS4yMyAyNS4wNjk4IDEyMS4yODMgMjUuMDEwOUMxMjEuMzc4IDI0LjkwNDggMTIxLjQ3OSAyNC45NTMyIDEyMS41OCAyNC45OTVMMTIxLjU3MiAyNC45ODg0QzEyMS42IDI1LjAzNjUgMTIxLjY0IDI1LjA3MTkgMTIxLjY5NyAyNS4wNjU2QzEyMS43NDggMjUuMDYgMTIxLjc5OCAyNS4wMzYgMTIxLjg0OCAyNS4wMjNDMTIxLjkxMyAyNS4wMDY0IDEyMS45NTIgMjUuMDMzNiAxMjEuOTQ2IDI1LjA5OTdDMTIxLjkzOCAyNS4xNjk1IDEyMS45MjYgMjUuMjM1OCAxMjEuOTc4IDI1LjI5NTFDMTIyIDI1LjMxOTQgMTIyLjAxNiAyNS4zNDg3IDEyMi4wMzQgMjUuMzc1NEMxMjIuMDAzIDI1LjM5MDggMTIxLjk3MiAyNS40MDY2IDEyMS45NCAyNS40MjA5QzEyMS45MjQgMjUuNDI3OCAxMjEuOTA1IDI1LjQzMDcgMTIxLjg5IDI1LjQzOTFDMTIxLjg0MSAyNS40NjY0IDEyMS44MTQgMjUuNTIxNiAxMjEuODI1IDI1LjU2NzFDMTIxLjg0MiAyNS42MzY5IDEyMS45MSAyNS42OTQ4IDEyMS45NzYgMjUuNjg1OEMxMjIuMDI4IDI1LjY3OTIgMTIyLjA3OCAyNS42NTgzIDEyMi4xMjkgMjUuNjQ0TDEyMi4xMjEgMjUuNjM2NEMxMjIuMTI0IDI1LjcwNjIgMTIyLjE0MiAyNS43NjkxIDEyMi4xOTQgMjUuODIwMUMxMjIuMjkxIDI1LjkxNDggMTIyLjM4OSAyNi4wMDk3IDEyMi40ODcgMjYuMTA0NkMxMjIuNTM5IDI2LjE1NTEgMTIyLjU1MSAyNi4yMjE3IDEyMi41NjEgMjYuMjg5MUwxMjIuNTY4IDI2LjI4MTdDMTIyLjQ4OCAyNi4zNDAxIDEyMi40ODcgMjYuMzQwMSAxMjIuNTY4IDI2LjQwMDdMMTIyLjU2MSAyNi4zOTM4QzEyMi41NTQgMjYuNDQ3IDEyMi41NDMgMjYuNTAwNiAxMjIuNTQyIDI2LjU1NEMxMjIuNTQgMjYuNjU4NyAxMjIuNDc3IDI2LjY1MjQgMTIyLjM5NiAyNi42NTQyQzEyMi4zMTkgMjYuNjU2MSAxMjIuMjY4IDI2Ljc1NiAxMjIuMzAxIDI2LjgxNDRDMTIyLjMyNyAyNi44NjE1IDEyMi4zNjMgMjYuOTAyNyAxMjIuMzkgMjYuOTQ5M0MxMjIuNDA3IDI2Ljk3OTcgMTIyLjQzMiAyNy4wMTg4IDEyMi40MjYgMjcuMDQ3M0MxMjIuMzk0IDI3LjE4MzggMTIyLjQzMiAyNy4zMzcxIDEyMi4zMjEgMjcuNDU0MkMxMjIuMjc3IDI3LjUwMTMgMTIyLjI5NCAyNy41NDgzIDEyMi4zNCAyNy41ODg1QzEyMi4zNTMgMjcuNjAwMiAxMjIuMzc0IDI3LjYxNDIgMTIyLjM3NSAyNy42Mjc3QzEyMi4zODIgMjcuNzU4MyAxMjIuNDcxIDI3Ljg1NSAxMjIuNTE4IDI3Ljk2OUMxMjIuNTQ2IDI4LjAzNjYgMTIyLjU1MiAyOC4xMTE1IDEyMi41MjYgMjguMTgwMkMxMjIuNDYyIDI4LjM1MSAxMjIuNDM1IDI4LjUyNzEgMTIyLjQ0MiAyOC43MDg0QzEyMi40NDYgMjguNzkxNCAxMjIuNDg3IDI4LjgzOTUgMTIyLjU3NSAyOC44NDE3QzEyMi42MTQgMjguODQyNyAxMjIuNjQxIDI4Ljg2MjMgMTIyLjY0MyAyOC45MDY3QzEyMi42NDYgMjkuMDEzOCAxMjIuNjQ4IDI5LjEyMTYgMTIyLjY0NSAyOS4yMjlDMTIyLjY0MyAyOS4zMDE3IDEyMi42MTkgMjkuMzY4OCAxMjIuNTYzIDI5LjQyMkMxMjIuNDU0IDI5LjUyNzQgMTIyLjQyMSAyOS42NzEzIDEyMi4zNzggMjkuODA2OUMxMjIuMzM1IDI5Ljk0MzYgMTIyLjMwNSAzMC4wODQ1IDEyMi4yNzggMzAuMjI1MUMxMjIuMjY4IDMwLjI3NTQgMTIyLjI3NiAzMC4zMzE5IDEyMi4yODggMzAuMzgyNEMxMjIuMzYzIDMwLjY4MzggMTIyLjM2MyAzMC45ODcxIDEyMi4zMDggMzEuMjg5NUMxMjIuMjg4IDMxLjM5NTUgMTIyLjI1MiAzMS40OTQxIDEyMi4yOCAzMS42MDU3QzEyMi4yOTEgMzEuNjUyOCAxMjIuMjY5IDMxLjcxMDQgMTIyLjI1NCAzMS43NjEyQzEyMi4yMjUgMzEuODY1MyAxMjIuMTkxIDMxLjk2NzYgMTIyLjE1OCAzMi4wNzA1QzEyMi4xMTkgMzIuMTkzNyAxMjEuOTkxIDMyLjM3OTggMTIyLjAyNCAzMi41MDExQzEyMi4wNjIgMzIuNjQzMSAxMjIuMDc0IDMyLjc3OTggMTIyLjA0NiAzMi45MjQ3QzEyMi4wMzEgMzMuMDAwNSAxMjIuMDg1IDMzLjA2MzcgMTIyLjE0OCAzMy4xMDE4QzEyMi4yMjYgMzMuMTQ4OSAxMjIuMTkzIDMzLjI0MyAxMjIuMjc3IDMzLjI3NkMxMjIuMzA3IDMzLjI4NzcgMTIyLjM1OCAzMy4yODk4IDEyMi4zOCAzMy4yNzIxQzEyMi40NzkgMzMuMTk1NyAxMjIuNjg3IDMzLjA1MDUgMTIyLjgwOSAzMy4wMDcyQzEyMi45OTMgMzIuNzI1OSAxMjMuMzMyIDMyLjYyNjUgMTIzLjU1NyAzMi4zOTI3QzEyMy41OCAzMi4zNjkyIDEyMy42MiAzMi4zNDk3IDEyMy42NTIgMzIuMzQ5NEMxMjMuNzc5IDMyLjM0ODMgMTIzLjg0OSAzMi4yNjUzIDEyMy45MTggMzIuMTgyQzEyMy45NjMgMzIuMTI2NSAxMjQuMTE0IDMyLjAwNDQgMTI0LjE1MSAzMS45NDI4QzEyNC4xOTEgMzEuODc2NyAxMjQuMjUyIDMxLjgzODEgMTI0LjMyNSAzMS44MjE3QzEyNC40NjQgMzEuNzkwOCAxMjQuNTQgMzEuNzA1MSAxMjQuNTg3IDMxLjU3NDhDMTI0LjYxMyAzMS41MDMxIDEyNC42OTMgMzEuNDgzMyAxMjQuNzY3IDMxLjQ3MDFDMTI0Ljc3IDMxLjUwNDcgMTI0Ljc2OSAzMS41NDA0IDEyNC43NzggMzEuNTczNEMxMjQuNzkyIDMxLjYyMzcgMTI0LjgyMSAzMS42MjkyIDEyNC44NDYgMzEuNTg4OEMxMjQuODUyIDMxLjU3NzIgMTI0Ljg1IDMxLjU0OTkgMTI0Ljg0IDMxLjUzOTlDMTI0LjgxNyAzMS41MTU2IDEyNC43ODYgMzEuNDk3NiAxMjQuNzU5IDMxLjQ3N0MxMjQuNzY2IDMxLjQ0MTggMTI0Ljc2NyAzMS40MDQyIDEyNC43ODEgMzEuMzcyM0MxMjQuODAzIDMxLjMyMDIgMTI0Ljg0NCAzMS4yODEzIDEyNC45MDUgMzEuMjkwM0MxMjQuOTc4IDMxLjMwMDkgMTI1LjA0NiAzMS4zMTc4IDEyNS4xMTkgMzEuMjkwM0MxMjUuMjY5IDMxLjIzMzcgMTI1LjMyNyAzMS4xMzU5IDEyNS4yMjIgMzEuMDA0QzEyNS4xNDUgMzAuOTA3MiAxMjUuMTQ3IDMwLjg0MzUgMTI1LjI4MyAzMC44MjQ3QzEyNS4zIDMwLjgyMjYgMTI1LjMxOSAzMC44MjMyIDEyNS4zMzcgMzAuODE5MkMxMjUuNDQ3IDMwLjc5MzMgMTI1LjQ1NSAzMC43OTMzIDEyNS40NTkgMzAuNjg0OUMxMjUuNDYyIDMwLjYwNjEgMTI1LjQ4IDMwLjU0NjEgMTI1LjU0OCAzMC41MDI3QzEyNS42MjUgMzAuNDUzOCAxMjUuNzEgMzAuNDA4OSAxMjUuNyAzMC4yOTg5QzEyNS42OTYgMzAuMjU3OSAxMjUuNzA0IDMwLjIyNDEgMTI1LjczOCAzMC4yMDUzQzEyNS44ODYgMzAuMTI0NyAxMjUuOTk4IDMwLjAxMzkgMTI2LjA3MiAyOS44NjA4QzEyNi4xNjggMjkuNjYyOCAxMjYuMzQ1IDI5LjUyNjcgMTI2LjQ5MSAyOS4zNjcyQzEyNi41MDggMjkuMzQ4MiAxMjYuNTYgMjkuMzU3NSAxMjYuNTk1IDI5LjM1NTZDMTI2LjYxMyAyOS4zNTQ2IDEyNi42MzUgMjkuMzY1NyAxMjYuNjQ5IDI5LjM1OTZDMTI2LjczNyAyOS4zMjAyIDEyNi45ODcgMjkuMTM5MSAxMjcuMDI2IDI5LjA2MjdDMTI3LjEzNCAyOC44NDc1IDEyNy4zMTIgMjguNjkxIDEyNy40NzkgMjguNTI2M0MxMjcuNTc5IDI4LjQyNzQgMTI3LjU2NSAyOC4zNDM2IDEyNy40ODggMjguMjQzOUMxMjcuNDM0IDI4LjE3NDEgMTI3LjQ4IDI4LjEwNTYgMTI3LjU0NyAyOC4wNjg5QzEyNy41NzggMjguMDUxNCAxMjcuNjE0IDI4LjA0MDMgMTI3LjY0OCAyOC4wMjk4QzEyNy42ODMgMjguMDE5MiAxMjcuNzIyIDI4LjAxODkgMTI3Ljc1NCAyOC4wMDI4QzEyNy43ODUgMjcuOTg3NSAxMjcuODIxIDI3Ljk2NDIgMTI3LjgzNSAyNy45MzQ5QzEyNy45MDYgMjcuNzg5MiAxMjcuOTg0IDI3LjY0NTQgMTI3LjkxNSAyNy40NzI1QzEyNy44ODkgMjcuNDA2OSAxMjcuOTE3IDI3LjM0NjkgMTI3Ljk2NCAyNy4zMzc0QzEyOC4wNzEgMjcuMzE1NyAxMjguMTY1IDI3LjI5MzUgMTI4LjIyNSAyNy4xODE5QzEyOC4yODcgMjcuMDY2NCAxMjguNDM2IDI3LjA0NDcgMTI4LjUzIDI2Ljk1OTZDMTI4LjU4NCAyNi45MTA5IDEyOC42MzkgMjYuODYzNiAxMjguNjk2IDI2LjgxODFDMTI4Ljc4MiAyNi43NDk0IDEyOC44MjMgMjYuNzUwNSAxMjguOTMxIDI2LjgzMjRDMTI4Ljk3NyAyNi44NjY1IDEyOS4wMTUgMjYuODkxNiAxMjkuMDcyIDI2Ljg1NzVDMTI5LjE2NSAyNi44MDA3IDEyOS4yNTcgMjYuNzQzNiAxMjkuMzU0IDI2LjY5MzNDMTI5LjQxOCAyNi42NTk4IDEyOS40ODkgMjYuNjM2NSAxMjkuNTY1IDI2LjY1MjZDMTI5LjY1MyAyNi42NzExIDEyOS42OTggMjYuNjI4MyAxMjkuNzI1IDI2LjU1MTRDMTI5Ljc1NyAyNi40NTc1IDEyOS44MjQgMjYuNDA4NCAxMjkuOTI3IDI2LjM5OTRDMTMwLjAxNyAyNi4zOTEyIDEzMC4xMTYgMjYuMzkzMyAxMzAuMTk1IDI2LjM1NzZDMTMwLjM4NCAyNi4yNzI3IDEzMC41NDkgMjYuMzE0IDEzMC43MTYgMjYuNDA3M0MxMzAuODEzIDI2LjQ2MTUgMTMwLjkxNyAyNi40OTM1IDEzMS4wMzIgMjYuNDYyQzEzMS4wODggMjYuNDQ2NyAxMzEuMTQgMjYuNDY3IDEzMS4xODQgMjYuNTAyMkMxMzEuMjc4IDI2LjU3ODEgMTMxLjM3OSAyNi41OTIxIDEzMS40OTIgMjYuNTQ5M0MxMzEuNTI1IDI2LjUzNjMgMTMxLjU2MyAyNi41MzIzIDEzMS41OTkgMjYuNTI4NkMxMzEuNzExIDI2LjUxNzggMTMxLjgyNCAyNi41MjMxIDEzMS45MTEgMjYuNTk3OUMxMzIuMDI0IDI2LjY5MzkgMTMyLjE1NiAyNi42NSAxMzIuMjc4IDI2LjY2MTlDMTMyLjM2NCAyNi42NzA2IDEzMi40OTEgMjYuNTQ3NyAxMzIuNSAyNi40NTdDMTMyLjUwNiAyNi40MTEzIDEzMi40MSAyNi4zNzUzIDEzMi40NSAyNi4zMzNDMTMyLjQ3OSAyNi4zMDIxIDEzMi41NTQgMjYuMzE1OCAxMzIuNjA3IDI2LjMwMjlDMTMyLjY2IDI2LjI4OTkgMTMyLjcxMiAyNi4yNzI3IDEzMi43NjEgMjYuMjUwNUMxMzIuODUgMjYuMjA5OCAxMzIuOTM2IDI2LjIwODIgMTMzLjAyNCAyNi4yNTA1QzEzMy4wOSAyNi4yODIgMTMzLjE1NCAyNi4zMTkzIDEzMy4yMjQgMjYuMzQwNEMxMzMuMjkyIDI2LjM2MSAxMzMuMzcyIDI2LjM4NjkgMTMzLjQzNiAyNi4zNzAzQzEzMy41NjYgMjYuMzM3IDEzMy42OTMgMjYuMzk4NiAxMzMuODEyIDI2LjM3MTNDMTMzLjkzNSAyNi4zNDM2IDEzNC4wMiAyNi4zNjQ3IDEzNC4xMTEgMjYuNDQxMUMxMzQuMjA2IDI2LjUyMTIgMTM0LjMxOCAyNi41MTc1IDEzNC40MTIgMjYuNDQzQzEzNC41MjIgMjYuMzU1NSAxMzQuNjMyIDI2LjMzMDEgMTM0Ljc2NyAyNi4zNzY5QzEzNC44NTIgMjYuNDA2NSAxMzQuOTQ3IDI2LjQxMjEgMTM1LjAzMiAyNi40NDIyQzEzNS4xNTUgMjYuNDg2NiAxMzUuMjc5IDI2LjQ5NjkgMTM1LjQwOSAyNi40OTlDMTM1LjUzNiAyNi41MDA5IDEzNS42NjYgMjYuNTA1NiAxMzUuNzkxIDI2LjUzMThDMTM2LjA2IDI2LjU4NzkgMTM2LjMzMiAyNi42MTIyIDEzNi42MDYgMjYuNjE4OEMxMzYuNzAxIDI2LjYyMTQgMTM2Ljc4MyAyNi42NTAzIDEzNi44NDcgMjYuNzI2N0MxMzYuODY3IDI2Ljc1MSAxMzYuOTA1IDI2Ljc3IDEzNi45MzggMjYuNzc1QzEzNy4xNzMgMjYuODExOCAxMzcuNDA3IDI2Ljg1MzYgMTM3LjY0NSAyNi44MzcyQzEzNy44OCAyNi44MjA1IDEzOC4xMiAyNi44NTU0IDEzOC4zNDkgMjYuNzYyNkMxMzguNDY5IDI2LjcxNDIgMTM4LjYwNyAyNi43MDk1IDEzOC43MjcgMjYuNzUzNEMxMzguOTE2IDI2LjgyMjEgMTM5LjEyMSAyNi44MzM3IDEzOS4zMDIgMjYuOTI2NUMxMzkuNDYgMjcuMDA3MiAxMzkuNjE3IDI3LjAwMTMgMTM5Ljc3MiAyNi45MTNDMTM5Ljg0NCAyNi44NzI2IDEzOS45MTEgMjYuODkwOCAxMzkuOTcyIDI2Ljk0MjFDMTQwIDI2Ljk2NTEgMTQwLjAzMiAyNi45ODM5IDE0MC4wNjMgMjcuMDAyNEMxNDAuMTY5IDI3LjA2MzIgMTQwLjI3MSAyNy4wNTY2IDE0MC4zNzEgMjYuOTg4NEMxNDAuNDE2IDI2Ljk1NzUgMTQwLjQ1OSAyNi45MjM5IDE0MC41MDUgMjYuODk1MUMxNDAuNTc4IDI2Ljg0OTMgMTQwLjYzNSAyNi44NzA1IDE0MC42NzkgMjYuOTU2N0MxNDAuNjg4IDI2Ljk3MjUgMTQwLjY5MSAyNi45OTA4IDE0MC42OTcgMjcuMDA3NEMxNDAuNzE1IDI3LjA1OTUgMTQwLjczNCAyNy4xMTU4IDE0MC44MDUgMjcuMTAxQzE0MC45MDggMjcuMDc5MyAxNDEuMDIgMjcuMTgyNCAxNDEuMTE0IDI3LjA3NzJDMTQxLjEzOCAyNy4wNTAzIDE0MS4xNTUgMjcuMDE2MiAxNDEuMTgzIDI2Ljk5NDVDMTQxLjIyNSAyNi45NjE0IDE0MS4yNzEgMjYuOTMwOCAxNDEuMzIgMjYuOTEwNEMxNDEuMzQ5IDI2Ljg5ODUgMTQxLjQwNSAyNi44OTM3IDE0MS40MTkgMjYuOTEwMUMxNDEuNTQxIDI3LjA1NjEgMTQxLjcxMiAyNy4xMTc3IDE0MS44ODMgMjcuMTgwOUMxNDEuOTM0IDI3LjE5OTQgMTQxLjk5NSAyNy4xNzE5IDE0Mi4wMSAyNy4xMTg3QzE0Mi4wMyAyNy4wNTA1IDE0Mi4wNDYgMjYuOTgwNyAxNDIuMDY3IDI2LjkxM0MxNDIuMDgyIDI2Ljg2NyAxNDIuMTQgMjYuODU4OCAxNDIuMjA2IDI2Ljg5NjlDMTQyLjIyIDI2LjkwNTQgMTQyLjIyOSAyNi45MjQ0IDE0Mi4yNCAyNi45Mzg0QzE0Mi4xOTEgMjYuOTU2NyAxNDIuMTggMjYuOTcyNSAxNDIuMjA5IDI2Ljk3MzFDMTQyLjIxNyAyNi45NzMxIDE0Mi4yMjUgMjYuOTQ1OCAxNDIuMjMzIDI2LjkzMTNDMTQyLjMwOSAyNi45ODAyIDE0Mi4zODQgMjcuMDI5MSAxNDIuNDYgMjcuMDc3N0MxNDIuNDk0IDI3LjEgMTQyLjUzMiAyNy4xMDI2IDE0Mi41NjQgMjcuMDc4M0MxNDIuNjIxIDI3LjAzNDkgMTQyLjY3NyAyNi45ODg5IDE0Mi43MyAyNi45NDA1QzE0Mi44MSAyNi44NjczIDE0Mi44OTEgMjYuODgwNSAxNDIuOTc3IDI2LjkyODRDMTQzLjAzNiAyNi45NjA5IDE0My4wNDMgMjYuOTg3MSAxNDIuOTk5IDI3LjA0NjhDMTQyLjkyNiAyNy4xNDg5IDE0Mi45MiAyNy4xOTI1IDE0Mi45NzYgMjcuMjI1QzE0My4wNDYgMjcuMjY2MiAxNDMuMTEyIDI3LjI2MDcgMTQzLjE3NCAyNy4yMDg5QzE0My4yMDEgMjcuMTg1MyAxNDMuMjI0IDI3LjE1NjMgMTQzLjI1MyAyNy4xMzY0QzE0My4yODQgMjcuMTE2MyAxNDMuMzExIDI3LjEzMyAxNDMuMzMxIDI3LjE3MjdDMTQzLjM3NCAyNy4yNTUxIDE0My4zODcgMjcuMzM3NiAxNDMuMzY1IDI3LjQzMDdDMTQzLjM0NyAyNy41MDQyIDE0My4zODQgMjcuNTY3OSAxNDMuNDQ1IDI3LjYxNTdDMTQzLjQ4NCAyNy42NDYyIDE0My41NzcgMjcuNjI4NCAxNDMuNTg4IDI3LjU4NEMxNDMuNjIzIDI3LjQ0NzYgMTQzLjY1OSAyNy4zMTQ2IDE0My41NTEgMjcuMTg1MUMxNDMuNDg2IDI3LjEwNjYgMTQzLjUwOSAyNy4wNjQzIDE0My42MjIgMjcuMDVDMTQzLjczNSAyNy4wMzU1IDE0My44MyAyNy4wMDI5IDE0My45MDkgMjYuOTE2NUMxNDMuOTQyIDI2Ljg4IDE0My45OTkgMjYuODUyOCAxNDQuMDQ5IDI2Ljg0NTlDMTQ0LjI1IDI2LjgxODcgMTQ0LjQ0OCAyNi44MjA1IDE0NC42MzIgMjYuOTI3MUMxNDQuNjk0IDI2Ljk2MyAxNDQuNzY1IDI2Ljk4NSAxNDQuODMzIDI3LjAwNzRDMTQ0Ljg3NCAyNy4wMjA5IDE0NC45MDUgMjcuMDAxMSAxNDQuOTEgMjYuOTYyNUMxNDQuOTEyIDI2Ljk0NzIgMTQ0LjkwMiAyNi45MjQ5IDE0NC44OSAyNi45MTQ2QzE0NC44NDggMjYuODggMTQ0LjgwNSAyNi44NDg1IDE0NC43NjEgMjYuODE3M0MxNDQuNzE4IDI2Ljc4NjcgMTQ0LjcxOCAyNi43NTgxIDE0NC43NjIgMjYuNzMyN0MxNDQuODI1IDI2LjY5NyAxNDQuODg5IDI2LjY2MjIgMTQ0Ljk1MyAyNi42Mjg2QzE0NS4xMTYgMjYuNTQ1MyAxNDUuMjg1IDI2LjQ4NTUgMTQ1LjQ3NCAyNi41MDA0QzE0NS42MTIgMjYuNTEwOSAxNDUuNzE5IDI2LjQ1ODMgMTQ1Ljc5MiAyNi4zMzY0QzE0NS44NjUgMjYuMjE2MiAxNDUuOTgzIDI2LjE3NjggMTQ2LjEyIDI2LjE4ODFDMTQ2LjE3NCAyNi4xOTI5IDE0Ni4yMjcgMjYuMjA0OCAxNDYuMjgxIDI2LjIxNDZDMTQ2LjI5OSAyNi4yMTc3IDE0Ni4zMTYgMjYuMjI2NyAxNDYuMzM0IDI2LjIyN0MxNDYuMzkxIDI2LjIyODYgMTQ2LjQ0IDI2LjIwNSAxNDYuNDc0IDI2LjE2MTJDMTQ2LjQ5NiAyNi4xMzMxIDE0Ni41MSAyNi4wOTk2IDE0Ni41MjcgMjYuMDY4MUwxNDYuNTE5IDI2LjA3NkMxNDYuNjQ5IDI2LjEzNDcgMTQ2Ljc3NyAyNi4yMjEyIDE0Ni45MjQgMjYuMTEwN0MxNDYuOTM2IDI2LjEwMTcgMTQ2Ljk1OSAyNi4xMDQzIDE0Ni45NzcgMjYuMTA0MUMxNDYuOTk1IDI2LjEwMzggMTQ3LjAxMyAyNi4xMDUxIDE0Ny4wMyAyNi4xMDkzQzE0Ny4xOTUgMjYuMTQ2NiAxNDcuMzMxIDI2LjA3NDcgMTQ3LjM5OCAyNS45NDU3QzE0Ny41MDggMjUuNzMgMTQ3LjY4NyAyNS41ODQzIDE0Ny44NjEgMjUuNDMwMkMxNDcuOTgyIDI1LjMyMiAxNDguMTIgMjUuMjM4OCAxNDguMjg3IDI1LjIwNjhDMTQ4LjQxMSAyNS4xODM1IDE0OC41MjkgMjUuMTMwOSAxNDguNjUzIDI1LjEwODJDMTQ4Ljc2MyAyNS4wODc4IDE0OC44NyAyNS4xMTI5IDE0OC45NDQgMjUuMjA5OUMxNDguODkzIDI1LjIyNzQgMTQ4Ljg4MyAyNS4yNDMgMTQ4LjkxMyAyNS4yNDU0QzE0OC45MTkgMjUuMjQ1NiAxNDguOTI5IDI1LjIxNzkgMTQ4LjkzNyAyNS4yMDMxQzE0OS4xNzcgMjUuMTg2NyAxNDkuMzc5IDI1LjEwODkgMTQ5LjQ5MiAyNC44ODA4TDE0OS40ODQgMjQuODg3MUMxNDkuNTc4IDI0Ljg4NzcgMTQ5LjY2NiAyNC44OTggMTQ5LjcxMyAyNC45OTM0QzE0OS42NjUgMjUuMDEyMiAxNDkuNjU1IDI1LjAyOCAxNDkuNjgyIDI1LjAyNjdDMTQ5LjY5IDI1LjAyNjUgMTQ5LjY5OCAyNS4wMDAzIDE0OS43MDUgMjQuOTg2M0MxNDkuNzIzIDI0Ljk4NDIgMTQ5Ljc0MSAyNC45ODQ3IDE0OS43NTggMjQuOTgwMkMxNDkuODU5IDI0Ljk1MDggMTQ5Ljg3NSAyNC45MjE4IDE0OS44NCAyNC44Mzk4QzE0OS43OTIgMjQuNzMxNCAxNDkuNzggMjQuNzI3MiAxNDkuNjQyIDI0Ljc1MzZDMTQ5LjU5IDI0Ljc2MjkgMTQ5LjUzOCAyNC43NjYxIDE0OS40ODYgMjQuNzcxOUwxNDkuNDkyIDI0Ljc3NjlDMTQ5LjU0MyAyNC42ODIyIDE0OS41OSAyNC41ODQ3IDE0OS42NDcgMjQuNDk0M0MxNDkuNjg3IDI0LjQzMDggMTQ5Ljc0OCAyNC4zOTEyIDE0OS44MzEgMjQuNDEwMkMxNDkuOTI2IDI0LjQzMTYgMTUwLjAxMiAyNC40MjI5IDE1MC4wODIgMjQuMzQ5OUMxNTAuMTk2IDI0LjIzMTIgMTUwLjM0MyAyNC4xNTU2IDE1MC40NzIgMjQuMDU2N0MxNTAuNzg0IDIzLjgxNjcgMTUwLjcxNCAyMy44MjM4IDE1MS4xNjIgMjMuNzk3OUMxNTEuMjU3IDIzLjc5MjYgMTUxLjMzNSAyMy43NTc1IDE1MS40MTEgMjMuNzAzQzE1MS42NDEgMjMuNTM4MyAxNTEuNjQgMjMuNTM4MyAxNTEuODUyIDIzLjIzOTZDMTUxLjk0NCAyMy4xMTAzIDE1MS45OTUgMjIuOTkyOSAxNTEuODU0IDIyLjg2NTJDMTUxLjgyNyAyMi44NDA5IDE1MS44NDIgMjIuNzk4OCAxNTEuODY5IDIyLjc3QzE1MS45NDYgMjIuNjg3MyAxNTIuMDQ4IDIyLjY0NzQgMTUyLjE1NCAyMi42MjE3QzE1Mi4zMTkgMjIuNTgxOCAxNTIuNDAxIDIyLjQ2NDcgMTUyLjQyNSAyMi4zMTg3QzE1Mi40NDEgMjIuMjE4MyAxNTIuMzkyIDIyLjEwNTQgMTUyLjUwNCAyMi4wMzE0QzE1Mi41MDIgMjEuOTIwNiAxNTIuNTQgMjEuODI1NyAxNTIuNjA4IDIxLjczNjhDMTUyLjY0IDIxLjY5NTkgMTUyLjY1OSAyMS42NDAzIDE1Mi42NjggMjEuNTg4NUMxNTIuNzIgMjEuMjcxNSAxNTIuODIyIDIwLjk2MTcgMTUyLjgxIDIwLjYzNTdDMTUyLjgwMyAyMC40NDY3IDE1Mi44NjUgMjAuMjgyIDE1Mi45OTQgMjAuMTQ1NkMxNTMuMDUyIDIwLjA4NSAxNTMuMDU5IDIwLjAyMjkgMTUzLjA0MiAxOS45NTAyQzE1My4xNzYgMTkuNTExMyAxNTMuMDkzIDE5LjA2MDMgMTUzLjExNSAxOC42MTUxQzE1My4xMTggMTguNTQ2NiAxNTMuMDg3IDE4LjQ3NTggMTUzLjA2OCAxOC40MDczQzE1My4wNDcgMTguMzM1OSAxNTMuMDUxIDE4LjI2NzcgMTUzLjA3MSAxOC4xOTY2QzE1My4wODYgMTguMTQ2MSAxNTMuMTA1IDE4LjA4NDUgMTUzLjA4OCAxOC4wNDAxQzE1My4wMDQgMTcuODE0OCAxNTMuMDI3IDE3LjU3OTUgMTUzLjAxMSAxNy4zNDg1QzE1My4wMDMgMTcuMjM4OCAxNTIuOTg0IDE3LjEzODMgMTUyLjkyMyAxNy4wNDM0QzE1Mi43ODkgMTYuODM0IDE1Mi43ODcgMTYuNjAwMyAxNTIuODE5IDE2LjM2NjNDMTUyLjgzMSAxNi4yNzk2IDE1Mi44NzMgMTYuMTk2NiAxNTIuOTA2IDE2LjExMzZDMTUyLjk1OSAxNS45ODA5IDE1My4wMiAxNS44NTExIDE1My4wNjkgMTUuNzE3M0MxNTMuMDc4IDE1LjY5MzUgMTUzLjA1NCAxNS42NDE5IDE1My4wMjkgMTUuNjI1NUMxNTIuOTcgMTUuNTg2MiAxNTIuOTAyIDE1LjUzNDEgMTUyLjgzOCAxNS41MzQzQzE1Mi43MTQgMTUuNTM0MyAxNTIuNjc3IDE1LjQ4MDkgMTUyLjY3OCAxNS4zNzQ3QzE1Mi42NzkgMTUuMzM4NyAxNTIuNjc4IDE1LjMwMjcgMTUyLjY3OCAxNS4yNjY4QzE1Mi43MzEgMTUuMjcxOCAxNTIuNzg1IDE1LjI3MTggMTUyLjgyIDE1LjIyNTNDMTUyLjg0MSAxNS4xOTcgMTUyLjgzIDE1LjE2NTUgMTUyLjgwMSAxNS4xMzdDMTUyLjc3MiAxNS4xMDc5IDE1Mi43NDEgMTUuMDk5MiAxNTIuNzEzIDE1LjEyMjdDMTUyLjY2OSAxNS4xNiAxNTIuNjcgMTUuMjEyMSAxNTIuNjc1IDE1LjI2NDFDMTUyLjY1NyAxNS4yNjEyIDE1Mi42MzkgMTUuMjU5MSAxNTIuNjIxIDE1LjI1NTRDMTUyLjU0MyAxNS4yMzkgMTUyLjQ4NiAxNS4xOTY1IDE1Mi40ODEgMTUuMTE1OEMxNTIuNDczIDE1LjAwODggMTUyLjQ4MSAxNC45MDA5IDE1Mi40NzMgMTQuNzkzOEMxNTIuNDYyIDE0LjY0OTcgMTUyLjQ2MiAxNC41MDc1IDE1Mi41IDE0LjM2NjZDMTUyLjUwNCAxNC4zNTM0IDE1Mi40OSAxNC4zMzEyIDE1Mi40NzggMTQuMzE5NUMxNTIuMzQzIDE0LjE4NjYgMTUyLjMyNCAxMy45OTgzIDE1Mi4yMzkgMTMuODQyMUMxNTIuMjEzIDEzLjc5NTMgMTUyLjE4MSAxMy43NTA5IDE1Mi4xNDcgMTMuNzA5NkMxNTIuMDkgMTMuNjQwNiAxNTIuMDA3IDEzLjU4MzIgMTUxLjk3NSAxMy41MDUzQzE1MS45NDIgMTMuNDI1NCAxNTEuOTM2IDEzLjM0MDggMTUxLjg1OSAxMy4yNzc0QzE1MS44MjQgMTMuMjQ3OCAxNTEuODA5IDEzLjE4MTQgMTUxLjgwNSAxMy4xMzAxQzE1MS43OTQgMTIuOTY4OCAxNTEuNzU5IDEyLjgxMzQgMTUxLjcyMyAxMi42NTU4QzE1MS42ODYgMTIuNTAwMSAxNTEuNjc0IDEyLjMzOTQgMTUxLjYyNiAxMi4xODMxQzE1MS41OTUgMTIuMDgyOSAxNTEuNiAxMS45NzE0IDE1MS41OTUgMTEuODY0M0MxNTEuNTkgMTEuNzcyNSAxNTEuNjU1IDExLjc0NzcgMTUxLjczMyAxMS43Mzc0QzE1MS43NDQgMTEuNzM2MSAxNTEuNzU2IDExLjcwODggMTUxLjc1NyAxMS42OTMyQzE1MS43NTggMTEuNjc3NiAxNTEuNzUgMTEuNjU2IDE1MS43MzkgMTEuNjQ1OUMxNTEuNjY0IDExLjU4MjcgMTUxLjU2NSAxMS42MDI2IDE1MS40NzkgMTEuNTcyN0MxNTEuNDA4IDExLjU0ODEgMTUxLjM0NyAxMS41MDUgMTUxLjMxNiAxMS40Mzg5QzE1MS4yMDkgMTEuMjExIDE1MS4wOTEgMTAuOTkwMyAxNTAuOTcgMTAuNzY5MkMxNTAuODc3IDEwLjU5OTUgMTUwLjczNSAxMC41OTE4IDE1MC43MTkgMTAuMzkxMkMxNTAuNzEzIDEwLjMxNzIgMTUwLjY2NCAxMC4zMDg0IDE1MC42MDggMTAuMjU5NUMxNTAuNTEyIDEwLjE3NjUgMTUwLjQxOSAxMC4wOTA2IDE1MC4zMjEgMTAuMDExM0MxNTAuMjQ4IDkuOTUxNzkgMTUwLjIwMiA5Ljg3ODAzIDE1MC4xNjcgOS43OTM2OUMxNTAuMTM4IDkuNzIyMDUgMTUwLjA4IDkuNjY5NyAxNTAuMDA4IDkuNjYwMThDMTQ5Ljg3IDkuNjQxNjggMTQ5Ljc3NiA5LjU3Nzk3IDE0OS43MDUgOS40NjA1OEMxNDkuNTg0IDkuMjU5NjYgMTQ5LjQ1MyA5LjA2NDI4IDE0OS4yNTYgOC45MjQ5NkMxNDkuMTk3IDguODgzNDUgMTQ5LjEzNCA4Ljg0NjQ0IDE0OS4wNyA4LjgxNDcxQzE0OC45OTEgOC43NzU4NSAxNDguODc0IDguODEzNjUgMTQ4LjgyNiA4LjcyOTA1QzE0OC43OTMgOC42NzIyMSAxNDguODA2IDguNTkxODUgMTQ4Ljc1IDguNTM1MjdDMTQ4LjY2MSA4LjQ0NjE4IDE0OC41NzggOC4zNDkxNSAxNDguNDg4IDguMjU5NzlDMTQ4LjQzNSA4LjIwNjY1IDE0OC4zNjUgOC4xOTM5NiAxNDguMjg4IDguMTk4OThDMTQ4LjE3OSA4LjIwNTg2IDE0OC4xMzMgOC4xMjU0OSAxNDguMDk0IDguMDQxNDFMMTQ4LjA4NyA4LjA0ODU1QzE0OC4xNSA3Ljk4OTg2IDE0OC4xNSA3Ljk4OTg2IDE0OC4wODggNy45MzAxMUwxNDguMDkzIDcuOTM2MTlDMTQ4LjA2NCA3Ljc3OTY4IDE0OC4wNjQgNy43NzUxOSAxNDcuOTQ3IDcuNzgwNzRDMTQ3Ljg4OCA3Ljc4MzM5IDE0Ny44NjEgNy42MzI0MyAxNDcuODI1IDcuNTgzMjVDMTQ3Ljc2IDcuNDk1NzQgMTQ3LjcwMSA3LjQwMDgzIDE0Ny42ODkgNy4yOTM3NkMxNDcuNjcyIDcuMTMyMjMgMTQ3LjU5OSA3LjAyODMzIDE0Ny40MzggNi45ODI4NkMxNDcuNDA0IDYuOTczMzQgMTQ3LjQwOSA2LjkzNDc0IDE0Ny40MTIgNi44OTMyM0MxNDcuNDIzIDYuNzY3MTMgMTQ3LjQxOCA2Ljc1NjAyIDE0Ny4zMTggNi43Njg3MUMxNDcuMTk1IDYuNzg0MzEgMTQ3LjEwMiA2LjczOTM3IDE0Ny4wMjggNi42NTYwOUMxNDYuOTY5IDYuNTg5NDcgMTQ2LjkyOSA2LjUwNjcyIDE0Ni44NzQgNi40MzUzNEMxNDYuNzc1IDYuMzA0NzMgMTQ2LjY2NCA2LjE5MDc5IDE0Ni40OTEgNi4xNTExM0MxNDYuMzggNi4xMjYwMiAxNDYuMjg5IDYuMDYxNTEgMTQ2LjI1OCA1Ljk0NjUxQzE0Ni4yMjMgNS44MTQzMiAxNDYuMjU0IDUuNjk5MzEgMTQ2LjM3MyA1LjYxNTc3QzE0Ni4zODcgNS42MDU5OSAxNDYuMzkzIDUuNTg2NDMgMTQ2LjQwMyA1LjU3MTM2QzE0Ni4zNzQgNS41NTY4MiAxNDYuMzQ1IDUuNTMwOTEgMTQ2LjMxNSA1LjUzMDY0QzE0Ni4yNjIgNS41MzAzOCAxNDYuMjA4IDUuNTQzMzMgMTQ2LjE1NCA1LjU1NDQ0QzE0Ni4xMTMgNS41NjI5IDE0Ni4wOCA1LjU1NTQ5IDE0Ni4wNTggNS41MjI0NUMxNDYuMDA4IDUuNDUxMzMgMTQ1Ljk5OCA1LjM0NjkgMTQ1Ljg5NSA1LjMyMTc5QzE0NS44MjUgNS4zMDQ2IDE0NS43NTIgNS4zMDExNyAxNDUuNjggNS4yOTE2NUMxNDUuNTY1IDUuMjc2NTggMTQ1LjU1MSA1LjI2NTIxIDE0NS41NDMgNS4xNzA4M0MxNDUuNTM3IDUuMDgyNTMgMTQ1LjUzNCA0Ljk5Mzk2IDE0NS41MjcgNC45MDU5MkMxNDUuNTIyIDQuODUxOTkgMTQ1LjQyNyA0Ljc4NDMxIDE0NS4zNjEgNC43ODY5NkMxNDUuMzI1IDQuNzg4ODEgMTQ1LjI4OCA0Ljc5NDYyIDE0NS4yNTUgNC44MDU3M0MxNDUuMTgxIDQuODMwMDUgMTQ1LjEwOCA0LjgzNTA3IDE0NS4wNiA0Ljc2Njg2QzE0NC45ODggNC42NjE5MSAxNDQuOTA4IDQuNTczNiAxNDQuNzkxIDQuNTA4ODNDMTQ0LjU4MyA0LjM5MzA0IDE0NC40MjMgNC4yMTY3IDE0NC4yNjUgNC4wNDQ1OUMxNDQuMjA3IDMuOTgxNjcgMTQ0LjI0NCAzLjgwMzIyIDE0NC4yMDUgMy43MjI4NUMxNDQuMTQ1IDMuNTk3OCAxNDMuOTQ0IDMuNDg1NDQgMTQzLjgwMSAzLjQ5OTE4QzE0My43NjUgMy41MDI2MiAxNDMuNzMgMy41MTYxMSAxNDMuNjk2IDMuNTI4QzE0My42MDMgMy41NTk5OSAxNDMuNTIxIDMuNTU5NzMgMTQzLjQ1MSAzLjQ3NjQ1QzE0My4zODcgMy40MDAzMSAxNDMuMjc3IDMuNDUyMzkgMTQzLjIgMy4zOTc2NkMxNDMuMTI3IDMuMzQ1NTggMTQzLjA1MSAzLjI5Njk0IDE0Mi45NzEgMy4yNTU5NkMxNDIuODczIDMuMjA1OTkgMTQyLjc2OSAzLjE3NTMzIDE0Mi42NTYgMy4yMTkyMUMxNDIuNjI0IDMuMjMxNjQgMTQyLjU4IDMuMjM3NDUgMTQyLjU0OSAzLjIyNTgyQzE0Mi4zNiAzLjE1NDk3IDE0Mi4xNiAzLjE0MjU0IDE0MS45NjMgMy4xMTEzNUMxNDEuODU3IDMuMDk0NDMgMTQxLjc1NCAzLjA1MjM5IDE0MS42NTIgMy4wMTQ1OUMxNDEuNjIxIDMuMDAyOTUgMTQxLjYgMi45NjcyNiAxNDEuNTc0IDIuOTQyNjhDMTQxLjYwNyAyLjkzODk3IDE0MS42NDEgMi45Mzc2NSAxNDEuNjczIDIuOTMwNTFDMTQxLjcyMiAyLjkxOTY3IDE0MS43MzEgMi44OTU2MiAxNDEuNjk1IDIuODcyMzVDMTQxLjY4NSAyLjg2NTc0IDE0MS42NTkgMi44NzA3NyAxNDEuNjQ4IDIuODc5NDlDMTQxLjYyMiAyLjg5OTU4IDE0MS42MDIgMi45MjU0OSAxNDEuNTggMi45NDkwMkMxNDEuNDk0IDIuOTIxIDE0MS40MDggMi44OTE5MiAxNDEuMzIyIDIuODY0NjlDMTQxLjIxNyAyLjgzMTY0IDE0MS4xMSAyLjgxNjMgMTQxLjAwMSAyLjgzMTExQzE0MC45MjMgMi44NDE2OSAxNDAuODY2IDIuODc0NDcgMTQwLjg1OCAyLjk2MDkyQzE0MC44NTcgMi45NzQ2NyAxNDAuODQzIDIuOTkyNjQgMTQwLjgzIDIuOTk4OTlDMTQwLjc5NCAzLjAxNjcgMTQwLjc1OCAzLjAwNjY1IDE0MC43NDMgMi45NjkzOEMxNDAuNjkgMi44MzcxOSAxNDAuNjQxIDIuNzAzNDEgMTQwLjU4OSAyLjU3MDQzQzE0MC41NzYgMi41Mzc2NSAxNDAuNTY1IDIuNTAxNyAxNDAuNTQzIDIuNDc2MDVDMTQwLjUyMSAyLjQ1MDQxIDE0MC40ODggMi40MjUwMyAxNDAuNDU2IDIuNDE4OTVDMTQwLjMxNCAyLjM5MTQ1IDE0MC4xNjYgMi40MTEyOCAxNDAuMDI3IDIuMzYwNTJDMTQwLjAwNSAyLjM1MjU5IDEzOS45NTggMi4zNzkwMyAxMzkuOTQyIDIuNDAyMjlDMTM5LjkyMyAyLjQyODczIDEzOS45MjUgMi40Njk3MSAxMzkuOTE4IDIuNTA0MDhDMTM5LjkwNCAyLjUxMjggMTM5Ljg4NyAyLjUxODg4IDEzOS44NzcgMi41MzEwNEMxMzkuODcgMi41Mzk3NyAxMzkuODY5IDIuNTY2NDcgMTM5Ljg3MyAyLjU2ODA1QzEzOS45MDMgMi41ODEyNyAxMzkuOTI2IDIuNTY0NjIgMTM5LjkzOSAyLjUyMzkxQzEzOS45OTIgMi41MzQ0OCAxNDAuMDQ3IDIuNTM4OTggMTQwLjA5OCAyLjU1Nzc1QzE0MC4xMjggMi41NjkxMiAxNDAuMTU3IDIuNTk3OTMgMTQwLjE3NCAyLjYyNjIyQzE0MC4xOTYgMi42NjE2NCAxNDAuMTc1IDIuNjkwOTkgMTQwLjEzIDIuNzA0NDdDMTQwLjA0MSAyLjczMTQ0IDEzOS45NzEgMi43ODMyNiAxMzkuOTA3IDIuODUwNDFDMTM5Ljg0NCAyLjkxNjc3IDEzOS43NjkgMi44OTY0MSAxMzkuNzQ0IDIuODE1MjVDMTM5LjcwNyAyLjY5NjU0IDEzOS42OTEgMi41NzAxNyAxMzkuNTc3IDIuNDg3NjlDMTM5LjUwOSAyLjQzODUxIDEzOS41MjQgMi4zNjM5NiAxMzkuNTI3IDIuMjkyMDVDMTM5LjUzMSAyLjIyNzAxIDEzOS40ODEgMi4xODYwMyAxMzkuNDI5IDIuMTk2MzRDMTM5LjM3MSAyLjIwNzE4IDEzOS4zMTMgMi4yNTIzOSAxMzkuMzEzIDIuMjkyMDVDMTM5LjMxMiAyLjMyNjk1IDEzOS4zMTkgMi4zNjE4NCAxMzkuMzIzIDIuMzk2NDhDMTM5LjMyOCAyLjQzMTM4IDEzOS4zNDQgMi40NjgxMiAxMzkuMzM2IDIuNDk5ODVDMTM5LjMyOSAyLjUyOTk5IDEzOS4zMDMgMi41NjkzOCAxMzkuMjc2IDIuNTc5NDNDMTM5LjEzNiAyLjYzMTc3IDEzOC45OSAyLjYwNTA3IDEzOC44NDYgMi41OTQ3NkMxMzguODE0IDIuNTkyMzggMTM4Ljc3NyAyLjU2NjQ3IDEzOC43NTUgMi41NDA4MkMxMzguNzA0IDIuNDgwMDIgMTM4LjY0NiAyLjQ1NzAyIDEzOC41NjYgMi40NzEyOUMxMzguNDk1IDIuNDgzOTggMTM4LjQyMiAyLjQ4ODIxIDEzOC4zNSAyLjQ5MDA2QzEzOC4yNDIgMi40OTI3MSAxMzguMjA3IDIuNDE2MzEgMTM4LjI2NSAyLjMxNjExQzEzOC4yODEgMi4yODkxNCAxMzguMjkyIDIuMjU5NzkgMTM4LjMwNSAyLjIzMTUxQzEzOC4yNzEgMi4yMjIyNSAxMzguMjM3IDIuMjA0MDEgMTM4LjIwMyAyLjIwNTMzQzEzOC4xMDYgMi4yMDg3NyAxMzguMDI2IDIuMjUyMTMgMTM3Ljk5NCAyLjM0NTcyQzEzNy45NzggMi4zOTMzMSAxMzguMDIxIDIuNDUwMTQgMTM3Ljk4OCAyLjUwMDlDMTM3Ljk3OSAyLjUxNTQ0IDEzNy45NjUgMi41MjkxOSAxMzcuOTUgMi41Mzc2NUMxMzcuOTA5IDIuNTYwMzkgMTM3Ljg3OCAyLjU0ODQ5IDEzNy44NjYgMi41MDQ4N0MxMzcuODU2IDIuNDcxMDMgMTM3Ljg1IDIuNDM1NjEgMTM3Ljg0NiAyLjQwMDQ0QzEzNy44NDEgMi4zNDczIDEzNy44NCAyLjI5MzM3IDEzNy44MzQgMi4yMzk5N0MxMzcuODI5IDIuMTk3OTMgMTM3LjgwOSAyLjE3MDk2IDEzNy43NzkgMi4xNzM4N0MxMzcuNzY2IDIuMTc1MTkgMTM3Ljc0OSAyLjE5NjYxIDEzNy43NDQgMi4yMTE5NEMxMzcuNzMxIDIuMjYzNzYgMTM3LjcyNSAyLjMxNzY5IDEzNy43MSAyLjM2OTI0QzEzNy42ODUgMi40NTg4NyAxMzcuNTk2IDIuNTExNzQgMTM3LjUwNCAyLjUwNjcyQzEzNy4zNSAyLjQ5ODI2IDEzNy4yMjggMi40MjI5MiAxMzcuMTEyIDIuMzM0ODhDMTM3LjA1NSAyLjI5MTc4IDEzNy4wMTEgMi4yMzEyNCAxMzYuOTUzIDIuMTkxMzJDMTM2LjkxIDIuMTYxOTggMTM2Ljg0OSAyLjEzMjYzIDEzNi44MDIgMi4xMzkyNEMxMzYuNjkzIDIuMTU0ODQgMTM2LjU4NCAyLjE0NCAxMzYuNDc4IDIuMTUzNzhDMTM2LjQxNiAyLjE1OTMzIDEzNi4zNjQgMi4yMzQ2OCAxMzYuMzAzIDIuMjcxOTZDMTM2LjI0NSAyLjMwNjMyIDEzNi4xNzYgMi4yNjcyIDEzNi4xNDIgMi4xODcwOUMxMzYuMTM1IDIuMTcwNyAxMzYuMTM2IDIuMTUwMDggMTM2LjEyNiAyLjEzNThDMTM2LjExNyAyLjEyMjA1IDEzNi4xIDIuMTA4ODQgMTM2LjA4NCAyLjEwNDA4QzEzNS45NTUgMi4wNjU3NCAxMzUuODMyIDIuMDU4ODcgMTM1Ljc0OSAyLjE5MTU4TDEzNS43NTcgMi4xODQ3MUMxMzUuNzI2IDIuMTkwMjYgMTM1LjY5NCAyLjE5MzcgMTM1LjY2MyAyLjIwMjE2QzEzNS42MjUgMi4yMTMgMTM1LjYxIDIuMjM2NTMgMTM1LjYyNiAyLjI2MjQ0QzEzNS42MzMgMi4yNzQwNyAxMzUuNjQ5IDIuMjgzODUgMTM1LjY2MyAyLjI4NzI5QzEzNS42OTQgMi4yOTQ2OSAxMzUuNzI2IDIuMjk3MzMgMTM1Ljc1NyAyLjMwMjA5TDEzNS43NDkgMi4yOTU0OUMxMzUuNzYyIDIuMzY1MjggMTM1Ljc3NyAyLjQzNDU1IDEzNS43ODcgMi41MDQ2MUMxMzUuNzkyIDIuNTM4NDUgMTM1Ljc5IDIuNTczNjEgMTM1Ljc4NyAyLjYwNzk3QzEzNS43ODQgMi42NDY1NyAxMzUuNzA3IDIuNjkxNzkgMTM1LjY1OSAyLjY4NjVDMTM1LjYxNSAyLjY4MTc0IDEzNS41OTkgMi42NTg0NyAxMzUuNTk5IDIuNjE3NUMxMzUuNTk4IDIuNTgzMzkgMTM1LjU5NyAyLjU0MDU2IDEzNS41NzcgMi41MTY1QzEzNS41MjEgMi40NDgwMyAxMzUuNDU3IDIuMzg0MzIgMTM1LjM5MiAyLjMyMjk4QzEzNS4yNjUgMi4yMDM0OCAxMzUuMTA2IDIuMTc3MDUgMTM0LjkzOSAyLjE5MDc5QzEzNC44ODcgMi4xOTUyOSAxMzQuODMzIDIuMjE1OTEgMTM0Ljc4NiAyLjI0MDc2QzEzNC43MzkgMi4yNjYxNCAxMzQuNzAzIDIuMzA5MjMgMTM0LjY1OCAyLjMzODMyQzEzNC41OTMgMi4zNzk1NiAxMzQuNTE4IDIuMzk1NDIgMTM0LjQ1NyAyLjM0MzM0QzEzNC4yOTIgMi4yMDIxNiAxMzQuMDg3IDIuMjM0OTQgMTMzLjg5NiAyLjIxMzc5QzEzMy44NTggMi4yMDk1NiAxMzMuODEyIDIuMjcwMTEgMTMzLjc2OSAyLjMwMDc3TDEzMy43NzcgMi4yOTI4NEMxMzMuNTc2IDIuMjg0MzggMTMzLjM3NiAyLjI5NTIyIDEzMy4xOCAyLjM0NjI1QzEzMi45ODQgMi4yODQ5MSAxMzIuNzgyIDIuMzEwODIgMTMyLjU4MyAyLjMwMDUxQzEzMi40OSAyLjI5NTc1IDEzMi40MDIgMi4zMTE2MSAxMzIuMzE2IDIuMzQ3MDRDMTMyLjA2MSAyLjQ1MjI2IDEzMS43OTkgMi41MTU3MSAxMzEuNTE4IDIuNTEwMTZDMTMxLjQzMSAyLjUwODU3IDEzMS4zMzMgMi41MzM5NSAxMzEuMjU4IDIuNTc3ODRDMTMxLjE0MSAyLjY0NjMxIDEzMS4wMjUgMi42NjQ1NSAxMzAuODk2IDIuNjQ3MzdDMTMwLjc1NiAyLjcxODc1IDEzMC42MTEgMi42MjAxNCAxMzAuNDY3IDIuNjY0MjlDMTMwLjM0NiAyLjcwMTU3IDEzMC4yMTcgMi43MTYxIDEzMC4wOTEgMi43MzMyOUMxMjkuOTQ3IDIuNzUyODUgMTI5LjgwMSAyLjc1NzM1IDEyOS42NTggMi43ODE0MUMxMjkuNTUxIDIuNzk5MzggMTI5LjQzMiAyLjgxNTUxIDEyOS4zNDYgMi44NzIzNUMxMjkuMDc5IDMuMDQ3MzcgMTI4Ljc2OCAzLjA3NDg2IDEyOC40NzQgMy4xNTg5M0MxMjguNDAyIDMuMTc5NTUgMTI4LjMzNiAzLjIwMzg4IDEyOC4yODcgMy4yNjA3MkMxMjguMjAxIDMuMzYwMTIgMTI4LjA4OSAzLjQxNzUgMTI3Ljk2IDMuNDM4NjVDMTI3LjkxNCAzLjQ0NjMxIDEyNy45MDcgMy40MTMgMTI3LjkwNSAzLjM3MDE3QzEyNy45MDEgMy4yOTggMTI3Ljg2OSAzLjI3Njg0IDEyNy44MDQgMy4yNzg3QzEyNy43MzIgMy4yODA4MSAxMjcuNjg0IDMuMzEwMTYgMTI3LjY4NSAzLjM1NTYzQzEyNy42ODYgMy4zOTA3OSAxMjcuNzAxIDMuNDI1OTUgMTI3LjcwMiAzLjQ2MTM4QzEyNy43MDQgMy41Mjk4NSAxMjcuNjQxIDMuNjI1MDMgMTI3LjU4NSAzLjYyNjg4QzEyNy4zOTQgMy42MzI0MyAxMjcuMjMzIDMuNzAyNzYgMTI3LjA5MiAzLjgyNDlDMTI3LjA0OCAzLjg2MjcgMTI2Ljk5MiAzLjg1NjM2IDEyNi45MzggMy44NTcxNUMxMjYuOTA1IDMuODU3NjggMTI2Ljg2MyAzLjg3MDEgMTI2Ljg0MSAzLjg5MjMxQzEyNi43MzcgMy45OTgwNiAxMjYuNjY4IDQuMTIzMTEgMTI2LjY1NyA0LjI3MjQ4QzEyNi42NTQgNC4zMDYzMiAxMjYuNjc3IDQuMzQxMjIgMTI2LjY4MyA0LjM3NjY1QzEyNi42OSA0LjQzMzIyIDEyNi42NjUgNC40Nzk3NSAxMjYuNjI0IDQuNTE3NTZDMTI2LjU1NyA0LjU3OTQyIDEyNi40ODEgNC42MjY3NSAxMjYuMzkxIDQuNjUyMTNDMTI2LjIzNyA0LjY5NTQ4IDEyNi4xNjIgNC42NTE2IDEyNi4xMDUgNC41NjU5NEMxMjYuMDQ1IDQuNDc2ODQgMTI1Ljk4NyA0LjM4NjQzIDEyNS45MiA0LjMwMjYyQzEyNS45MDUgNC4yODM1OSAxMjUuODM5IDQuMjc0MDcgMTI1LjgyNiA0LjI4NzgyQzEyNS42ODUgNC40MzYzOSAxMjUuNTEzIDQuNTIyMzIgMTI1LjMxNCA0LjU3NjI1QzEyNS4yMDQgNC42MDU4NiAxMjUuMTA5IDQuNjEyNzMgMTI0Ljk5NyA0LjU5NzY2QzEyNC43NzggNC41NjgwNSAxMjQuNjA5IDQuNjUzNDUgMTI0LjUxNyA0Ljg2NzU5QzEyNC40NzcgNC45NjAxMiAxMjQuNDU1IDQuOTU4OCAxMjQuMzQyIDQuOTM1NTNDMTI0LjMwNyA0LjkyODQgMTI0LjI3MiA0LjkxNDY1IDEyNC4yMzcgNC45MTMzM0MxMjQuMTk3IDQuOTEyIDEyNC4xNzQgNC45MzgxOCAxMjQuMTY0IDQuOTc0OTNDMTI0LjE1NSA1LjAwNjY1IDEyNC4yOTMgNS4xMzMwMyAxMjQuMjcxIDUuMTQ3M0MxMjQuMjQ2IDUuMTYyOSAxMjQuMjAzIDUuMTUyODUgMTI0LjE2OSA1LjE1MDQ3QzEyNC4wMjcgNS4xNDAxNiAxMjMuOTk3IDUuMTQ5NjggMTIzLjk3NSA1LjI2ODEyQzEyMy45NiA1LjM0ODc2IDEyMy45MjcgNS4zOTg3MiAxMjMuODU4IDUuNDMwMThDMTIzLjc1OSA1LjQ3NTY1IDEyMy42NTggNS41MTc0MyAxMjMuNTU3IDUuNTU5NzNDMTIzLjQ2OSA1LjU5Njc0IDEyMy40MjYgNS41NjMxNiAxMjMuNDE3IDUuNDcyNzVDMTIzLjQxNiA1LjQ2MDU5IDEyMy4zOTIgNS40NDEyOCAxMjMuMzc5IDUuNDQxMDJDMTIzLjI2MiA1LjQzODM4IDEyMy4xNjcgNS40ODUxNyAxMjMuMDk4IDUuNTc2MzhDMTIzLjA3OSA1LjYwMTc2IDEyMy4wNjcgNS42NDY5NyAxMjMuMDc2IDUuNjc1MjZDMTIzLjEwOCA1Ljc3NTcyIDEyMy4wNzkgNS44NTUzIDEyMi45OTYgNS45MDg0NEMxMjIuODQzIDYuMDA2NTIgMTIyLjY4NiA2LjA5NjE0IDEyMi41MjkgNi4xODgxNUMxMjIuNDYxIDYuMjI4MDcgMTIyLjM5MSA2LjIxNTY0IDEyMi4zMTkgNi4xOTUyOEMxMjIuMjA1IDYuMTYzNTYgMTIyLjEwMSA2LjE5MzcgMTIyLjAwNyA2LjI1NDI0QzEyMS44MjMgNi4zNzEzNiAxMjEuNjM4IDYuNDg2MzYgMTIxLjQ2MSA2LjYxMTY4QzEyMS4zMjggNi43MDU1MyAxMjEuMjA1IDYuODExNTQgMTIxLjE1NyA2Ljk3OTQyQzEyMS4xNDMgNy4wMjc1NCAxMjEuMTA2IDcuMDc3MjQgMTIxLjA2NiA3LjEwOTIzQzEyMC44ODMgNy4yNTU5NiAxMjAuNjk3IDcuMzk3NjYgMTIwLjUwOCA3LjUzNzUyQzEyMC40ODEgNy41NTczNSAxMjAuNDM5IDcuNTU3MDggMTIwLjQwNCA3LjU2NThDMTIwLjM5NyA3LjU1MDQ3IDEyMC4zOTMgNy41MzIyMyAxMjAuMzgzIDcuNTIwNTlDMTIwLjM3NSA3LjUxMzE5IDEyMC4zNDYgNy41MTI0IDEyMC4zNDUgNy41MTQyNUMxMjAuMzM2IDcuNTQ1NDUgMTIwLjM1NSA3LjU2NDIyIDEyMC40MDEgNy41Njg5N0MxMjAuMzQ4IDcuNjY5NDQgMTIwLjI4OSA3Ljc1Mjk4IDEyMC4xNSA3LjcwNDA3QzEyMC4xMTkgNy42OTI5NyAxMjAuMDc2IDcuNjkxMzggMTIwLjA0NCA3LjcwMTdDMTE5LjgzIDcuNzcyMDIgMTE5LjY4MSA3LjkyODI2IDExOS41MzcgOC4wODlDMTE5LjUyNiA4LjEwMTQzIDExOS41MTkgOC4xMjA5OSAxMTkuNTE2IDguMTM4MTdDMTE5LjQ4NiA4LjMzNTY2IDExOS4zNDMgOC40NDI0NyAxMTkuMTg0IDguNTM1OEMxMTkuMDcxIDguNjAyMTYgMTE4Ljk4NCA4LjY4NzU1IDExOC45NTkgOC44MjEzMkMxMTguOTMxIDguOTYxOTcgMTE4Ljg1OSA5LjAzNzg1IDExOC42OTYgOS4wMjg1OUMxMTguNjM0IDkuMDI0ODkgMTE4LjU2OCA5LjA4NDkgMTE4LjUwMyA5LjExNDI1QzExOC40NzEgOS4xMjg3OSAxMTguNDMgOS4xNTg0IDExOC40MDUgOS4xNDk2OEMxMTguMjU1IDkuMDk2OCAxMTguMTIyIDkuMTc0NzkgMTE3Ljk4MyA5LjE5MDkyQzExNy45NjQgOS4xNDEyMiAxMTcuOTQ4IDkuMTMxNyAxMTcuOTQ0IDkuMTYzMTZDMTE3Ljk0MyA5LjE2OTI0IDExNy45NzIgOS4xNzg3NiAxMTcuOTg3IDkuMTg2NjlDMTE3Ljk2MyA5LjIzMzQ4IDExNy45MzcgOS4yNzk0OCAxMTcuOTE1IDkuMzI3MDdDMTE3Ljg3OSA5LjQwMTg5IDExNy45MDkgOS40NTUwMyAxMTcuOTY2IDkuNTA5NzVDMTE4LjAzNiA5LjU3NjkxIDExOC4wMyA5LjYwODEgMTE3Ljk1OSA5LjY3NTc4QzExNy45MzQgOS42OTkzMSAxMTcuOTAxIDkuNzE0NjQgMTE3Ljg3MiA5LjczMzY4QzExNy44NTIgOS42ODc0MSAxMTcuODM3IDkuNjc3MzcgMTE3LjgzOSA5LjcwMjIyQzExNy44NCA5LjcxMTIxIDExNy44NjUgOS43MTgwOCAxMTcuODc5IDkuNzI1NzVDMTE3LjgzNiA5LjgwNDI3IDExNy44MDYgOS44OTQ5NSAxMTcuNzQ2IDkuOTU4OTNDMTE3LjQ5NyAxMC4yMjYyIDExNy4zNTUgMTAuNTYxNCAxMTcuMTQ3IDEwLjg1NDRDMTE3LjA4NiAxMC45NDAzIDExNy4wMzQgMTEuMDQ1MiAxMTcuMDE4IDExLjE0NzNDMTE2Ljk3MSAxMS40MzcgMTE2Ljg1MiAxMS42OTMgMTE2LjcgMTEuOTQwMkMxMTYuNjM0IDEyLjA0NzggMTE2LjU4MyAxMi4xNjI4IDExNi42MzYgMTIuMjk2M0MxMTYuNjQ3IDEyLjMyNDYgMTE2LjYzNiAxMi4zNyAxMTYuNjE5IDEyLjM5ODZDMTE2LjU1MSAxMi41MTI4IDExNi40OTkgMTIuNTg5MiAxMTYuNDk4IDEyLjcxNUMxMTYuNDk3IDEyLjkxMTcgMTE2LjQ5IDEzLjEwNzYgMTE2LjU3MiAxMy4yOTYxQzExNi41ODkgMTMuMzM2MyAxMTYuNTcxIDEzLjQwNDMgMTE2LjU0NiAxMy40NDYzQzExNi41MSAxMy41MDcxIDExNi40NTQgMTMuNTU2IDExNi40MDUgMTMuNjA5NEMxMTYuMzM2IDEzLjY4NjkgMTE2LjMzMiAxMy43NjU3IDExNi4zOTQgMTMuODUwM0MxMTYuNDE1IDEzLjg3ODYgMTE2LjQ0MiAxMy45MTYxIDExNi40MzggMTMuOTQ1N0MxMTYuNDE1IDE0LjEyMiAxMTYuNDEyIDE0LjIzMzEgMTE2LjM3NiAxNC40MDczQzExNi4zNjYgMTQuNDU2NSAxMTYuMzE5IDE0LjQ5NzcgMTE2LjI5MyAxNC41NDQ4QzExNi4yNzYgMTQuNTc1NyAxMTYuMjUgMTQuNjEyNyAxMTYuMjU1IDE0LjY0MjlDMTE2LjI4MyAxNC44MTg5IDExNi4yOCAxNS4wMDAzIDExNi4zNDcgMTUuMTcwM0MxMTYuMzc5IDE1LjI1MzYgMTE2LjU5MSAxNS4zMjM5IDExNi42MTEgMTUuMzk0NUMxMTYuNjQ2IDE1LjUxNDUgMTE2LjY4NCAxNS42MzQ4IDExNi43MDYgMTUuNzU3MkMxMTYuNzI4IDE1Ljg4MDQgMTE2LjczMiAxNi4wMDY4IDExNi43NDQgMTYuMTMxNkMxMTYuNjg0IDE2LjE3MiAxMTYuNjQ0IDE2LjIyNDkgMTE2LjY0NSAxNi4yOTk3QzExNi42NDUgMTYuMzQwNCAxMTYuNjYzIDE2LjM2NjkgMTE2LjY5OCAxNi4zNjYzQzExNi43MDkgMTYuMzY2MyAxMTYuNzI4IDE2LjM0MzYgMTE2LjcyOSAxNi4zMzAxQzExNi43MzQgMTYuMjYyMiAxMTYuNzM1IDE2LjE5NCAxMTYuNzM3IDE2LjEyNTdDMTE2Ljg0NiAxNi4yMTE0IDExNi44MzYgMTYuMzUwNyAxMTYuODkgMTYuNDYxQzExNi45MTYgMTYuNTEzNiAxMTYuODkzIDE2LjU2NjcgMTE2Ljg1NCAxNi42MDY5QzExNi43NTkgMTYuNzA1NSAxMTYuNzI4IDE2LjgxOTIgMTE2Ljc1NCAxNi45NTE3QzExNi43NzcgMTcuMDY0IDExNi44NDEgMTcuMTQzNiAxMTYuOTM3IDE3LjIwNDlDMTE2Ljk4NCAxNy4yMzUxIDExNy4wMSAxNy4yNzg3IDExNi45NzkgMTcuMzM4N0MxMTYuOTYzIDE3LjM3MDIgMTE2Ljk1NCAxNy40MDU4IDExNi45NDYgMTcuNDQwNUMxMTYuODY0IDE3Ljc4NTggMTE2Ljg2NSAxNy43OTM0IDExNi45OTYgMTguMTEwNEMxMTcuMDIzIDE4LjE3ODEgMTE3LjA2NyAxOC4yNDIxIDExNy4xMzYgMTguMjY2N0MxMTcuMzEyIDE4LjMyODggMTE3LjM3IDE4LjQ3NzEgMTE3LjQzMyAxOC42MjY3QzExNy40NDMgMTguNjUwNSAxMTcuNDkzIDE4LjY3MzUgMTE3LjUyIDE4LjY2OThDMTE3LjU0NiAxOC42NjY3IDExNy41NzcgMTguNjMxOCAxMTcuNTg4IDE4LjYwMzdDMTE3LjYwMSAxOC41NzI4IDExNy42IDE4LjUzMzQgMTE3LjU5NSAxOC40OTg4QzExNy41ODcgMTguNDQ2NCAxMTcuNTY2IDE4LjM5NTQgMTE3LjU2IDE4LjM0MzFDMTE3LjU1NyAxOC4zMTE2IDExNy41NjkgMTguMjc2NyAxMTcuNTgzIDE4LjI0NjZDMTE3LjU5OCAxOC4yMTI1IDExNy42NjcgMTguMjE0OCAxMTcuNzI5IDE4LjI1MTNDMTE3Ljc5MSAxOC4yODgxIDExNy44NjkgMTguMzE1OCAxMTcuOTA3IDE4LjM2OThDMTE3Ljk5MSAxOC40ODg1IDExOC4wOTkgMTguNTgwMiAxMTguMjA1IDE4LjY3NTlDMTE4LjIyNyAxOC42OTUyIDExOC4yMzcgMTguNzQyNSAxMTguMjMgMTguNzcyNEMxMTguMjA4IDE4Ljg3NjggMTE4LjE2IDE4Ljk3ODEgMTE4LjE3OCAxOS4wODY1QzExOC4xODYgMTkuMTM1NyAxMTguMjEzIDE5LjE4NjkgMTE4LjI0NCAxOS4yMjYxQzExOC4yOCAxOS4yNjkyIDExOC4zODggMTkuMjY4MSAxMTguNDQ3IDE5LjIzNDNDMTE4LjQ3OCAxOS4yMTY1IDExOC41MDggMTkuMTk1NCAxMTguNTM3IDE5LjE3NTZDMTE4LjU4MiAxOS4xNDYgMTE4LjYyNCAxOS4xMDk1IDExOC42NzMgMTkuMDg4OUMxMTguNzIyIDE5LjA2ODIgMTE4Ljc3OCAxOS4wNjMyIDExOC44MzEgMTkuMDUxNkwxMTguODI1IDE5LjA0MzRDMTE4LjgxMSAxOS4wODk3IDExOC43OSAxOS4xMzU0IDExOC43ODYgMTkuMTgyN0MxMTguNzg0IDE5LjE5OTYgMTE4LjgyMiAxOS4yMjMyIDExOC44NDYgMTkuMjM3NEMxMTguODU0IDE5LjI0MjUgMTE4Ljg3NyAxOS4yMzMyIDExOC44ODggMTkuMjI0MkMxMTguOTQ1IDE5LjE3NjQgMTE4LjkzMiAxOS4xMDY2IDExOC45NDMgMTkuMDQ0MkwxMTguOTM3IDE5LjA1MDhDMTE5LjA0NSAxOS4xMjk4IDExOS4wOTIgMTkuMjM1NiAxMTkuMSAxOS4zNjc4QzExOS4xMDYgMTkuNDU5IDExOS4yMjcgMTkuNTA1MyAxMTkuMjg5IDE5LjQ0NzFDMTE5LjMyOSAxOS40MTE0IDExOS4zNjUgMTkuMzcxNyAxMTkuMzk4IDE5LjMzMDVDMTE5LjQ0MyAxOS4yNzQ3IDExOS40OSAxOS4yMjEzIDExOS41NiAxOS4xOTYyQzExOS41NzUgMTkuMTkwOSAxMTkuNTk2IDE5LjE5NDEgMTE5LjYwOSAxOS4yMDE3QzExOS42MjIgMTkuMjA5MiAxMTkuNjM4IDE5LjIyNzQgMTE5LjYzOCAxOS4yNDA2QzExOS42MzYgMTkuMjkzIDExOS42MiAxOS4zNDY2IDExOS42MjcgMTkuMzk2OUMxMTkuNjM4IDE5LjQ2NjQgMTE5LjcyNyAxOS41MzU5IDExOS43NzggMTkuNTI3NUMxMTkuOTAxIDE5LjUwNjYgMTIwLjAyNiAxOS40ODgxIDEyMC4xNDggMTkuNDYxMUMxMjAuMjIgMTkuNDQ1NSAxMjAuMjA0IDE5LjM4MjMgMTIwLjIwNCAxOS4zMzA1QzEyMC4yMDQgMTkuMzEzOCAxMjAuMjA3IDE5LjI5MTkgMTIwLjIxNyAxOS4yODExQzEyMC4yNDEgMTkuMjU3IDEyMC4yNjggMTkuMjI1NSAxMjAuMjk4IDE5LjIyMTNDMTIwLjMyNiAxOS4yMTczIDEyMC4zNjcgMTkuMjM2NCAxMjAuMzg5IDE5LjI1ODFDMTIwLjQ1OCAxOS4zMjQ0IDEyMC40NjYgMTkuNDE0NiAxMjAuNDc3IDE5LjUwMzRDMTIwLjQ4NSAxOS41NzQ4IDEyMC41MSAxOS42MzkgMTIwLjU1MyAxOS42OTg1QzEyMC42MDQgMTkuNzY4IDEyMC43NDIgMTkuNzc4OSAxMjAuNzg5IDE5LjcxM0MxMjAuODYyIDE5LjYwODYgMTIwLjkxIDE5LjQ5NiAxMjAuOTIxIDE5LjM2ODhMMTIwLjkxNCAxOS4zNzYyQzEyMS4wNDkgMTkuNDU0IDEyMS4wNzcgMTkuNTk4NiAxMjEuMTQgMTkuNzIyQzEyMS4xNzMgMTkuNzg2NSAxMjEuMjI3IDE5LjgzMDQgMTIxLjI5IDE5Ljg2NjdDMTIxLjQxMSAxOS45MzY1IDEyMS41MjEgMTkuODkxNSAxMjEuNTc1IDE5Ljc0NjFDMTIxLjU4IDE5LjczMDIgMTIxLjU3OSAxOS43MTEyIDEyMS41OCAxOS42OTQzTDEyMS41NzIgMTkuNzAxN0MxMjEuNiAxOS43MjMxIDEyMS42MyAxOS43NDIxIDEyMS42NTUgMTkuNzY3QzEyMS44MjggMTkuOTQ0OSAxMjEuOTEgMTkuOTYxIDEyMi4xMjMgMTkuODUzMkMxMjIuMTU1IDE5LjgzNyAxMjIuMTgyIDE5LjgxMjUgMTIyLjIxMiAxOS43OTMyQzEyMi4yNjkgMTkuNzU4IDEyMi4zMTEgMTkuNzg0NCAxMjIuMzQzIDE5LjgzMTVDMTIyLjM3NSAxOS44NzgzIDEyMi40MTcgMTkuOTExOSAxMjIuNDc0IDE5LjkwODlDMTIyLjUyNiAxOS45MDY4IDEyMi41ODQgMTkuODk5NyAxMjIuNjI4IDE5Ljg3NDhDMTIyLjcyMSAxOS44MjMzIDEyMi44MDcgMTkuNzU5MSAxMjIuODk3IDE5LjY5OThMMTIyLjg5IDE5LjY5M0MxMjIuOTUxIDE5Ljc2MDYgMTIyLjk1MSAxOS43NjA2IDEyMy4wMSAxOS42OTI3TDEyMy4wMDMgMTkuNjk5OEMxMjMuMTMxIDE5LjgyNTQgMTIzLjI1OCAxOS45NTA3IDEyMy4zODYgMjAuMDc1OEMxMjMuNDIgMjAuMTA5MyAxMjMuNDY4IDIwLjEwNDYgMTIzLjUzIDIwLjA1NzVDMTIzLjU1OCAyMC4wMzYxIDEyMy41NzkgMTkuOTg1OSAxMjMuNjA1IDE5Ljk4NDZDMTIzLjcxOSAxOS45Nzg1IDEyMy44MTEgMTkuOTMxNCAxMjMuOSAxOS44NjY0QzEyMy45NDUgMTkuODMzMyAxMjQuMDA3IDE5LjgyMzYgMTI0LjA1NCAxOS44NTAzQzEyNC4yMDYgMTkuOTM3NSAxMjQuMzcyIDE5LjkyMDEgMTI0LjUzMyAxOS45MTI3QzEyNC42OTEgMTkuOTA1NSAxMjQuODEyIDE5Ljk1OTcgMTI0LjkyMyAyMC4wNjM5QzEyNC45NzggMjAuMTE0OSAxMjUuMDYxIDIwLjEwMDEgMTI1LjExNyAyMC4wNDExQzEyNS4xNTQgMjAuMDAyNSAxMjUuMTg0IDE5Ljk1NzYgMTI1LjIxNyAxOS45MTVDMTI1LjI0MyAxOS44ODIyIDEyNS4yNzUgMTkuODY3MiAxMjUuMzEgMTkuODc5MUMxMjUuMzc4IDE5LjkwMjEgMTI1LjQ0NCAxOS45MzU3IDEyNS41MTUgMTkuOTUxNUMxMjUuNTY1IDE5Ljk2MjkgMTI1LjYyMiAxOS45NjAyIDEyNS42NzMgMTkuOTQ5MUMxMjUuNzI1IDE5LjkzNzUgMTI1Ljc3NCAxOS45MTA1IDEyNS44MjIgMTkuODg1NEMxMjYuMDIgMTkuNzc5NyAxMjYuMjAzIDE5Ljc5MDUgMTI2LjM3NCAxOS45NDIzQzEyNi40NDYgMjAuMDA2MiAxMjYuNTMzIDIwLjAyMSAxMjYuNjI4IDIwLjAxNTJDMTI2LjcyMyAyMC4wMDk3IDEyNi44IDE5Ljk3NjQgMTI2Ljg2MiAxOS45MDE2QzEyNi44OTcgMTkuODYgMTI2Ljk0NyAxOS44NDA1IDEyNy4wMDYgMTkuODQyM0MxMjcuMjQ3IDE5Ljg1MjYgMTI3LjI5NCAxOS44NjYxIDEyNy42MjIgMjAuMDIzN0wxMjcuNjE1IDIwLjAxNjZDMTI3LjY1NSAyMC4xMjQ3IDEyNy43MzMgMjAuMTk1MyAxMjcuODQyIDIwLjIzNDlDMTI3Ljg3IDIwLjQyMjEgMTI3Ljg3IDIwLjQyMjEgMTI4LjA2MiAyMC40NDkzQzEyOC4wODEgMjAuNDk2NyAxMjguMDk2IDIwLjUwNjIgMTI4LjA5OCAyMC40NzcxQzEyOC4wOTggMjAuNDcwNSAxMjguMDcxIDIwLjQ2MjMgMTI4LjA1NyAyMC40NTQ2QzEyOC4wNTUgMjAuNDE4OSAxMjguMDU4IDIwLjM4MjcgMTI4LjA1MSAyMC4zNDgxQzEyOC4wNDIgMjAuMjkwNCAxMjguMDA0IDIwLjI1NCAxMjcuOTQ2IDIwLjI0MjlDMTI3LjkxMSAyMC4yMzYyIDEyNy44NzQgMjAuMjM5MiAxMjcuODM4IDIwLjIzODFDMTI3Ljg0IDIwLjE2NDEgMTI3Ljg0MyAyMC4wOSAxMjcuODQ0IDIwLjAxNkwxMjcuODM4IDIwLjAyNDJDMTI3Ljk4NyAyMC4wMzI5IDEyOC4xMTQgMjAuMTA5OSAxMjguMjUxIDIwLjE1NEMxMjguMjgxIDIwLjE2MzggMTI4LjMzNCAyMC4xNjU5IDEyOC4zNSAyMC4xNDg1QzEyOC40NDQgMjAuMDQ2MiAxMjguNTcxIDIwLjAzNTMgMTI4LjY5NCAyMC4wMTIxQzEyOC43MyAyMC4wMDU0IDEyOC43NjYgMTkuOTk0NiAxMjguNzk4IDE5Ljk3ODdDMTI4LjkxMSAxOS45MjM1IDEyOS4wMDUgMTkuOTU1NyAxMjkuMDk5IDIwLjAyNzFDMTI5LjE0IDIwLjA1ODkgMTI5LjE5NCAyMC4wNzU4IDEyOS4yNDQgMjAuMDk1M0MxMjkuMjgzIDIwLjExMDkgMTI5LjMxNyAyMC4wOTgyIDEyOS4zNDQgMjAuMDY3OEMxMjkuNDAzIDIwLjAwMjggMTI5LjQ1NCAxOS45MjM1IDEyOS41NjcgMTkuOTYyNkMxMjkuNiAxOS45NzQgMTI5LjYzOSAxOS45NzY5IDEyOS42NzQgMTkuOTczNUMxMjkuOTI2IDE5Ljk0NyAxMzAuMTggMTkuOTMyNyAxMzAuNDI4IDE5Ljg4NTJDMTMwLjU1OCAxOS44NjAzIDEzMC42MzYgMTkuODk4MSAxMzAuNzEzIDE5Ljk4MTdDMTMwLjcyNSAxOS45OTUxIDEzMC43MzkgMjAuMDA2NSAxMzAuNzUyIDIwLjAxODlDMTMwLjgxMSAyMC4wNzUyIDEzMC44NzMgMjAuMDkwMyAxMzAuOTQzIDIwLjAzOEMxMzEuMDAyIDE5Ljk5NDEgMTMxLjA2MyAxOS45NTc5IDEzMS4xNDIgMTkuOTg1OUMxMzEuMTU5IDE5Ljk5MiAxMzEuMTc4IDE5Ljk5NDEgMTMxLjE5NSAxOS45OTc4QzEzMS4zNjUgMjAuMDMwOCAxMzEuNTE4IDIwLjAwNiAxMzEuNjU1IDE5Ljg5MjhDMTMxLjczMyAxOS44MjgxIDEzMS44MTggMTkuODI3NSAxMzEuODk3IDE5Ljg5OTdDMTMxLjkyNCAxOS45MjM4IDEzMS45NDggMTkuOTUyOCAxMzEuOTc5IDE5Ljk2OTJDMTMyLjAwOSAxOS45ODUxIDEzMi4wNDYgMTkuOTg4NSAxMzIuMDgxIDE5Ljk5MzhDMTMyLjEzMyAyMC4wMDIgMTMyLjE5MiAxOS45NTk3IDEzMi4xOTkgMTkuOTA2QzEzMi4yMDQgMTkuODcxMSAxMzIuMTk2IDE5LjgzNTIgMTMyLjE5OCAxOS44MDAzQzEzMi4yIDE5Ljc0NSAxMzIuMjU1IDE5LjcwOTMgMTMyLjMwOCAxOS43MTY1QzEzMi40NjkgMTkuNzM3NCAxMzIuNjE4IDE5LjgyMjggMTMyLjc4NyAxOS44MDE5QzEzMi43OTIgMTkuODE2MiAxMzIuNzkzIDE5LjgzMjMgMTMyLjgwMyAxOS44NDM3QzEzMi44MDkgMTkuODUwOCAxMzIuODI0IDE5Ljg1MDggMTMyLjgzNSAxOS44NTRDMTMyLjg0IDE5LjgyNjcgMTMyLjgyMiAxOS44MTExIDEzMi43ODIgMTkuODA1NkMxMzIuNzczIDE5Ljc3MzMgMTMyLjc2MSAxOS43NDA4IDEzMi43NTMgMTkuNzA3OEMxMzIuNzM4IDE5LjY0OTkgMTMyLjc3NSAxOS41OTg4IDEzMi44MjQgMTkuNjA1N0MxMzIuODc1IDE5LjYxMzQgMTMyLjkyNiAxOS42MjI0IDEzMi45NzYgMTkuNjMzMkMxMzMuMDYgMTkuNjUxNyAxMzMuMTQzIDE5LjY3MjMgMTMzLjIyNyAxOS42OTIyQzEzMy4yNDYgMTkuNzQxMyAxMzMuMjYyIDE5Ljc1MTEgMTMzLjI2NCAxOS43MjFDMTMzLjI2NCAxOS43MTQ2IDEzMy4yMzYgMTkuNzA1OSAxMzMuMjIxIDE5LjY5ODhDMTMzLjM4NCAxOS41ODkzIDEzMy4zOTggMTkuNTg4OCAxMzMuNTUxIDE5LjY5MDhDMTMzLjY1MiAxOS43NTg1IDEzMy43MDUgMTkuNzM3NCAxMzMuNzM1IDE5LjYxNjhDMTMzLjczOSAxOS41OTk5IDEzMy43MjkgMTkuNTc5NSAxMzMuNzM1IDE5LjU2MzRDMTMzLjczOSAxOS41NDk5IDEzMy43NTcgMTkuNTI4NSAxMzMuNzY2IDE5LjUzMDFDMTMzLjgzNiAxOS41NDI1IDEzMy45MDcgMTkuNTU2NSAxMzMuOTc1IDE5LjU3NTZDMTM0LjI5NyAxOS42NjY1IDEzNC4zMTkgMTkuNjY3NiAxMzQuNjYxIDE5LjU2NjlDMTM0LjY5OCAxOS41NTYgMTM0LjcwMSAxOS41MTc0IDEzNC43MTEgMTkuNDc5NkMxMzQuNzMxIDE5LjQwNTggMTM0Ljc3OSAxOS4zODU1IDEzNC44MTYgMTkuNDMzNkMxMzQuOTA1IDE5LjU1MzQgMTM1LjAwNCAxOS41ODU0IDEzNS4xNDUgMTkuNTE5NUMxMzUuMjA4IDE5LjQ4OTkgMTM1LjI4NyAxOS40OTQyIDEzNS4zNTggMTkuNDc5MUMxMzUuNDMyIDE5LjQ2MzUgMTM1LjQ5MSAxOS40MjQzIDEzNS41MzIgMTkuMzU5NkMxMzUuNTUgMTkuMzI5MiAxMzUuNTcxIDE5LjI5ODIgMTM1LjU5NiAxOS4yNzI2QzEzNS42ODkgMTkuMTc3NCAxMzUuODE1IDE5LjE2NTMgMTM1Ljk0NSAxOS4yMzk2QzEzNS45NzYgMTkuMjU3MyAxMzUuOTk5IDE5LjI4NzcgMTM2LjAyOSAxOS4zMDc4QzEzNi4wNzQgMTkuMzM3NiAxMzYuMTQ2IDE5LjMxMDQgMTM2LjE1NyAxOS4yNjE4QzEzNi4xOTkgMTkuMDcwNCAxMzYuMTk5IDE5LjA2OSAxMzYuMzE3IDE5LjA1MDVDMTM2LjM1NCAxOS4wNDUgMTM2LjM5IDE5LjA0IDEzNi40MjUgMTkuMDMyQzEzNi41NDUgMTkuMDA1NiAxMzYuNTQ1IDE5LjAwNjYgMTM2LjYyMyAxOS4xMjk4QzEzNi42NyAxOS4yMDUyIDEzNi42ODQgMTkuMjExOCAxMzYuNzUzIDE5LjE5NDZDMTM2LjgyNCAxOS4xNzY2IDEzNi44OTUgMTkuMTYwNSAxMzYuOTY0IDE5LjEzOTZDMTM3LjA4IDE5LjEwNSAxMzcuMTYxIDE5LjAyMzYgMTM3LjE3MSAxOC45MTE1QzEzNy4xODYgMTguNzQwOSAxMzcuMjUzIDE4LjYwMjEgMTM3LjM2OCAxOC40ODA1QzEzNy4zODEgMTguNDY3MyAxMzcuMzkxIDE4LjQ1MjggMTM3LjQwMiAxOC40MzhDMTM3LjQ2NyAxOC4zNTA3IDEzNy40NjggMTguMzMzOCAxMzcuNDExIDE4LjI0NDdDMTM3LjM4MyAxOC4xOTg3IDEzNy4zNTIgMTguMTUzOCAxMzcuMzIxIDE4LjEwOTNDMTM3LjI2OSAxOC4wMzQgMTM3LjIyIDE4LjAxMzQgMTM3LjEzNyAxOC4wMzlDMTM3LjA2NyAxOC4wNjA0IDEzNy4wMDEgMTguMDkwNiAxMzYuOTMxIDE4LjExMjNDMTM2LjkyMiAxOC4xMTUyIDEzNi44OTggMTguMDk1MyAxMzYuODkyIDE4LjA4MTNDMTM2Ljg4NiAxOC4wNjc2IDEzNi44ODUgMTguMDQwMyAxMzYuODk0IDE4LjAzMTRDMTM2Ljk1OSAxNy45Njk4IDEzNy4wMjUgMTcuOTA3OSAxMzcuMDk2IDE3Ljg1MzdDMTM3LjE1MiAxNy44MTAzIDEzNy4yMzYgMTcuNzc5MSAxMzcuMjI0IDE3LjY5OUMxMzcuMjEzIDE3LjYzNCAxMzcuMDI0IDE3LjU1MzQgMTM2Ljk0NCAxNy41NjYzQzEzNi44OSAxNy41NzUgMTM2LjgzOSAxNy41OTczIDEzNi43ODYgMTcuNjA5OUMxMzYuNzI5IDE3LjYyMzQgMTM2LjcwNCAxNy41ODk5IDEzNi43MTIgMTcuNTEyNEMxMzYuNzI5IDE3LjMzOTggMTM2LjcgMTcuMzAxOSAxMzYuNTIgMTcuMjYyQzEzNi40ODUgMTcuMjU0NCAxMzYuNDUgMTcuMjQ1MSAxMzYuNDE4IDE3LjIzMTRDMTM2LjQwMyAxNy4yMjUgMTM2LjM5IDE3LjIwNjUgMTM2LjM4NSAxNy4xOTA5QzEzNi4zODEgMTcuMTc4IDEzNi4zODIgMTcuMTUyIDEzNi4zOTEgMTcuMTQ3QzEzNi40ODQgMTcuMDkyNiAxMzYuNTcgMTcuMDMyIDEzNi42OTQgMTcuMDY4OEMxMzYuNzY3IDE3LjA5MSAxMzYuNzk4IDE3LjA0ODcgMTM2Ljc3OCAxNi45Nzg0QzEzNi43NiAxNi45MDkzIDEzNi43NDIgMTYuODM5IDEzNi43MTUgMTYuNzczNUMxMzYuNzAxIDE2Ljc0MDQgMTM2LjY2MyAxNi43NDcgMTM2LjYzMiAxNi43ODI3QzEzNi42MDQgMTYuODE1MiAxMzYuNTcgMTYuODI5OCAxMzYuNTQxIDE2LjgwNjhDMTM2LjUgMTYuNzczMiAxMzYuNDU5IDE2LjczNTEgMTM2LjQyOSAxNi42OTEyQzEzNi4zNzIgMTYuNjA2NiAxMzYuMzA0IDE2LjU2NzIgMTM2LjIgMTYuNjA4QzEzNi4xNjcgMTYuNjIwOSAxMzYuMTMyIDE2LjYzMSAxMzYuMDk2IDE2LjYzNkMxMzYuMDM2IDE2LjY0NDIgMTM1Ljk4NCAxNi42MTU0IDEzNS45NTYgMTYuNTY5OUMxMzUuODUzIDE2LjM5OTYgMTM1Ljc4MiAxNi4yMTY3IDEzNS43NTggMTYuMDE4NEwxMzUuNzUgMTYuMDI1NUMxMzUuODM4IDE2LjA0MTkgMTM1LjkyNCAxNi4wNjA3IDEzNi4wMTMgMTYuMDczOUMxMzYuMDY5IDE2LjA4MjEgMTM2LjE1NSAxNi4wMjI2IDEzNi4xNzQgMTUuOTU3OUMxMzYuMTg4IDE1LjkwOSAxMzYuMTg1IDE1Ljg1NSAxMzYuMTkgMTUuODAzNUMxMzYuMjM5IDE1Ljc4NSAxMzYuMjUgMTUuNzY5MSAxMzYuMjIgMTUuNzY3NUMxMzYuMjEzIDE1Ljc2NyAxMzYuMjAzIDE1Ljc5NCAxMzYuMTk1IDE1LjgwODJDMTM2LjA4NSAxNS44MDUxIDEzNS45NzYgMTUuODAxMSAxMzUuODY2IDE1Ljc5ODRDMTM1Ljc2OCAxNS43OTU4IDEzNS42ODkgMTUuODI5OSAxMzUuNjM4IDE1LjkxNTZMMTM1LjY0NSAxNS45MDkyQzEzNS41NzUgMTUuODczNSAxMzUuNTUzIDE1LjgwMzIgMTM1LjUyIDE1Ljc0MDhDMTM1LjQ2MyAxNS42MzUzIDEzNS41IDE1LjQ4ODkgMTM1LjM3MiAxNS40MTQzQzEzNS4zMjEgMTUuMzAxNCAxMzUuMjY5IDE1LjE4ODUgMTM1LjIxOCAxNS4wNzU2QzEzNS4xNzQgMTQuOTgwNSAxMzUuMTAyIDE0Ljk0OTMgMTM0Ljk5OSAxNC45NzI4QzEzNC45NjYgMTQuOTgwMiAxMzQuOTI5IDE0Ljk3NzggMTM0Ljg5NSAxNC45NzMzQzEzNC44NTQgMTQuOTY3OCAxMzQuOCAxNC45MDEyIDEzNC44MDQgMTQuODU0MUMxMzQuODA3IDE0LjgyMTYgMTM0LjgyMSAxNC43ODI1IDEzNC44NDMgMTQuNzYxQzEzNC44OTUgMTQuNzEyNyAxMzQuOTU2IDE0LjY3NDYgMTM1LjAxMSAxNC42Mjg5QzEzNS4wMjIgMTQuNjE5OSAxMzUuMDI5IDE0LjU4OTUgMTM1LjAyMiAxNC41Nzk3QzEzNS4wMDQgMTQuNTUzOCAxMzQuOTgxIDE0LjUyNDQgMTM0Ljk1MyAxNC41MTMzQzEzNC44OCAxNC40ODUgMTM0LjgxMiAxNC41MTY1IDEzNC43NDQgMTQuNTQxNkMxMzQuNzM0IDE0LjU0NTMgMTM0LjcxIDE0LjUzMjQgMTM0LjcwMiAxNC41MjFDMTM0LjY5NSAxNC41MDk2IDEzNC42OTIgMTQuNDg3MSAxMzQuNjk4IDE0LjQ3NUMxMzQuNzM4IDE0LjM5NTkgMTM0LjgzNiAxNC4zNjE2IDEzNC44NTggMTQuMjY2N0MxMzQuODY3IDE0LjIyNDEgMTM0LjgzMiAxNC4xNDQzIDEzNC43OSAxNC4xNDI0QzEzNC43MzYgMTQuMTM5OCAxMzQuNjgyIDE0LjE0NjQgMTM0LjYyOCAxNC4xNDI3QzEzNC41NjggMTQuMTM5IDEzNC40OTkgMTQuMDg4NyAxMzQuNTA3IDE0LjA1NTlDMTM0LjUxMyAxNC4wMjU4IDEzNC41MjkgMTMuOTkzMyAxMzQuNTUxIDEzLjk3MTlDMTM0LjU4OSAxMy45MzUxIDEzNC42MzggMTMuOTA5MiAxMzQuNjc3IDEzLjg3MjdDMTM0LjcwNyAxMy44NDQ3IDEzNC43MSAxMy44MDE5IDEzNC42ODIgMTMuNzc5NEMxMzQuNjEyIDEzLjcyNSAxMzQuNTM2IDEzLjY3ODQgMTM0LjQ2MyAxMy42MjcxQzEzNC4zNzYgMTMuNTY1NSAxMzQuMjk0IDEzLjU5NTQgMTM0LjIxMiAxMy42Mzk2TDEzNC4yMTggMTMuNjQ2NEMxMzQuMTg2IDEzLjU2NTUgMTM0LjEzNSAxMy40ODcgMTM0LjI0NyAxMy40MTc1QzEzNC4zMDYgMTMuMzgxIDEzNC4zNTQgMTMuMzI0MiAxMzQuMzk5IDEzLjI2OTdDMTM0LjQ0NCAxMy4yMTUyIDEzNC4zNjQgMTIuODM5IDEzNC40MTMgMTIuNzg4OEMxMzQuNDQ3IDEyLjc1MzQgMTM0LjUwMyAxMi43MzQxIDEzNC41NTMgMTIuNzE3N0MxMzQuNjA1IDEyLjcwMDUgMTM0LjY5NCAxMi43MjYxIDEzNC42OTYgMTIuNzU1NUMxMzQuNjk5IDEyLjc4OTEgMTM0LjY4NiAxMi44MjQyIDEzNC42NzkgMTIuODU4M0MxMzQuNjc1IDEyLjg3NTMgMTM0LjY2NyAxMi44OTE2IDEzNC42NjEgMTIuOTA4NkMxMzQuNjExIDEyLjkyNzMgMTM0LjYgMTIuOTQyOSAxMzQuNjMxIDEyLjk0NDNDMTM0LjYzOCAxMi45NDQ4IDEzNC42NDYgMTIuOTE2NSAxMzQuNjU0IDEyLjkwMTRDMTM0Ljc0OCAxMi44OTgzIDEzNC44MzYgMTIuODgzNCAxMzQuODc5IDEyLjc4NjJDMTM0LjkxNSAxMi43MDQyIDEzNC45NDggMTIuNjIxMiAxMzQuOTgzIDEyLjUzODdDMTM1LjA0NCAxMi4zOTQ2IDEzNS4zOTUgMTIuMTAzMyAxMzUuNTc1IDEyLjEzNzlDMTM1LjYxNiAxMi4xNDYxIDEzNS42NCAxMi4xNzMzIDEzNS42MzggMTIuMjA4NUMxMzUuNjMzIDEyLjI2MTYgMTM1LjYxNiAxMi4zMTQ1IDEzNS42MTcgMTIuMzY3NEMxMzUuNjE3IDEyLjM5OTQgMTM1LjYzNCAxMi40MzkgMTM1LjY1NiAxMi40NjA3QzEzNS42NzggMTIuNDgxNiAxMzUuNzIyIDEyLjQ5OCAxMzUuNzUgMTIuNDkxMUMxMzUuODI0IDEyLjQ3MzcgMTM1Ljg3MiAxMi40MTc2IDEzNS45MTcgMTIuMzZDMTM1LjkzOCAxMi4zMzM1IDEzNS45NjcgMTIuMjkxIDEzNS45ODggMTIuMjkzMUMxMzYuMDE3IDEyLjI5NiAxMzYuMDQyIDEyLjMzNDkgMTM2LjA2OCAxMi4zNTkyQzEzNi4wOTggMTIuMzg3NyAxMzYuMTMxIDEyLjM5MTIgMTM2LjE2OSAxMi4zNzAzQzEzNi4yNDcgMTIuMzI2OSAxMzYuMzM2IDEyLjI5NzYgMTM2LjM3OCAxMi4yMDg4TDEzNi4zNzEgMTIuMjE2MkMxMzYuNDA3IDEyLjIxOCAxMzYuNDQ0IDEyLjIxOTYgMTM2LjQ4IDEyLjIyMTJDMTM2LjU3NiAxMi4yMjU5IDEzNi42NTYgMTIuMjU0MiAxMzYuNzA4IDEyLjM0MzNDMTM2LjgxNCAxMi41Mjc2IDEzNi45MTggMTIuNjU1MyAxMzcuMTA0IDEyLjYxNTFDMTM3LjI4OSAxMi41NzQ5IDEzNy40NjMgMTIuNTgwMiAxMzcuNjQxIDEyLjYyNDFDMTM3LjcxNCAxMi42NDIxIDEzNy45NzEgMTIuNjY0OCAxMzguMDIzIDEyLjcxODVDMTM4LjEwNCAxMi44MDMzIDEzOC4xNzYgMTMuMDUxMyAxMzguMjg5IDEzLjA1MzdDMTM4LjQxNyAxMy4wNTY2IDEzOC41NDUgMTMuMDYwMyAxMzguNjczIDEzLjA2OEMxMzguNzQ4IDEzLjA3MjcgMTM4LjcxNCAxMy4xOTk2IDEzOC43NyAxMy4yNTE3QzEzOC44MDkgMTMuMjg4NyAxMzguODQ3IDEzLjMyOTcgMTM4LjkwOSAxMy4zMjg0QzEzOC45ODEgMTMuMzI3MSAxMzkuMDY4IDEzLjMwMDQgMTM5LjEyMiAxMy4zMzA4QzEzOS4yNjcgMTMuNDEzNSAxMzkuMjcxIDEzLjU3ODIgMTM5LjQxOSAxMy42NDU2QzEzOS41NTEgMTMuNzA1OSAxMzkuNjg2IDEzLjc1OTYgMTM5LjgyMyAxMy44MDg1QzEzOS45NDUgMTMuODUyMSAxNDAuMDcyIDEzLjg2ODUgMTQwLjIgMTMuODMwNEMxNDAuMjM1IDEzLjgyMDQgMTQwLjI3MiAxMy44MDY0IDE0MC4zMDcgMTMuODA4QzE0MC40NSAxMy44MTM4IDE0MC41OTggMTMuNzkzNyAxNDAuNzExIDEzLjkyM0MxNDAuNzk2IDE0LjAyMDggMTQwLjkxNCAxNC4wNjk3IDE0MS4wNDcgMTQuMDg5QzE0MS4xMTYgMTQuMDk5MyAxNDEuMTkxIDE0LjEyODQgMTQxLjI0NSAxNC4xNzFDMTQxLjM5MyAxNC4yODcgMTQxLjU0MiAxNC4zNzg4IDE0MS43NDEgMTQuMzE5M0MxNDEuODMgMTQuMzM5OSAxNDEuOTE4IDE0LjM2MjkgMTQyLjAwOCAxNC4zODAxQzE0Mi4xMTcgMTQuNDAxIDE0Mi4yMjcgMTQuNDA0NyAxNDIuMzMxIDE0LjM1ODFDMTQyLjQyMSAxNC4zMTc3IDE0Mi41MDIgMTQuMzI3NyAxNDIuNTkxIDE0LjM3MDNDMTQyLjc1OSAxNC40NTAxIDE0Mi45MDggMTQuNTUwMSAxNDMuMDI3IDE0LjY5MDdDMTQzLjA5MSAxNC43NjU4IDE0My4xNjggMTQuNzkzMyAxNDMuMjcgMTQuNzcxMUMxNDMuMzIgMTQuNzYgMTQzLjM4MSAxNC43NjU4IDE0My40MyAxNC43ODRDMTQzLjU2NiAxNC44MzUxIDE0My43MTIgMTQuODYyMyAxNDMuODI5IDE0Ljk1NzJDMTQzLjkxNSAxNS4wMjczIDE0NC4wMTkgMTUuMDYyNCAxNDQuMTI2IDE1LjA5MUMxNDQuMTk3IDE1LjExMDMgMTQ0LjI1OSAxNS4xNTE4IDE0NC4yOTcgMTUuMjE3NkMxNDQuMzQ1IDE1LjMwMDQgMTQ0LjQxMyAxNS4zNTQzIDE0NC41MTEgMTUuMzY1OUMxNDQuNjU3IDE1LjM4MzQgMTQ0LjgwMiAxNS40MDAzIDE0NC45MDggMTUuNTIwNkMxNDQuOTMgMTUuNTQ2IDE0NC45NjggMTUuNTYyOSAxNDUuMDAyIDE1LjU3MTZDMTQ1LjI5NCAxNS42NDQzIDE0NS41MDQgMTUuODU1NiAxNDUuNzU0IDE1Ljk5ODNDMTQ1Ljc3NiAxNi4wMTA3IDE0NS43OTcgMTYuMDY2OCAxNDUuNzg3IDE2LjA4MDhDMTQ1Ljc3IDE2LjEwNTEgMTQ1LjcyOCAxNi4xMTM4IDE0NS42OTYgMTYuMTI2QzE0NS42NzkgMTYuMTMyMSAxNDUuNjYgMTYuMTMxIDE0NS42NDEgMTYuMTMzNEMxNDUuNjAyIDE2LjA3MjEgMTQ1LjU0OSAxNi4wMzIyIDE0NS40NzMgMTYuMDI5MkMxNDUuNDMyIDE2LjAyNzcgMTQ1LjQwNCAxNi4wNDU5IDE0NS40MDMgMTYuMDgxM0MxNDUuNDAyIDE2LjA5MTkgMTQ1LjQyNiAxNi4xMTE3IDE0NS40NCAxNi4xMTMxQzE0NS41MDkgMTYuMTE5NyAxNDUuNTc5IDE2LjEyMTggMTQ1LjY0OCAxNi4xMjUyQzE0NS42NSAxNi4xOTc5IDE0NS42NjUgMTYuMjY2NCAxNDUuNzI1IDE2LjMxNTZDMTQ1LjgzNCAxNi40MDY1IDE0NS45NDMgMTYuNDk5MyAxNDYuMDU4IDE2LjU4NDRDMTQ2LjIwNCAxNi42OTIzIDE0Ni4zNjMgMTYuNzY4NCAxNDYuNTUxIDE2Ljc3OEMxNDYuNjU4IDE2Ljc4MzUgMTQ2Ljc2MyAxNi44MTg3IDE0Ni44NyAxNi44MjI5QzE0Ni45MzkgMTYuODI1OCAxNDcuMDA5IDE2Ljc5NjcgMTQ3LjA3OCAxNi43ODE3TDE0Ny4wNjcgMTYuNzczN0MxNDcuMDc3IDE2LjgyNjMgMTQ3LjA3OSAxNi44ODI0IDE0Ny4wOTkgMTYuOTMwMkMxNDcuMTIgMTYuOTc4NiAxNDcuMTU3IDE3LjAyMjIgMTQ3LjE5MyAxNy4wNjIyQzE0Ny4zMDUgMTcuMTg0NiAxNDcuNCAxNy4zMTE1IDE0Ny40MSAxNy40ODY3QzE0Ny40MTQgMTcuNTU2NSAxNDcuNDUxIDE3LjYyNDIgMTQ3LjQ3MyAxNy42OTNDMTQ3LjUwMSAxNy43ODIxIDE0Ny40OTUgMTcuODY5MyAxNDcuNDY1IDE3Ljk1NzNDMTQ3LjQzNSAxOC4wNDIyIDE0Ny40MDkgMTguMTI4NiAxNDcuMzgzIDE4LjIxNDhDMTQ3LjM2IDE4LjI5MDIgMTQ3LjM2MiAxOC4yODk3IDE0Ny40NSAxOC40NTA5QzE0Ny40NjYgMTguNDgwNSAxNDcuNDggMTguNTIzOSAxNDcuNDcgMTguNTUxNEMxNDcuNDA1IDE4LjcyMTkgMTQ3LjMzMyAxOC44ODY2IDE0Ny4xMTkgMTguOTI4MUMxNDcuMDQ3IDE4Ljk0MjEgMTQ2Ljk5MyAxOC45OTU1IDE0Ni45NTYgMTkuMDYyMkMxNDYuODk0IDE5LjE3MTkgMTQ2LjgzIDE5LjI4MDUgMTQ2Ljc2NiAxOS4zODg5QzE0Ni43NDMgMTkuNDI3OCAxNDYuNjU4IDE5LjQyNzUgMTQ2LjYyNCAxOS4zODcxQzE0Ni41ODggMTkuMzQ2MSAxNDYuNTU5IDE5LjMwMDEgMTQ2LjUyNCAxOS4yNTkxQzE0Ni40NDMgMTkuMTY2OSAxNDYuMzQ5IDE5LjE2NTMgMTQ2LjMwOSAxOS4yNjJDMTQ2LjI2OCAxOS4zNjI4IDE0Ni4yMjYgMTkuNDU2NiAxNDYuMTQ0IDE5LjUzNTlDMTQ2LjA5NCAxOS41ODM4IDE0Ni4wODYgMTkuNjc3MSAxNDYuMDMzIDE5LjcxNjJDMTQ1Ljk0OCAxOS43Nzk0IDE0NS44NDIgMTkuODE4OCAxNDUuNzQyIDE5Ljg2MDNDMTQ1LjY0MiAxOS45MDIxIDE0NS41MzUgMTkuOTMwOSAxNDUuNDM1IDE5Ljk3MjdDMTQ1LjM4MiAxOS45OTQzIDE0NS4zNSAyMC4wNDM4IDE0NS4zNTYgMjAuMTAxN0MxNDUuMzY1IDIwLjE3OTcgMTQ1LjM0MiAyMC4yNDUgMTQ1LjI4MyAyMC4yOTM5QzE0NS4xMyAyMC40MjEgMTQ0Ljk3IDIwLjU0MTYgMTQ0LjgxOSAyMC42NzA0QzE0NC42OCAyMC43ODg1IDE0NC41NjIgMjAuOTMzMSAxNDQuNDEyIDIxLjAzMThDMTQ0LjE0OSAyMS4yMDQxIDE0My45MzIgMjEuNDE4IDE0My43MTggMjEuNjQxN0MxNDMuNTY4IDIxLjc5ODcgMTQzLjQwMiAyMS45NDE3IDE0My4yNDMgMjIuMDkwOEMxNDMuMDMzIDIyLjE3MzYgMTQyLjkxMyAyMi4zNzQ4IDE0Mi43MTkgMjIuNDc3MUMxNDIuNTg1IDIyLjU0NzIgMTQyLjQ4NCAyMi42NDU1IDE0Mi40MTEgMjIuNzc1OEMxNDIuMzc2IDIyLjgzODUgMTQyLjMyNyAyMi44OTM4IDE0Mi4yODkgMjIuOTU1OUMxNDIuMjIxIDIzLjA2NzQgMTQyLjEzIDIzLjE1MSAxNDIuMDEyIDIzLjIwODZDMTQxLjkxMiAyMy4yNTgxIDE0MS44MzEgMjMuMzI0NCAxNDEuNzY5IDIzLjQyMDFDMTQxLjcyIDIzLjQ5NDEgMTQxLjY0OSAyMy41NTUgMTQxLjU4NCAyMy42MTc5QzE0MS40MzcgMjMuNzYxNCAxNDEuMjg4IDIzLjgyODYgMTQxLjA1MiAyMy44NTc5QzE0MS4wMTcgMjMuODYyNyAxNDAuOTggMjMuODQ0MiAxNDAuOTQ0IDIzLjg0MjlDMTQwLjg4IDIzLjg0MDIgMTQwLjgzMyAyMy44ODEyIDE0MC44NDUgMjMuOTQzM0MxNDAuODggMjQuMTI5NyAxNDAuODE4IDI0LjI1OSAxNDAuNjM2IDI0LjMyODJDMTQwLjU0MiAyNC4zNjM5IDE0MC40OTkgMjQuNDM4OCAxNDAuNDY2IDI0LjUyNkMxNDAuNDI5IDI0LjYyMyAxNDAuMzQ3IDI0LjY1OTggMTQwLjI0OSAyNC42NTVDMTQwLjE3NiAyNC42NTExIDE0MC4xMDUgMjQuNjMxMiAxNDAuMDMyIDI0LjYyMkMxMzkuOTk1IDI0LjYxNjcgMTM5Ljk2NSAyNC42MzY1IDEzOS45NTUgMjQuNjcyN0MxMzkuOTUxIDI0LjY4NzUgMTM5Ljk1NyAyNC43MDkyIDEzOS45NjYgMjQuNzIyMkMxNDAuMDYxIDI0Ljg1OTQgMTQwLjA2MyAyNC44NjIgMTM5Ljk1NiAyNC45NTY3QzEzOS45MjkgMjQuOTgwNSAxMzkuOTA2IDI1LjAxMTEgMTM5Ljg3NCAyNS4wMjY3QzEzOS44NDUgMjUuMDQyMSAxMzkuODAyIDI1LjA1NTggMTM5Ljc3MiAyNS4wNDZDMTM5LjY1MSAyNS4wMDU4IDEzOS41MjcgMjQuOTYzIDEzOS40OSAyNC44MTg5QzEzOS40ODEgMjQuNzg0IDEzOS40NjkgMjQuNzQ5NyAxMzkuNDUzIDI0LjcxNzdDMTM5LjQwNyAyNC42MjU5IDEzOS4zMzQgMjQuNjA0IDEzOS4yMjkgMjQuNjA3N0MxMzkuMTIgMjQuNjExOSAxMzkuMDgzIDI0LjUwNDMgMTM5LjE1IDI0LjQxNzFDMTM5LjE2MSAyNC40MDI1IDEzOS4xNzMgMjQuMzg5MyAxMzkuMTg1IDI0LjM3NThDMTM5LjE5NyAyNC4zNjI0IDEzOS4yMTEgMjQuMzUwNSAxMzkuMjIzIDI0LjMzNjdDMTM5LjI2NyAyNC4yODQxIDEzOS4zNCAyNC4yMzIgMTM5LjI4NCAyNC4xNTY5QzEzOS4yNTYgMjQuMTE5NCAxMzkuMTkxIDI0LjEwOTMgMTM5LjE0NCAyNC4wODQ4QzEzOS4wODYgMjQuMDU0MSAxMzkuMDc5IDIzLjk4NTYgMTM5LjEzMiAyMy45NTM2QzEzOS4xNzggMjMuOTI1NiAxMzkuMjI4IDIzLjkwNSAxMzkuMjc1IDIzLjg3NzhDMTM5LjMxIDIzLjg1NzEgMTM5LjMxNSAyMy44MjQxIDEzOS4zMDEgMjMuNzgzNEMxMzkuMjc3IDIzLjcxNTQgMTM5LjI1NCAyMy42NDggMTM5LjE5NyAyMy41OThDMTM5LjE3MiAyMy41NzU4IDEzOS4xNTMgMjMuNTQ3OCAxMzkuMTMxIDIzLjUyMjJDMTM5LjE2MiAyMy41MDQ3IDEzOS4xOTEgMjMuNDgyMiAxMzkuMjIzIDIzLjQ3MDFDMTM5LjI3OCAyMy40NSAxMzkuMzE4IDIzLjQyNTcgMTM5LjMxNSAyMy4zNTg1QzEzOS4zMTIgMjMuMjY5MiAxMzkuMzA1IDIzLjE3ODIgMTM5LjMxOCAyMy4wOTFDMTM5LjMzNCAyMi45OTAyIDEzOS4yOTcgMjIuOTE3IDEzOS4yMzYgMjIuODQ1NEMxMzkuMTg4IDIyLjc4ODggMTM5LjE1MiAyMi43MTg3IDEzOS4xNzMgMjIuNjQ3MUMxMzkuMjEyIDIyLjUxNjggMTM5LjIyMiAyMi40MTQ3IDEzOS4wNzQgMjIuMzM0M0MxMzkgMjIuMjk0NCAxMzguOTY4IDIyLjE4NiAxMzguODk4IDIyLjEzNDVDMTM4Ljc2NyAyMi4wMzg4IDEzOC44MTkgMjEuOTcwMyAxMzguOSAyMS44Nzk5QzEzOC45NTQgMjEuODE5NiAxMzguOTMzIDIxLjcxODMgMTM4Ljg3MSAyMS42OTE5QzEzOC43MzMgMjEuNjMzMiAxMzguNjI5IDIxLjUzOCAxMzguNTI3IDIxLjQzMzlDMTM4LjQ3MSAyMS4zNzc2IDEzOC40NTUgMjEuMzE3NSAxMzguNDM4IDIxLjI0NzVDMTM4LjQyNCAyMS4xOTEyIDEzOC4zNjQgMjEuMTU0MiAxMzguMzE1IDIxLjE1OTdDMTM4LjI2IDIxLjE2NjEgMTM4LjIwNyAyMS4xODAxIDEzOC4xNTIgMjEuMTg3MkMxMzguMDY5IDIxLjE5ODYgMTM4LjAxNSAyMS4xNTkyIDEzNy45ODEgMjEuMDg2QzEzNy45NTkgMjEuMDM3OCAxMzcuOTQyIDIwLjk4NTggMTM3LjkxIDIwLjk0NDVDMTM3Ljg5MiAyMC45MjA3IDEzNy44NDUgMjAuODk5NiAxMzcuODE2IDIwLjkwNDhDMTM3LjU2NCAyMC45NDY5IDEzNy4zMTUgMjEuMDAwOCAxMzcuMDcyIDIxLjA4MTVDMTM2Ljg0NyAyMS4xNTYgMTM2LjYyNCAyMS4yMzc3IDEzNi4zOTkgMjEuMzE0OUMxMzYuMzEzIDIxLjM0NDUgMTM2LjIyNyAyMS4zODc5IDEzNi4xMzkgMjEuMzk1QzEzNS42MTEgMjEuNDM2IDEzNS4wOTIgMjEuNTY1OCAxMzQuNTU4IDIxLjUzNTdDMTM0LjQ2OCAyMS41MzA2IDEzNC4zNzIgMjEuNTQwNyAxMzQuMjg3IDIxLjU2ODJDMTM0LjA3OSAyMS42MzY2IDEzMy44NTcgMjEuNjQ3IDEzMy42NTQgMjEuNzM3NEMxMzMuNTM5IDIxLjc4NzkgMTMzLjQwOSAyMS44MTExIDEzMy4yODMgMjEuODMwN0MxMzMuMTU2IDIxLjg1IDEzMy4wMzQgMjEuODc3MiAxMzIuOTE1IDIxLjkyOTNDMTMyLjgxNSAyMS45NzMyIDEzMi42OTggMjEuOTg0IDEzMi41OTIgMjEuOTQ5MUMxMzIuNDU0IDIxLjkwMzcgMTMyLjM1NiAyMS45MDkyIDEzMi4yNzkgMjIuMDU1NEMxMzIuMjE3IDIyLjE3MjggMTMyLjA4MSAyMi4yMjAxIDEzMS45NTUgMjIuMjM3M0MxMzEuNjI4IDIyLjI4MiAxMzEuMzAzIDIyLjMzMDkgMTMwLjk5MiAyMi40NDY0QzEzMC45NzYgMjIuNDUyMiAxMzAuOTU2IDIyLjQ1OTkgMTMwLjk0IDIyLjQ1NjVDMTMwLjczNSAyMi40MTM0IDEzMC41NDQgMjIuNTE4OSAxMzAuMzQzIDIyLjUwOTZDMTMwLjMwNiAyMi41MDggMTMwLjI3IDIyLjUwODYgMTMwLjIzMyAyMi41MDU0QzEzMC4wNDUgMjIuNDg5MyAxMjkuODc5IDIyLjU5MDIgMTI5LjY5NSAyMi42MDAzQzEyOS41MTMgMjIuNjEwMyAxMjkuMzMgMjIuNjE3NyAxMjkuMTQ4IDIyLjYzMjNDMTI5LjA5NCAyMi42MzY1IDEyOS4wNDIgMjIuNjU5MiAxMjguOTkgMjIuNjc3NUMxMjguNjQ1IDIyLjc5ODMgMTI4LjI5MiAyMi44ODE2IDEyNy45MjcgMjIuOTIzNEMxMjcuODM4IDIyLjkzMzcgMTI3Ljc1MiAyMi45NzA3IDEyNy42NjQgMjIuOTk2MUMxMjcuNTM5IDIzLjAzMjMgMTI3LjQwNSAyMy4wNTUzIDEyNy4yODUgMjMuMDE3MkMxMjcuMTE1IDIyLjk2MyAxMjYuOTY1IDIyLjk2OTQgMTI2LjgxNSAyMy4wNjRDMTI2LjcwNCAyMy4xMzM4IDEyNi41NzUgMjMuMTUyMyAxMjYuNDQ2IDIzLjE1NDRDMTI2LjI0NSAyMy4xNTc2IDEyNi4wNDMgMjMuMTU5NyAxMjUuODQyIDIzLjE1NDRDMTI1LjY0IDIzLjE0OTEgMTI1LjQ0MSAyMy4xNTM5IDEyNS4yNDYgMjMuMjIwNUMxMjUuMTM5IDIzLjI1NzMgMTI1LjAzMSAyMy4yMzI5IDEyNC45MzMgMjMuMTY2M0MxMjQuODkxIDIzLjEzNzUgMTI0LjgzIDIzLjEwMDIgMTI0Ljc4OSAyMy4xMDk3QzEyNC42NzMgMjMuMTM3OCAxMjQuNTczIDIzLjEwNiAxMjQuNDY3IDIzLjA3NTlDMTI0LjQwOCAyMy4wNTkgMTI0LjM2NCAyMy4wOTgxIDEyNC4zMjkgMjMuMTQyQzEyNC4zMDEgMjMuMTc3NyAxMjQuMjc1IDIzLjE4NTYgMTI0LjI0MSAyMy4xNzAzQzEyMy45OTYgMjMuMDYwMyAxMjMuNzY0IDIzLjA1MjYgMTIzLjU4MyAyMy4xNTc5QzEyMy41MDQgMjMuMjA0MSAxMjMuNDMyIDIzLjI1NTkgMTIzLjMzOCAyMy4yNzI5QzEyMy4yNDkgMjMuMjg5MiAxMjMuMTY2IDIzLjMxOTEgMTIzLjA3IDIzLjI5NTlDMTIyLjg5MyAyMy4yNTI4IDEyMi43MTQgMjMuMjIyMSAxMjIuNTM1IDIzLjE4NjJDMTIyLjQzMiAyMy4yMjUgMTIyLjM2NSAyMy4xNzM1IDEyMi4yOTkgMjMuMTA0MkMxMjIuMjU4IDIzLjA2MDMgMTIyLjIwMiAyMy4wNjI0IDEyMi4xNDggMjMuMDg1MkMxMjIuMDggMjMuMTEyOSAxMjIuMDE2IDIzLjEyODggMTIxLjkzNyAyMy4xMjA4QzEyMS43NTkgMjMuMTAzNCAxMjEuNTggMjMuMDQ1NSAxMjEuMzk5IDIzLjExMzdDMTIxLjM1MyAyMy4xMzA2IDEyMS4yOTIgMjMuMDgxMiAxMjEuMjgzIDIzLjAyODZDMTIxLjI3NCAyMi45NzU0IDEyMS4yNzQgMjIuOTIxIDEyMS4yNjMgMjIuODY4MUMxMjEuMjQxIDIyLjc2MjQgMTIxLjEzOSAyMi43MTc0IDEyMS4wNjQgMjIuNzg0QzEyMC45ODIgMjIuODU3NSAxMjAuOTAzIDIyLjkxNDYgMTIwLjc4MyAyMi45MzAyQzEyMC42MjIgMjIuOTUwOSAxMjAuNDc1IDIyLjk4ODkgMTIwLjMwNSAyMi45MjZDMTE5LjkzOCAyMi43OTA0IDExOS41NTIgMjIuODAxIDExOS4xNjkgMjIuODU3M0MxMTkuMTU4IDIyLjg1OTQgMTE5LjE0IDIyLjg4NDIgMTE5LjE0MiAyMi44ODgyQzExOS4xNTEgMjIuOTAyNyAxMTkuMTY1IDIyLjkxOTEgMTE5LjE4MSAyMi45MjM2QzExOS4yNSAyMi45NDQgMTE5LjMyMiAyMi45NTc1IDExOS4zOSAyMi45Nzk3QzExOS40MyAyMi45OTI2IDExOS40NTEgMjMuMDMxOCAxMTkuNDMzIDIzLjA2NjlDMTE5LjQxOSAyMy4wOTQ5IDExOS4zODUgMjMuMTE1IDExOS4zNTcgMjMuMTM0MUMxMTkuMzQzIDIzLjE0MzMgMTE5LjMyMiAyMy4xNDYgMTE5LjMwNCAyMy4xNDc1QzExOC44NTcgMjMuMTg0IDExOC40MzQgMjMuMDc2NCAxMTguMDE4IDIyLjkzMjlDMTE3Ljk2OCAyMi45MTU3IDExNy45MDMgMjIuODg4NyAxMTcuODgyIDIyLjg0OEMxMTcuNzkxIDIyLjY2OTggMTE3LjYwMyAyMi42MjUxIDExNy40NTQgMjIuNTI3OUMxMTcuMzEzIDIyLjQzNTYgMTE3LjE1IDIyLjQwNzYgMTE2Ljk5IDIyLjM2NTNDMTE2LjkzIDIyLjM0ODkgMTE2Ljg4OSAyMi4zNjc5IDExNi44NDMgMjIuNDAxMkMxMTYuODE4IDIyLjQxOTUgMTE2Ljc2OSAyMi40MzUzIDExNi43NDcgMjIuNDIzNEMxMTYuNjM0IDIyLjM2MzEgMTE2LjUyMiAyMi4zMDA4IDExNi40MiAyMi4yMjYyQzExNi4zIDIyLjEzNzkgMTE2LjE3NiAyMi4wNyAxMTYuMDI1IDIyLjA1MTRDMTE1Ljk0OCAyMi4wNDIyIDExNS44OTMgMjEuOTkwNiAxMTUuODUxIDIxLjkyOThDMTE1LjcwNyAyMS43MjI4IDExNS41NTkgMjEuNTE3NCAxMTUuNDIzIDIxLjMwNDhDMTE1LjMyMyAyMS4xNDc4IDExNS4xOSAyMS4wMjggMTE1LjAzOCAyMC45MjY1QzExNC45OCAyMC44ODc3IDExNC45MDIgMjAuODc3NiAxMTQuODM1IDIwLjg0OTNDMTE0LjcwOCAyMC43OTQ5IDExNC42NTUgMjAuNjg3IDExNC42ODQgMjAuNTQwM0MxMTQuNjk0IDIwLjQ4NzQgMTE0LjcxNCAyMC40MzYxIDExNC43MjcgMjAuMzg0QzExNC43MzIgMjAuMzY2OCAxMTQuNzM2IDIwLjM0NDQgMTE0LjcyOCAyMC4zMzA2QzExNC42NDEgMjAuMTc2NSAxMTQuNTg1IDIwLjAwMSAxMTQuNDMyIDE5Ljg4OTlDMTE0LjM5NiAxOS44NjQgMTE0LjM1MiAxOS44NzQ4IDExNC4zNDMgMTkuOTE4MkMxMTQuMzI3IDE5Ljk4NjkgMTE0LjMyNyAyMC4wNTk2IDExNC4zMiAyMC4xMzFMMTE0LjMyOCAyMC4xMjM2QzExNC4yNzcgMjAuMTA1OSAxMTQuMjI1IDIwLjA4OTMgMTE0LjE3NCAyMC4wN0MxMTQuMDk1IDIwLjAzOTggMTE0LjAzMyAyMC4wNjIgMTEzLjk4NCAyMC4xMjZDMTEzLjk1MiAyMC4xNjggMTEzLjkyMiAyMC4xNjcyIDExMy44OTkgMjAuMTIxMkMxMTMuNzggMTkuODc5MyAxMTMuNjc0IDE5LjYzNjkgMTEzLjY1NCAxOS4zNTk4QzExMy42NDMgMTkuMjAzMSAxMTMuNTc2IDE5LjA0ODkgMTEzLjUyNCAxOC44OTY3QzExMy40OTQgMTguODA4NiAxMTMuNDI0IDE4Ljc0OTQgMTEzLjMzMiAxOC43MTlMMTEzLjM0IDE4LjcyNjdDMTEzLjI5NiAxOC42NzAxIDExMy4yNTggMTguNjA3NyAxMTMuMjA2IDE4LjU1ODVDMTEzLjA1NiAxOC40MTM2IDExMy4wNTEgMTguMzc5IDExMy4xODEgMTguMjIyNUMxMTMuMjE2IDE4LjE4MTMgMTEzLjI2IDE4LjE0NzQgMTEzLjI5MSAxOC4xMDQxQzExMy4zMSAxOC4wNzY2IDExMy4zMjcgMTguMDM0IDExMy4zMiAxOC4wMDQ0QzExMy4yNzYgMTcuODMyMyAxMTMuMjI2IDE3LjY2MSAxMTMuMTczIDE3LjQ5MTJDMTEzLjE2MyAxNy40NiAxMTMuMTI1IDE3LjQzODQgMTEzLjEwMyAxNy40MTAzQzExMy4wNjkgMTcuMzY3MiAxMTMuMDQxIDE3LjMxNTIgMTEzLjA2IDE3LjI2MjhDMTEzLjExOCAxNy4xMDM5IDExMy4xMiAxNi45NDYxIDExMy4wNjggMTYuNzg3MkMxMTMuMDM0IDE2LjY4MiAxMTMuMTEzIDE2LjU3ODEgMTEzLjA2MyAxNi40N0MxMTMuMDI0IDE2LjM4OTYgMTEyLjk5OSAxNi4zMDA4IDExMi45ODUgMTYuMjEzM0MxMTIuOTU1IDE2LjAyIDExMi45MjcgMTUuODI1NCAxMTIuOTEzIDE1LjYzMDNDMTEyLjkwMSAxNS40Njk4IDExMi45MTMgMTUuMzA3NSAxMTIuOTEyIDE1LjE0NkMxMTIuOTEgMTQuOTIxOCAxMTIuOTcyIDE0LjcyMDkgMTEzLjEyOSAxNC41NTM4QzExMy4xNjYgMTQuNTE0MSAxMTMuMjAyIDE0LjQ3MzQgMTEzLjI0IDE0LjQzNDNDMTEzLjI2OSAxNC40MDMzIDExMy4yODUgMTQuMzY1IDExMy4yNjEgMTQuMzQ2NUMxMTMuMjM3IDE0LjMyODUgMTEzLjE5OCAxNC4zMjg1IDExMy4xNjUgMTQuMzI1NkMxMTMuMTQ4IDE0LjMyNDMgMTEzLjEzIDE0LjMzNjcgMTEzLjExMiAxNC4zMzg2QzExMy4wMzMgMTQuMzQ3MyAxMTIuOTgzIDE0LjMyNzUgMTEyLjk3MiAxNC4yODgxQzExMi45NjIgMTQuMjUwNSAxMTIuOTY5IDE0LjIxOTEgMTEzLjAwMSAxNC4xOTIxQzExMy4wMTUgMTQuMTgwNSAxMTMuMDMxIDE0LjE3MDQgMTEzLjA0MiAxNC4xNTY0QzExMy4wNzYgMTQuMTEyMyAxMTMuMTAzIDE0LjA1NTIgMTEzLjA1OCAxNC4wMTM0QzExMi44OTEgMTMuODU3OSAxMTIuODg4IDEzLjY2NDQgMTEyLjkyIDEzLjQ2NTZDMTEyLjkzNCAxMy4zNzg0IDExMi45NzQgMTMuMjk1MyAxMTMuMDAzIDEzLjIxMDVDMTEzLjA1MyAxMy4yMTIzIDExMy4xMDQgMTMuMjEyNiAxMTMuMTQyIDEzLjE3NEMxMTMuMTY2IDEzLjE0ODkgMTEzLjE1OSAxMy4xMTkzIDExMy4xMzEgMTMuMDkxNUMxMTMuMTAzIDEzLjA2NDMgMTEzLjA3MiAxMy4wNTYzIDExMy4wNDYgMTMuMDc5MUMxMTMuMDA1IDEzLjExNDUgMTEzLjAwNSAxMy4xNjUgMTEzLjAwNyAxMy4yMTQyQzExMi44OTggMTMuMDg0OSAxMTIuODgyIDEzLjAxOTMgMTEyLjk2OCAxMi45Mzg0QzExMy4xNzggMTIuNzQxMiAxMTMuMjc3IDEyLjQ5OTggMTEzLjI4MiAxMi4yMjAxQzExMy4yODQgMTIuMDkwNiAxMTMuMzI2IDExLjk3MTQgMTEzLjM3MSAxMS44NTY2QzExMy40NTIgMTEuNjQ3NSAxMTMuNDgxIDExLjQ0MDIgMTEzLjQxOSAxMS4yMjQ1QzExMy4zOTYgMTEuMTQ2MiAxMTMuNDA4IDExLjA4NjggMTEzLjQ4MSAxMS4wNDE4QzExMy41OTMgMTAuOTcyMyAxMTMuNjcgMTAuODc1NSAxMTMuNzEzIDEwLjc1MTNDMTEzLjc1NCAxMC42MzM2IDExMy43OTkgMTAuNTE3MyAxMTMuODQ1IDEwLjQwMDdDMTEzLjg2MSAxMC4zNTc5IDExMy45MjIgMTAuMzUyMyAxMTMuOTgyIDEwLjM4NTZDMTE0LjA2NiAxMC40MzMyIDExNC4wNjcgMTAuNDMzNSAxMTQuMTAzIDEwLjM4MzJDMTE0LjEyNCAxMC4zNTM5IDExNC4xMzkgMTAuMzE5MyAxMTQuMTY0IDEwLjI5NDJDMTE0LjI0NyAxMC4yMTE0IDExNC4yODcgMTAuMTI0NyAxMTQuMjQzIDEwLjAwNDlDMTE0LjIyNiA5Ljk1OTQ2IDExNC4yNTYgOS44OTk0NSAxMTQuMjU2IDkuODQ2MzFDMTE0LjI1NiA5LjgwNjY1IDExNC4yMjYgOS43ODYyOSAxMTQuMTg3IDkuNzkzNDNDMTE0LjE3MiA5Ljc5NjM0IDExNC4xNTIgOS44MTAwOCAxMTQuMTQ4IDkuODIzMDRDMTE0LjEyNyA5Ljg5MDQ1IDExNC4xMTcgOS45NjE4NCAxMTQuMDkyIDEwLjAyNzRDMTE0LjA3NCAxMC4wNzQ3IDExNC4wNDMgMTAuMTIyIDExNC4wMDYgMTAuMTU1NkMxMTMuOTg0IDEwLjE3NDcgMTEzLjkzNiAxMC4xNzQ3IDExMy45MDMgMTAuMTY3OEMxMTMuODY0IDEwLjE1OTkgMTEzLjg1IDEwLjEyNSAxMTMuODU2IDEwLjA4NzdDMTEzLjg5NyA5LjgzNTk5IDExNC4wMjUgOS42MTU1IDExNC4xMTkgOS4zODI1OUMxMTQuMTMgOS4zNTUzNiAxMTQuMTUxIDkuMzMyMzYgMTE0LjE2OCA5LjMwNzI0QzExNC4xNzcgOS4zMjIwNSAxMTQuMTg4IDkuMzM2MzIgMTE0LjE5NiA5LjM1MTkyQzExNC4yMTEgOS4zODM2NSAxMTQuMjIxIDkuNDE4ODEgMTE0LjI0MSA5LjQ0Nzg5QzExNC4yNjMgOS40ODE0NyAxMTQuMzAzIDkuNDg0MTEgMTE0LjMzMiA5LjQ1MDAxQzExNC4zNjcgOS40MDk1NiAxMTQuNDAyIDkuMzY0MzUgMTE0LjQxOSA5LjMxNTQ0QzExNC40OTEgOS4xMTIxMyAxMTQuNTU4IDguOTA3MjQgMTE0LjYyNCA4LjcwMjA5QzExNC42NjQgOC41NzczIDExNC42NTcgOC40NTQ2NCAxMTQuNTkgOC4zMzc1MkMxMTQuNTczIDguMzA2NTkgMTE0LjU2MiA4LjI3MTQyIDExNC41NDggOC4yMzgzOEwxMTQuNTQxIDguMjQ1NzhDMTE0LjYyNSA4LjIwNjY1IDExNC42OTMgOC4xNDkyOCAxMTQuNzM4IDguMDY4NjVDMTE0Ljc5OSA3Ljk1OTQ2IDExNC44NTggNy44NDkyMSAxMTQuOTE1IDcuNzM3NjVDMTE1LjAxMiA3LjU0NTcxIDExNS4xMjUgNy4zNjMwMyAxMTUuMjYxIDcuMTk1OTRDMTE1LjM4NyA3LjA0MDc1IDExNS40OSA2Ljg3OTIyIDExNS41MzUgNi42ODEyMUMxMTUuNTU0IDYuNTk2MzQgMTE1LjYwMSA2LjUxNjc2IDExNS42NCA2LjQzNjY2QzExNS43MDIgNi4zMDUgMTE1Ljc4NyA2LjE4ODk0IDExNS45MTcgNi4xMTU3MUMxMTYuMDcyIDYuMDI4NzMgMTE2LjE2NCA1Ljg0OTQ4IDExNi4zNiA1LjgyMzMxQzExNi40OTkgNS43MTE0OCAxMTYuNjM4IDUuNTk5OTEgMTE2Ljc3NyA1LjQ4ODA4QzExNi43MDcgNS40MDI0MiAxMTYuNzI2IDUuMzQ1ODUgMTE2LjgyNSA1LjI5NDAzQzExNi44ODcgNS4yNjE1MSAxMTYuOTM0IDUuMjAxNSAxMTYuOTkgNS4xNTU3NkMxMTcuMDMxIDUuMTIxMTMgMTE3LjA3MyA1LjA4NjIzIDExNy4xMTkgNS4wNTc2OEMxMTcuMjQxIDQuOTgxNTQgMTE3LjM2NiA0LjkwNzc3IDExNy41MTMgNC44ODc2OEMxMTcuNTE5IDQuOTAyMjIgMTE3LjUyMSA0LjkxODYyIDExNy41MyA0LjkzMDI1QzExNy41MzYgNC45Mzc2NSAxMTcuNTUxIDQuOTM3OTIgMTE3LjU2MiA0Ljk0MTA5QzExNy41NjYgNC45MTQxMiAxMTcuNTQ4IDQuODk4NTIgMTE3LjUwNyA0Ljg5NDAzQzExNy42MzUgNC43NDcwNCAxMTcuODA0IDQuNjk0NDIgMTE3Ljk5MyA0LjY4NTQ0QzExOC4xMTQgNC42Nzk2MiAxMTguMTkzIDQuNjA3OTcgMTE4LjI2NyA0LjUyNjAyQzExOC4zMTggNC40NzAyMyAxMTguMzQ3IDQuNDA4NjQgMTE4LjMyOSA0LjMzMDY1QzExOC4zMTUgNC4yNzYxOCAxMTguMzIgNC4yMjI1MSAxMTguMzYyIDQuMTc5OTVDMTE4LjQyNSA0LjExNTQ0IDExOC40OSA0LjA1MiAxMTguNTU1IDMuOTg5NkMxMTguNTkyIDMuOTU0MTggMTE4LjY1MSAzLjk1NDcgMTE4LjcwNiAzLjk5MTQ1QzExOC43NTEgNC4wMjE1OSAxMTguNzkyIDQuMDU4NiAxMTguODM3IDQuMDg4NzRDMTE4Ljg4NiA0LjEyMTUzIDExOC45NDYgNC4xMjY4MSAxMTguOTkyIDQuMDk2OTRDMTE5LjEzIDQuMDA1NzMgMTE5LjI3MyAzLjkzNjQ2IDExOS40NDQgMy45MjE5MkMxMTkuNTE4IDMuOTE2MSAxMTkuNTY5IDMuODUwMDEgMTE5LjU4MiAzLjc3MjI4QzExOS41OTcgMy42ODM3MiAxMTkuNjA4IDMuNTk0MzYgMTE5LjYyMiAzLjUwNThDMTE5LjYyOSAzLjQ2MDU5IDExOS42OTUgMy40MDY5MiAxMTkuNzQxIDMuNDE0ODVDMTE5Ljk0NCAzLjQ1MTg2IDEyMC4xMzkgMy40MTE5NCAxMjAuMzM0IDMuMzYxNzFDMTIwLjQwOSAzLjM0MjE1IDEyMC40NjUgMy4yOTQ4MyAxMjAuNDk4IDMuMjI5NTJDMTIwLjU0NyAzLjEzMzU2IDEyMC41ODMgMy4wMzE1MSAxMjAuNjMgMi45MzQ3NEMxMjAuNjQ2IDIuOTAyNzYgMTIwLjY5NSAyLjg5NjE0IDEyMC43MjEgMi45MjY1NUMxMjAuODM2IDMuMDU4NDcgMTIwLjk5NiAyLjk4OTIxIDEyMS4xMzIgMy4wMjA5M0MxMjEuMTU3IDMuMDI3MDEgMTIxLjIwNiAyLjk5OTUyIDEyMS4yMjIgMi45NzM4N0MxMjEuMzE2IDIuODIwMjcgMTIxLjQwMyAyLjY2MjQ0IDEyMS40OTUgMi41MDcyNUMxMjEuNTE2IDIuNDcxMjkgMTIxLjU1NSAyLjQ2NzA3IDEyMS41OTEgMi40OTM3N0MxMjEuNjc5IDIuNTU5NiAxMjEuNzY3IDIuNjIwNjcgMTIxLjg4MyAyLjYzMDcxQzEyMS45NTYgMi42MzcwNiAxMjIuMDM1IDIuNjQyMDggMTIyLjA5NyAyLjY3MzgxQzEyMi4yMzYgMi43NDU3MiAxMjIuMzQ0IDIuNjc3MjQgMTIyLjQ1NyAyLjYxOTYxQzEyMi41MzggMi41Nzg5IDEyMi41NTMgMi41MDk4OSAxMjIuNSAyLjQ0NjE4QzEyMi40NjUgMi40MDUyIDEyMi40MjEgMi4zNzAwNCAxMjIuMzk1IDIuMzI0ODNDMTIyLjM3NSAyLjI4OTY3IDEyMi4zOTkgMi4yNTM5OCAxMjIuNDM4IDIuMjM1NDdDMTIyLjQ1NCAyLjIyODA3IDEyMi40NyAyLjIxOTM0IDEyMi40ODcgMi4yMTYxN0MxMjIuNTgyIDIuMTk4NDYgMTIyLjY2NCAyLjI1MzcxIDEyMi43NTMgMi4yNjMyM0MxMjIuODIzIDIuMjcwNjMgMTIyLjg5NiAyLjI0Njg0IDEyMi45NjcgMi4yNDk0OUMxMjMgMi4yNTA1NCAxMjMuMDMgMi4yODIgMTIzLjA2MyAyLjI5ODM5QzEyMy4xNzMgMi4zNTQ5NyAxMjMuMTczIDIuMzUzNjUgMTIzLjI0IDIuMjczNTRDMTIzLjMyMiAyLjE3NzA0IDEyMy40MDMgMi4wNzk3NiAxMjMuNDkgMS45ODcyMkMxMjMuNTQyIDEuOTMxMTggMTIzLjYxMSAxLjkxNzY5IDEyMy42ODkgMS45Mzc3OUMxMjMuNzYgMS45NTU3NiAxMjMuODMzIDEuOTY2ODcgMTIzLjkwNSAxLjk3NDUzQzEyMy45ODMgMS45ODIyIDEyNC4wNDEgMS45NDQ5MiAxMjQuMDk5IDEuODk0OTZDMTI0LjE4OSAxLjgxNzIzIDEyNC4yMDQgMS44MjA0IDEyNC4yNzIgMS44ODgwOEMxMjQuMzEgMS45MjYxNSAxMjQuMzM4IDEuOTc4NSAxMjQuMzgzIDIuMDAzNjFDMTI0LjQzMyAyLjAzMDg0IDEyNC40ODkgMS45OTkzOSAxMjQuNTM1IDEuOTcwODNDMTI0LjU5OSAxLjkzMDM4IDEyNC41NzMgMS44ODg2MSAxMjQuNTMxIDEuODQ2ODRDMTI0LjUyMSAxLjgzNjc5IDEyNC41MTkgMS44MDEzNyAxMjQuNTIgMS44MDExMUMxMjQuNTkgMS43ODI2IDEyNC42NjEgMS43NjcyNyAxMjQuNzMxIDEuNzQ5ODJDMTI0Ljc4MyAxLjczNjg2IDEyNC44MDQgMS43MDE5NiAxMjQuODAzIDEuNjI4NzNDMTI0LjgwMyAxLjYxMTAyIDEyNC43OTcgMS41OTMzIDEyNC43OTQgMS41NzU1OUMxMjQuNzg5IDEuNTM0MzUgMTI0LjgwNCAxLjQ5ODY2IDEyNC44NDQgMS40ODgzNUMxMjQuODc2IDEuNDgwMTUgMTI0LjkxNSAxLjQ4MDQyIDEyNC45NDUgMS40OTIwNUMxMjQuOTc3IDEuNTA0NDcgMTI1LjAxOCAxLjUyOTg1IDEyNS4wMjcgMS41NTgxNEMxMjUuMDczIDEuNzA5NjMgMTI1LjIyMiAxLjc2NDYyIDEyNS4zMTggMS44NjgyNkMxMjUuMjY0IDEuODg1NDQgMTI1LjI1MiAxLjkwMTU2IDEyNS4yODUgMS45MDU1M0MxMjUuMjkxIDEuOTA2NTkgMTI1LjMwMiAxLjg3NjcxIDEyNS4zMTEgMS44NjExMkMxMjUuNDA1IDEuODIwNCAxMjUuNDE4IDEuNzI4NCAxMjUuNDUxIDEuNjQ3NzdDMTI1LjQ2OCAxLjYwNjUyIDEyNS41MDEgMS42MDU3MyAxMjUuNTQzIDEuNjE3ODlDMTI1LjY0MyAxLjY0NjcxIDEyNS43MTkgMS42MDk0MyAxMjUuNzYzIDEuNTE4MjJDMTI1LjgxNSAxLjQwNzQ1IDEyNS44NiAxLjI5MjcxIDEyNS45MTUgMS4xODI3M0MxMjUuOTMgMS4xNTA3NCAxMjUuOTg0IDEuMTQxMjIgMTI2LjAwNSAxLjE2ODcyQzEyNi4wNDcgMS4yMjM5NyAxMjYuMDcxIDEuMjkxNjUgMTI2LjEwNiAxLjM1MjE5QzEyNi4xNzQgMS40Njg1MiAxMjYuMjY0IDEuNTM5MzcgMTI2LjQxNCAxLjUxMTYxQzEyNi40ODIgMS40OTk0NSAxMjYuNTA4IDEuNTMyNSAxMjYuNTE3IDEuNjAxNUMxMjYuNTI0IDEuNjU0MTEgMTI2LjUyNCAxLjcwNzI1IDEyNi41MjcgMS43NjAzOUMxMjYuNTE0IDEuNzY1NDEgMTI2LjQ5OSAxLjc2ODU5IDEyNi40ODggMS43NzY1MkMxMjYuNDgxIDEuNzgxODEgMTI2LjQ3OSAxLjc5Mzk2IDEyNi40NzUgMS44MDI5NUMxMjYuNDg5IDEuNzg2MyAxMjYuNTA0IDEuNzY5MzggMTI2LjUxOSAxLjc1MjcyQzEyNi41NSAxLjczNTAxIDEyNi41ODYgMS43MjI1OCAxMjYuNjEzIDEuNjk5MzJDMTI2Ljc0NiAxLjU4MTk0IDEyNi43NTMgMS40Nzg4MyAxMjYuNjM3IDEuMzMxMzFDMTI2LjYxNSAxLjMwMzI4IDEyNi41ODkgMS4yNzczOCAxMjYuNTcgMS4yNDc1QzEyNi41NDMgMS4yMDQ5NCAxMjYuNTg3IDEuMTE2MTEgMTI2LjY1OCAxLjA2ODc4QzEyNi43MDkgMS4wMzQxNSAxMjYuNzYyIDEuMDM3NTkgMTI2LjgwOCAxLjA3OTM2QzEyNi44NiAxLjEyNjk1IDEyNi45MTIgMS4xNzQ1MyAxMjYuOTY1IDEuMjIxODZMMTI2Ljk1NyAxLjIxNDE5QzEyNi45ODMgMS4yMzgyNSAxMjcuMDA3IDEuMjgxODcgMTI3LjAzNSAxLjI4MzE5QzEyNy4xNTkgMS4yODkyNyAxMjcuMjgzIDEuMjgxMDggMTI3LjM3NSAxLjM5MTg1QzEyNy4zOSAxLjQxMDA5IDEyNy40NDggMS40MTIyMSAxMjcuNDc1IDEuMzk5NzhDMTI3LjU1OCAxLjM2MzAzIDEyNy42MzcgMS4zMTgzNiAxMjcuNzE0IDEuMjcwNUMxMjcuNzQzIDEuMjUyNTMgMTI3Ljc3OSAxLjIxNjMgMTI3Ljc3OSAxLjE4ODgxQzEyNy43NzcgMS4wNTUzIDEyNy44NjEgMS4wMDgyNCAxMjcuOTcxIDAuOTY5OTA2QzEyOC4wMTkgMC45NTMyNTEgMTI4LjA1NyAwLjkwNDg3IDEyOC4wOTkgMC44NzAyMzdDMTI4LjE3MiAwLjgwODYzOCAxMjguMjE2IDAuODI5Nzg3IDEyOC4yNzYgMC45MTU3MDlDMTI4LjMyNiAwLjk4OTIwNSAxMjguMzY0IDEuMDcxNjkgMTI4LjQxNyAxLjE0NDEzQzEyOC40MzQgMS4xNjc2NiAxMjguNDgyIDEuMTg3NDkgMTI4LjUxMSAxLjE4MTQxQzEyOC41OTkgMS4xNjIxMSAxMjguNjg0IDEuMTMwMTIgMTI4Ljc3IDEuMTAyMzZDMTI4LjgzIDEuMDgzMDYgMTI4LjgzIDEuMDgyNTMgMTI4LjgwMSAwLjk2MzAzMkMxMjguNzkyIDAuOTI3NjA2IDEyOC44MDcgMC44OTk4NDcgMTI4Ljg0MSAwLjg3NDIwM0MxMjguODc1IDAuODQ4Mjk0IDEyOC45MDggMC44NDMwMDcgMTI4Ljk0MSAwLjg3MDIzN0MxMjguOTY4IDAuODkzMjM4IDEyOC45OTEgMC45MjE3OSAxMjkuMDE1IDAuOTQ4MjI3QzEyOS4wOTMgMS4wMzYgMTI5LjA5OSAxLjA0NDQ2IDEyOS4xNzQgMC45ODU3NzJDMTI5LjI1OCAwLjkxODYyMSAxMjkuMzM2IDAuOTI0NDM0IDEyOS40MjQgMC45Njg4NDlDMTI5LjQ5IDEuMDAxOSAxMjkuNTUgMS4wMzg5MSAxMjkuNTk2IDEuMDk4MzlDMTI5LjY1NSAxLjE3NTU5IDEyOS43MTcgMS4xNDMwNyAxMjkuNzggMS4wOTk0NUMxMjkuODA5IDEuMDc4ODMgMTI5Ljg0NiAxLjA0MzQgMTI5Ljg3MiAxLjA0ODY5QzEyOS45ODEgMS4wNzA2MyAxMzAuMDM5IDEuMDAzNzUgMTMwLjEwNyAwLjk0NTA1N0MxMzAuMTUgMC45MDgzMDkgMTMwLjIwNyAwLjg5NDgyNiAxMzAuMjYxIDAuOTE0OTE4QzEzMC4zODggMC45NjIyNDEgMTMwLjQ3MiAwLjkzNjMzMSAxMzAuNDk5IDAuNzkzODMyQzEzMC41MDEgMC43NzgyMzQgMTMwLjUxOCAwLjc2NTAxNyAxMzAuNTI4IDAuNzUwNzQxQzEzMC41NiAwLjcwNjA2MSAxMzAuNjM4IDAuNzE1ODQyIDEzMC42NjIgMC43NzA1NjhDMTMwLjY4MyAwLjgxOTQ3OCAxMzAuNjk1IDAuODcyMzUyIDEzMC43MTYgMC45MjE1MjZDMTMwLjczNSAwLjk2NTE0OCAxMzAuODEgMS4wMDY5MiAxMzAuODUgMC45OTg5ODhDMTMwLjkzOCAwLjk4MTI3NSAxMzEuMDI1IDAuOTQ1ODQ5IDEzMS4xMTQgMC45NDY2NDJDMTMxLjIxOCAwLjk0NzQzNSAxMzEuMjkgMC45MTQxMjMgMTMxLjM0IDAuODMwODQ1QzEzMS40MTUgMC43MDU3OTUgMTMxLjUyNyAwLjY3MDEwNiAxMzEuNjY2IDAuNjg5MTQxQzEzMS43MzkgMC42OTkxODcgMTMxLjgxMSAwLjcwODcwNCAxMzEuODgzIDAuNzE2ODk5QzEzMS45NTQgMC43MjQ4MyAxMzEuOTc3IDAuNzEzNzI4IDEzMi4wMDcgMC42NDE4MThDMTMyLjAzNCAwLjU3NTcyNCAxMzIuMDQ4IDAuNTAzNTUyIDEzMi4xMDcgMC40NTM1ODVDMTMyLjE0IDAuNDI0NzY4IDEzMi4xNzkgMC40MTkyMTYgMTMyLjE5NiAwLjQ1MDE0OEMxMzIuMjMgMC41MTI4MDUgMTMyLjI1IDAuNTgyMDY5IDEzMi4yODMgMC42NDUyNTVDMTMyLjMyMSAwLjcxNzk1OCAxMzIuNDExIDAuNzU1NzYyIDEzMi40NjIgMC43MTI5MzRDMTMyLjU4MiAwLjYxMTQxNCAxMzIuNzE4IDAuNTcwOTY3IDEzMi44NjggMC42MDIxNjNDMTMzLjAzNiAwLjYzNzMyNSAxMzMuMjAzIDAuNjIyMjU2IDEzMy4zNTIgMC41NjAxMjhDMTMzLjQ4NCAwLjUwNDM0NSAxMzMuNjQ1IDAuNTYzMDM1IDEzMy43NiAwLjQ0MDM2NUMxMzMuODA3IDAuMzg5MzQxIDEzMy44NTYgMC40MjYwODkgMTMzLjg1NiAwLjUwNzUxNkMxMzMuODU2IDAuNTQxODg1IDEzMy44NDggMC41NzY3OCAxMzMuODUxIDAuNjEwMzU2QzEzMy44NTIgMC42MjExOTUgMTMzLjg4MSAwLjY0MDc2IDEzMy44OTIgMC42MzczMjRDMTMzLjk0MiAwLjYyMDQwNCAxMzMuOTk2IDAuNjA0Mjc5IDEzNC4wMzkgMC41NzQ5MzNDMTM0LjEzMiAwLjUxMjAxMiAxMzQuMjMzIDAuNDc2MDU3IDEzNC4zNDMgMC40NjQ0MjRDMTM0LjQ4OCAwLjQ0OTM1NSAxMzQuNjMyIDAuNDMxOTAzIDEzNC43NzggMC40MjI5MTRDMTM0LjgwNyAwLjQyMTA2MyAxMzQuODQzIDAuNDQ4Mjk3IDEzNC44NyAwLjQ2ODkxOEMxMzQuOTE3IDAuNTA1MTM4IDEzNC45NjYgMC41MTgzNTQgMTM1LjAxNiAwLjQ4NTA0MkMxMzUuMTA3IDAuNDI1NTU4IDEzNS4xOSAwLjM3NzE3NyAxMzUuMzE1IDAuMzkzODMzQzEzNS40OTggMC40MTgxNTUgMTM1LjY3NyAwLjM2NzY2MSAxMzUuODM2IDAuMjY5ODQyQzEzNS45MjggMC4yMTMwMDIgMTM2LjAxNiAwLjE1MDM0NiAxMzYuMTA3IDAuMDkxMTI2QzEzNi4xNTUgMC4wNTk0MDEgMTM2LjIxOCAwLjA2NTIxNzkgMTM2LjI1NiAwLjEwODMxMUMxMzYuMjkyIDAuMTQ4MjMyIDEzNi4zMjIgMC4xOTM5NjggMTM2LjM1OCAwLjIzMzYyNUMxMzYuNDE2IDAuMjk1NDg4IDEzNi40NzIgMC4zMDI2MjcgMTM2LjU1MiAwLjI1OTI2OUMxMzYuNiAwLjIzMzYyNSAxMzYuNjQyIDAuMTk1NTUxIDEzNi42OTIgMC4xNzY3ODFDMTM2LjgxOCAwLjEyOTcyMiAxMzYuOTQ2IDAuMTIzOTA2IDEzNy4wNSAwLjIyMzU3NkMxMzcuMTEyIDAuMjgzMzI1IDEzNy4xNjQgMC4zMDUyNjkgMTM3LjIzNCAwLjI0MzY2OUMxMzcuMjQ4IDAuMjMxNzcyIDEzNy4yNjMgMC4yMjE3MjcgMTM3LjI3OSAwLjIxMzAwM0MxMzcuMzQ3IDAuMTc1NDYxIDEzNy40MTUgMC4xNjMzIDEzNy40NzkgMC4yMjA0MDVDMTM3LjUwNiAwLjI0NDQ2MyAxMzcuNTMxIDAuMjcxMTY0IDEzNy41NjEgMC4yOTIwNUMxMzcuNzE1IDAuNDAwMTc5IDEzNy44OTEgMC4zNTczNTEgMTM3Ljk2NyAwLjE5MjM4MUMxMzcuOTkgMC4xNDQyNjQgMTM3Ljk5OCAwLjA4ODQ3OTggMTM4LjAyNiAwLjA0NDA2NDhDMTM4LjA0MiAwLjAyMDAwNjcgMTM4LjA4MyAwLjAwOTQzMTU2IDEzOC4xMTYgMC4wMDAxNzg0MzNDMTM4LjEyNSAtMC4wMDIyMDA5NCAxMzguMTQ5IDAuMDE5NzQzNSAxMzguMTU1IDAuMDM0NTQ4NUMxMzguMjM4IDAuMjYzNDk3IDEzOC40MjMgMC4zMDkyMzQgMTM4LjYzNyAwLjI4NTcwNEMxMzguNzI4IDAuMjc1NjU4IDEzOC44MiAwLjI1MDU0MiAxMzguOTA0IDAuMjk0MTY0QzEzOS4wNCAwLjM2NDIyMyAxMzkuMTgxIDAuMzcwNTY5IDEzOS4zMjkgMC4zNTQxNzhDMTM5LjM4MyAwLjM0ODA5NyAxMzkuNDM4IDAuMzU2Mjk1IDEzOS40OTMgMC4zNTc4ODFMMTM5LjQ4NSAwLjM1MDQ3OUMxMzkuNTA4IDAuNDAzMzU0IDEzOS41NDkgMC40Mzc3MTkgMTM5LjYwNiAwLjQzODI0OEMxMzkuNjM5IDAuNDM4NTEyIDEzOS42NzggMC40MjUwMjkgMTM5LjcwNSAwLjQwNTIwMUMxMzkuNzYyIDAuMzYyMTA3IDEzOS44MTMgMC4zMTEwODQgMTM5Ljg2NiAwLjI2MzQ5N0MxMzkuOTc1IDAuMTY3MjY0IDE0MC4wOSAwLjE2MDM5MiAxNDAuMjEzIDAuMjM3NTlDMTQwLjMwNCAwLjI5NTIyNCAxNDAuMzk1IDAuMzUxMjY5IDE0MC40ODcgMC40MDc1ODFDMTQwLjU0NiAwLjQ0NDA2NCAxNDAuNjI4IDAuNDMxMzc3IDE0MC42ODMgMC4zNzM3NDNDMTQwLjczMiAwLjMyMjE5IDE0MC43NzQgMC4yNjI5NjggMTQwLjgyNyAwLjIxNTExNkMxNDAuODUxIDAuMTkzNDM4IDE0MC44OTUgMC4xNzU3MjQgMTQwLjkyNSAwLjE4MjA2OUMxNDEuMDY4IDAuMjExOTQ0IDE0MS4yMDcgMC4yMjA2NjcgMTQxLjM1MiAwLjE4NDE4M0MxNDEuMzk0IDAuMTczODczIDE0MS40NTYgMC4yMDg1MDcgMTQxLjQ5OCAwLjIzNzg1MkMxNDEuNjc0IDAuMzYxMDUxIDE0MS44ODcgMC40Mjg5OTYgMTQyLjA0NCAwLjU4MjU5OEMxNDIuMDY5IDAuNjA3NDQ5IDE0Mi4xMDIgMC41OTE4NSAxNDIuMTMgMC41NTgwMUMxNDIuMTY5IDAuNTEzMDY2IDE0Mi4yMjkgMC41MjM5MDcgMTQyLjI3NyAwLjUwNTEzNkMxNDIuMzczIDAuNDY3MzMgMTQyLjQzOSAwLjM1NTc2NCAxNDIuNTY2IDAuMzk0NjI3QzE0Mi42NiAwLjQyMzcwOSAxNDIuNjk0IDAuNTE0Mzg4IDE0Mi43NTUgMC41NzY3ODFDMTQyLjc3OSAwLjYwMDU3NCAxNDIuODE4IDAuNjMwNzE0IDE0Mi44NDUgMC42MjY0ODRDMTQzLjAyMyAwLjU5ODk4OSAxNDMuMTk5IDAuNTY1NjggMTQzLjM3NSAwLjUyNzA4MUMxNDMuNDA0IDAuNTIwNzM2IDE0My40MjYgMC40ODA4MTIgMTQzLjQ1MSAwLjQ1NjQ4OUwxNDMuNDQ0IDAuNDY0Njg3QzE0My41OTIgMC40NTk2NjQgMTQzLjcyNSAwLjQ4NjYyOSAxNDMuODM3IDAuNTk1MDIzQzE0My45MjYgMC42ODA2OCAxNDQuMDIyIDAuNzYzMTY1IDE0NC4xMjcgMC44MjY4NzlDMTQ0LjMyNiAwLjk0NzQzNCAxNDQuNTMzIDAuOTI3ODc0IDE0NC43MzQgMC44MjA1MzhDMTQ0Ljc0OSAwLjgxMjYwNyAxNDQuNzU4IDAuNzk0ODkxIDE0NC43NyAwLjc4MTQwOEwxNDQuNzYzIDAuNzg5MDc2QzE0NC45NTIgMC44Mzk1NzIgMTQ1LjE0MyAwLjg4NzQyMiAxNDUuMzMxIDAuOTQyMTQ4QzE0NS4zNiAwLjk1MDYwOCAxNDUuMzg2IDAuOTg3MzU4IDE0NS40MDIgMS4wMTY5N0MxNDUuNDI2IDEuMDYzMjMgMTQ1LjQzNyAxLjExNjYzIDE0NS40NiAxLjE2NDIyQzE0NS41MjYgMS4yOTc3MyAxNDUuNjEyIDEuMzI1MjMgMTQ1Ljc2OSAxLjI2NjAxQzE0NS44MDIgMS4yNTMzMiAxNDUuODM0IDEuMjM2OTMgMTQ1Ljg2NyAxLjIyMjM5TDE0NS44NTkgMS4yMTQ0NUMxNDUuODgzIDEuMjY1NzQgMTQ1LjkyNSAxLjMwMDExIDE0NS45OCAxLjMxMDY5QzE0Ni4wODkgMS4zMzE4NCAxNDYuMTggMS4zNzY3OCAxNDYuMjY2IDEuNDUwNTRDMTQ2LjQ4NiAxLjYzNzcyIDE0Ni43NDIgMS42OTI0NSAxNDcuMDI0IDEuNjE1NzhDMTQ3LjA3NiAxLjYwMTUgMTQ3LjEyOCAxLjU3OTAzIDE0Ny4xODEgMS41NzE4OUMxNDcuMjg4IDEuNTU3NjEgMTQ3LjM5NyAxLjU0ODYyIDE0Ny41MDEgMS41OTc4QzE0Ny41NjYgMS42Mjg3MyAxNDcuNjM3IDEuNjQ5ODggMTQ3LjY5OSAxLjY4NjFDMTQ3Ljg0OSAxLjc3NDQgMTQ4LjAwOSAxLjc3MjU1IDE0OC4xNzQgMS43NTI5OUMxNDguMTk0IDEuNzk4NDYgMTQ4LjIxMSAxLjgwNzk4IDE0OC4yMDcgMS43ODMzOUMxNDguMjA2IDEuNzc0NCAxNDguMTggMS43NjgzMiAxNDguMTY2IDEuNzYwOTJDMTQ4LjE3IDEuNzIyMDUgMTQ4LjE3MyAxLjY4MzQ2IDE0OC4xNzcgMS42NDQ4NkwxNDguMTcgMS42NTMzMkMxNDguMzE0IDEuNjY3MzMgMTQ4LjQ2MiAxLjY2MjMxIDE0OC41ODcgMS43NTkzM0MxNDguNjM1IDEuNzk2ODcgMTQ4LjY0MyAxLjc5MjM4IDE0OC41OTMgMS44Nzk4OUMxNDguNTcyIDEuOTE2OSAxNDguNTU2IDEuOTUxNTMgMTQ4LjU5IDEuOTc2MzhDMTQ4Ljc2NSAyLjEwMzI4IDE0OC45MyAyLjI0MDIzIDE0OS4xMzQgMi4zMzAxMkMxNDkuNCAyLjQ0NzI0IDE0OS42NTUgMi41ODg5NCAxNDkuOTEgMi43MjY2OEMxNDkuOTg5IDIuNzY4OTggMTUwLjA2NSAyLjgyNDUgMTUwLjEyNyAyLjg4Nzk1QzE1MC4yMzkgMy4wMDExIDE1MC4zMDIgMy4xNjUwMiAxNTAuNDg4IDMuMTk5MTJDMTUwLjUwNSAzLjIwMjI5IDE1MC41MTMgMy4yNTcyOCAxNTAuNTIzIDMuMjg5MjdDMTUwLjUyOCAzLjMwNTkzIDE1MC41MiAzLjMyNzM0IDE1MC41MjggMy4zNDE2MkMxNTAuOTQyIDQuMDg5MDEgMTUwLjQ0MiAzLjYzMjQzIDE1MS4xOTQgMy45MzQwOEMxNTEuMjYyIDMuOTYxMDUgMTUxLjMyOSAzLjk4ODAxIDE1MS4zOTYgNC4wMTYwNEMxNTEuNDYzIDQuMDQ0MDYgMTUxLjUyMyA0LjA3ODQzIDE1MS41NjcgNC4xNDE2MkMxNTEuNjI5IDQuMjI5NjUgMTUxLjY5MSA0LjMyMTEzIDE1MS43NyA0LjM5Mjc3QzE1MS45OTQgNC41OTQ0OSAxNTIuMTAyIDQuODYxNzggMTUyLjIxOSA1LjEyNDA0QzE1Mi4yNTUgNS4yMDQxNCAxNTIuMjE2IDUuMzE0OTEgMTUyLjI5MyA1LjM3NjUxQzE1Mi40NDEgNS40OTQ2OSAxNTIuNDg5IDUuNjc3MTEgMTUyLjYwMyA1LjgxMzc5QzE1Mi44OTcgNi4xNjg1OCAxNTMuMDU2IDYuNTkwNzkgMTUzLjIxNCA3LjAwODI0QzE1My4zMjMgNy4yOTU2MSAxNTMuNDY2IDcuNTYyODkgMTUzLjYwNyA3LjgzMjgyQzE1My43NCA4LjA4ODIxIDE1My44ODYgOC4zMzY3MiAxNTMuOTk4IDguNjAyNDJDMTU0LjAzNiA4LjY5MTUyIDE1NC4wMzUgOC43NzEzNSAxNTQuMDEgOC44NjEyNEMxNTMuOTk3IDguOTEwMTUgMTUzLjk5MyA4Ljk3NTE5IDE1NC4wMTUgOS4wMTg1NEMxNTQuMTUyIDkuMjkxMzggMTU0LjI0OCA5LjU4NzQ4IDE1NC40NDUgOS44MjdDMTU0LjU4MyA5Ljk5NjQ3IDE1NC42MjIgMTAuMTcwNCAxNTQuNTU4IDEwLjM3NDNDMTU0LjU0NyAxMC40MDczIDE1NC41NTYgMTAuNDQ1NiAxNTQuNTU0IDEwLjQ4MTZDMTU0LjU0NyAxMC41OTkyIDE1NC41OTQgMTAuNjg4MSAxNTQuNjkyIDEwLjc1NjNDMTU0LjcyIDEwLjc3NjQgMTU0LjczOCAxMC44MTA3IDE1NC43NiAxMC44Mzg1TDE1NC43NjggMTAuODMwOEMxNTQuNjY2IDEwLjg3NDIgMTU0LjY2MyAxMC45NjQzIDE1NC42NiAxMS4wNTRDMTU0LjYwOSAxMS4wNzIyIDE1NC41OTggMTEuMDg3OCAxNTQuNjI4IDExLjA4OTFDMTU0LjYzNSAxMS4wODk0IDE1NC42NDQgMTEuMDYxNiAxNTQuNjUyIDExLjA0NjhDMTU0LjcxOCAxMS4wODk3IDE1NC43NTQgMTEuMTUzMSAxNTQuNzQ2IDExLjIyNzdDMTU0LjczNSAxMS4zMzM3IDE1NC43MSAxMS40Mzg2IDE1NC42OTEgMTEuNTQzOUMxNTQuNjc5IDExLjYwNyAxNTQuNzAzIDExLjYzNjEgMTU0Ljc4MiAxMS42Mzc3QzE1NC44MzYgMTEuNjM4OCAxNTQuODkxIDExLjYzMDYgMTU0LjkzIDExLjY3OUMxNTQuOTY2IDExLjcyMzkgMTU0Ljk3MSAxMS43NzczIDE1NC45NiAxMS44MzA0QzE1NC45NTQgMTEuODY1MyAxNTQuOTQgMTEuODk5NCAxNTQuOTI1IDExLjkzMTdDMTU0Ljg5IDEyLjAwMzEgMTU0Ljg4OCAxMi4wODM0IDE1NC45NDIgMTIuMTMyMUMxNTUuMDkzIDEyLjI2NjQgMTU1LjA3OSAxMi40MDk3IDE1NC45OTkgMTIuNTY4NkMxNTQuOTg0IDEyLjU5OTIgMTU0Ljk4NiAxMi42Mzg2IDE1NC45ODEgMTIuNjczOEwxNTQuOTg5IDEyLjY2NjdDMTU0LjkyMyAxMi43MjU2IDE1NC45MjMgMTIuNzI1NiAxNTQuOTg5IDEyLjc4NTRMMTU0Ljk4MiAxMi43NzlDMTU0Ljk5NCAxMi44NDY0IDE1NC45ODYgMTIuOTM0NSAxNTUuMDgzIDEyLjk0QzE1NS4xOSAxMi45NDY0IDE1NS4yNTcgMTMuMDAyMiAxNTUuMjg5IDEzLjA4ODZDMTU1LjM2OSAxMy4zMDggMTU1LjQ0MiAxMy41MjkzIDE1NS40MyAxMy43Njk2QzE1NS40MjMgMTMuOTEyNyAxNTUuNDIyIDE0LjA2MSAxNTUuNDU0IDE0LjE5OUMxNTUuNDk4IDE0LjM4NjkgMTU1LjQwNCAxNC41NDk4IDE1NS4zOTEgMTQuNzI1OUMxNTUuMzg5IDE0Ljc1NDQgMTU1LjM1MiAxNC43ODU5IDE1NS4zMjMgMTQuODA2OEMxNTUuMjM5IDE0Ljg2ODkgMTU1LjIyMSAxNC45NDA2IDE1NS4yNTQgMTUuMDQwMkMxNTUuMzA0IDE1LjE5NTkgMTU1LjM1NiAxNS4zNDM1IDE1NS41MDQgMTUuNDQzN0MxNTUuNTc3IDE1LjQ5MjggMTU1LjYzMiAxNS41NzAzIDE1NS42ODggMTUuNjQwOUMxNTUuNzA3IDE1LjY2NDQgMTU1LjcyMSAxNS43MjEgMTU1LjcwNyAxNS43MzU4QzE1NS41ODcgMTUuODY4IDE1NS41ODMgMTYuMDI5OCAxNTUuNTg3IDE2LjE4OTdDMTU1LjU4OCAxNi4yNjIyIDE1NS41ODkgMTYuMzMwNiAxNTUuNTY2IDE2LjQwMDRDMTU1LjUzIDE2LjUxMjMgMTU1LjU2MSAxNi42MTM4IDE1NS42MzEgMTYuNzAzOUMxNTUuNjk0IDE2Ljc4NjIgMTU1LjY5MSAxNi44NTc1IDE1NS42MzEgMTYuOTQ1QzE1NS41NjEgMTcuMDQ1MiAxNTUuNTcyIDE3LjA1OTUgMTU1LjY2OCAxNy4xMDM5QzE1NS42ODQgMTcuMTExNiAxNTUuNzA0IDE3LjExMjkgMTU1LjcyIDE3LjEyMDlDMTU1LjgyMiAxNy4xNjk1IDE1NS44NjggMTcuMjM0OCAxNTUuODU5IDE3LjMyNDdDMTU1Ljg1NCAxNy4zNzc2IDE1NS44NDUgMTcuNDMxIDE1NS44MyAxNy40ODJDMTU1LjgxIDE3LjU0OTcgMTU1Ljc2OCAxNy42MiAxNTUuODIxIDE3LjY4MjlDMTU1Ljg1MyAxNy43MjE4IDE1NS45MDkgMTcuNzQzMiAxNTUuOTU3IDE3Ljc2OEMxNTYuMDI5IDE3LjgwNTYgMTU2LjA2IDE3Ljg2OTMgMTU2LjA2MSAxNy45NDMxQzE1Ni4wNjIgMTguMDEzOSAxNTYuMDUgMTguMDg1IDE1Ni4wNDIgMTguMTU1OUMxNTYuMDMyIDE4LjI0NDcgMTU2LjA0NyAxOC4yNjcyIDE1Ni4xNDUgMTguMzEyN0MxNTYuMTk2IDE4LjMzNjQgMTU2LjI0OCAxOC4zNTA1IDE1Ni4yOTQgMTguMzA2QzE1Ni4zMjYgMTguMjc1MSAxNTYuMzY3IDE4LjI2MDYgMTU2LjM3OCAxOC4yODg5QzE1Ni40NDcgMTguNDU0MSAxNTYuNTE1IDE4LjYxNzIgMTU2LjUxNCAxOC44MDQ3QzE1Ni41MTMgMTkuMTgxNyAxNTYuNTQzIDE5LjU1ODkgMTU2LjUxMiAxOS45MzU5QzE1Ni41MSAxOS45NTM2IDE1Ni41MDYgMTkuOTcxMyAxNTYuNTA1IDE5Ljk4OTNDMTU2LjQ5OCAyMC4wNjA3IDE1Ni40NjQgMjAuMDUyMiAxNTYuNDE5IDE5Ljk3MTFDMTU2LjQwMiAxOS45NDE1IDE1Ni4zNzkgMTkuOTE0NSAxNTYuMzU4IDE5Ljg4NjJDMTU2LjM0NSAxOS44OTgxIDE1Ni4zMjYgMTkuOTA2OCAxNTYuMzIgMTkuOTIwOEMxNTYuMjQ3IDIwLjEwNTYgMTU2LjE4MyAyMC4yOTAyIDE1Ni4xODQgMjAuNDk0QzE1Ni4xODUgMjAuNzQ2IDE1Ni4wNzUgMjAuOTgzNCAxNTYuMDcgMjEuMjM3N0MxNTYuMDY4IDIxLjM2MDQgMTU1Ljk5NiAyMS40ODIyIDE1NS45OTcgMjEuNjA0MUMxNTUuOTk5IDIxLjcyNzYgMTU2LjAzIDIxLjg0ODQgMTU1Ljk5NCAyMS45NzRDMTU1Ljk4IDIyLjAyMTggMTU1Ljk5MyAyMi4wODI0IDE1Ni4wMSAyMi4xMzE4QzE1Ni4wNDYgMjIuMjM4OSAxNTYuMDQ3IDIyLjM0MjUgMTU2LjAwNyAyMi40NDc1QzE1NS45NiAyMi41NzE1IDE1NS45NjcgMjIuNjk1MiAxNTYuMDIzIDIyLjgxNDRDMTU2LjA3OCAyMi45MzI2IDE1Ni4wODkgMjMuMDU2MSAxNTYuMDc4IDIzLjE4MzVDMTU2LjA2NyAyMy4zMDg2IDE1Ni4wNjEgMjMuNDM0NyAxNTYuMDQ0IDIzLjU1ODlDMTU2LjAzNCAyMy42MzE0IDE1Ni4wMzggMjMuNzAwMSAxNTYuMDUyIDIzLjc3MTVDMTU2LjEwNyAyNC4wNTM4IDE1Ni4wNDEgMjQuMzA2MyAxNTUuODQ5IDI0LjUyNDRDMTU1Ljc4NiAyNC41OTUzIDE1NS43NDYgMjQuNjczIDE1NS43NDggMjQuNzY2NkMxNTUuNzUxIDI0Ljg5NDggMTU1LjcyNCAyNS4wMTQ2IDE1NS42NjggMjUuMTMxMkMxNTUuNjA1IDI1LjI2MDcgMTU1LjU1OCAyNS4zOTc2IDE1NS40OTcgMjUuNTI4MkMxNTUuNDc1IDI1LjU3NzIgMTU1LjQzNSAyNS42MTYgMTU1LjM3MyAyNS42MjAzQzE1NS4zMTkgMjUuNjI0IDE1NS4yNjQgMjUuNjI3OSAxNTUuMjA5IDI1LjYyOTVDMTU1LjEzNCAyNS42MzE5IDE1NS4wNjQgMjUuNjUxNCAxNTUuMDE5IDI1LjcxNDFDMTU0Ljk4NSAyNS43NjMgMTU1LjAxNSAyNS44MTc3IDE1NS4wMjIgMjUuODcwMUMxNTUuMDI1IDI1LjkwMTUgMTU1LjAxNiAyNS45NDIgMTU0Ljk5NiAyNS45NjYxQzE1NC45NjMgMjYuMDA2OCAxNTQuOTE2IDI2LjAzNzcgMTU0Ljg3NiAyNi4wNzI5QzE1NC44NzIgMjYuMDM4IDE1NC44NzUgMjYuMDAwNyAxNTQuODY0IDI1Ljk2ODRDMTU0LjgzNCAyNS44ODY3IDE1NC43NjUgMjUuODU1MyAxNTQuNjk3IDI1Ljg5NjhDMTU0LjY1MyAyNS45MjM4IDE1NC42MTMgMjUuOTYyMSAxNTQuNTg1IDI2LjAwNDFDMTU0LjU2OSAyNi4wMjY2IDE1NC41NzUgMjYuMDcwMiAxNTQuNTg2IDI2LjA5OTZDMTU0LjU5OSAyNi4xMzY4IDE1NC42MzcgMjYuMTU1MyAxNTQuNjc0IDI2LjE0NUMxNTQuNzQyIDI2LjEyNDkgMTU0LjgwOCAyNi4wOTY5IDE1NC44NzYgMjYuMDcyOUMxNTQuODY5IDI2LjE0NDIgMTU0Ljg1IDI2LjIxMDYgMTU0Ljc5NSAyNi4yNjI0QzE1NC43NjkgMjYuMjg2NyAxNTQuNzI2IDI2LjMwNjggMTU0LjcyMSAyNi4zMzQ2QzE1NC42OTcgMjYuNDUzMyAxNTQuNjcgMjYuNTc0NiAxNTQuNjc1IDI2LjY5MzlDMTU0LjY3OCAyNi43NzY5IDE1NC43MyAyNi44NTgxIDE1NC43NjEgMjYuOTQwNUwxNTQuNzY4IDI2LjkzMjlDMTU0LjY1OCAyNi45MzY4IDE1NC41NyAyNi45NzE1IDE1NC41MjYgMjcuMDgzM0MxNTQuNTAxIDI3LjE0NTcgMTU0LjQ2NCAyNy4yMDM5IDE1NC40MzIgMjcuMjYzOUwxNTQuNDQgMjcuMjU3NUMxNTQuMjk4IDI3LjI3MDcgMTU0LjIyMSAyNy4zNDQ4IDE1NC4yMTggMjcuNDg3M0MxNTQuMjE3IDI3LjUyMTQgMTU0LjIxMyAyNy41NTQ5IDE1NC4yMTEgMjcuNTg5MUwxNTQuMjE3IDI3LjU3OVpNMTI0LjY1NyA0LjQ2MTUxQzEyNC42MDcgNC40Nzg2OSAxMjQuNTk2IDQuNDkzNzYgMTI0LjYyNSA0LjQ5NTYxQzEyNC42MzIgNC40OTYxNCAxMjQuNjQxIDQuNDY4OTEgMTI0LjY0OSA0LjQ1NDM3QzEyNC42NjIgNC40NDkwOSAxMjQuNjc4IDQuNDQ1OTEgMTI0LjY4OSA0LjQzNzQ1QzEyNC42OTcgNC40MzIxNyAxMjQuNjk4IDQuNDE4OTUgMTI0LjcwMSA0LjQwODlDMTI0LjY4NiA0LjQyNjM1IDEyNC42NzIgNC40NDQwNiAxMjQuNjU3IDQuNDYxNTFaTTEyMS45MDMgMjYuMzkwOUMxMjEuOTUyIDI2LjM3MjkgMTIxLjk2MiAyNi4zNTcxIDEyMS45MzMgMjYuMzU2NUMxMjEuOTI2IDI2LjM1NjMgMTIxLjkxNyAyNi4zODI3IDEyMS45MDkgMjYuMzk3QzEyMS44OTMgMjYuNDAxNyAxMjEuODczIDI2LjQwMzYgMTIxLjg2MSAyNi40MTI4QzEyMS44NTIgMjYuNDE4NyAxMjEuODUzIDI2LjQzNjQgMTIxLjg0OSAyNi40NDg4QzEyMS44ODIgMjYuNDU1NyAxMjEuOSAyNi40MzY0IDEyMS45MDMgMjYuMzkwOVpNMTQ5LjE1NiAyNS44NUMxNDkuMjA4IDI1LjgzMjMgMTQ5LjIxOSAyNS44MTY0IDE0OS4xODcgMjUuODEzMkMxNDkuMTggMjUuODEyNCAxNDkuMTcxIDI1Ljg0MTMgMTQ5LjE2MyAyNS44NTY5QzE0OS4xMSAyNS44NzM4IDE0OS4wOTkgMjUuODg5NCAxNDkuMTMxIDI1Ljg5MzZDMTQ5LjEzOCAyNS44OTQ0IDE0OS4xNDggMjUuODY1MyAxNDkuMTU2IDI1Ljg1Wk0xMTQuOTggOC41NjcyNkMxMTQuOTc0IDguNTUzNzcgMTE0Ljk3MiA4LjUzODQ0IDExNC45NjMgOC41MjczM0MxMTQuOTU4IDguNTIwNDYgMTE0Ljk0NCA4LjUxOTkzIDExNC45MzQgOC41MTY1QzExNC45MzEgOC41NDE4OCAxMTQuOTQ5IDguNTU2NDIgMTE0Ljk4NyA4LjU2MDM4QzExNS4wMDQgOC42MDc5NyAxMTUuMDE5IDguNjE4MjggMTE1LjAyMSA4LjU5MDI2QzExNS4wMjEgOC41ODM2NSAxMTQuOTk1IDguNTc1MTkgMTE0Ljk4IDguNTY3MjZaTTExNy4yODggMjIuMDY3NkMxMTcuMzM5IDIyLjA0OTEgMTE3LjM1IDIyLjAzMjkgMTE3LjMxNyAyMi4wMzA4QzExNy4zMTEgMjIuMDMwMyAxMTcuMzAyIDIyLjA1OTEgMTE3LjI5NSAyMi4wNzQ3QzExNy4yNDEgMjIuMDkxOSAxMTcuMjMgMjIuMTA3OCAxMTcuMjYzIDIyLjExMkMxMTcuMjY5IDIyLjExMjggMTE3LjI3OSAyMi4wODI5IDExNy4yODggMjIuMDY3NlpNMTUwLjQ4IDI0LjM0NDFDMTUwLjQ0NSAyNC4zNDgzIDE1MC40MDggMjQuMzQ2OCAxNTAuMzc1IDI0LjM1NzFDMTUwLjMyMyAyNC4zNzI5IDE1MC4zMTkgMjQuNDAxNSAxNTAuMzY0IDI0LjQyNDJDMTUwLjM3NiAyNC40MzA2IDE1MC40MDQgMjQuNDI4NCAxNTAuNDEzIDI0LjQxODdDMTUwLjQzNyAyNC4zOTUxIDE1MC40NTQgMjQuMzY1MyAxNTAuNDc0IDI0LjMzNzhDMTUwLjUwNyAyNC4zMzM1IDE1MC41NCAyNC4zMzE3IDE1MC41NzMgMjQuMzI0M0MxNTAuNjIyIDI0LjMxMzQgMTUwLjYzIDI0LjI5MDIgMTUwLjU5NCAyNC4yNjc0QzE1MC41ODQgMjQuMjYwOCAxNTAuNTU4IDI0LjI2NTMgMTUwLjU0NyAyNC4yNzQzQzE1MC41MjIgMjQuMjk0OSAxNTAuNTAyIDI0LjMyMDYgMTUwLjQ4IDI0LjM0NDFaTTE1NC4xMDEgMjYuMDc1QzE1NC4wOTYgMjYuMDYyIDE1NC4wOTIgMjYuMDQ3NSAxNTQuMDg0IDI2LjAzNjZDMTU0LjA3OCAyNi4wMyAxNTQuMDY2IDI2LjAyODIgMTU0LjA1NiAyNi4wMjQyQzE1NC4wNzQgMjYuMDM4NSAxNTQuMDkxIDI2LjA1MjUgMTU0LjEwOSAyNi4wNjY4QzE1NC4xMyAyNi4wOTExIDE1NC4xNDkgMjYuMTE3IDE1NC4xNzIgMjYuMTM4N0MxNTQuMTgzIDI2LjE0NzkgMTU0LjIwMiAyNi4xNTIyIDE1NC4yMTcgMjYuMTUxMUMxNTQuMjMgMjYuMTUwMSAxNTQuMjUxIDI2LjE0MDMgMTU0LjI1NCAyNi4xMzA1QzE1NC4yNjEgMjYuMTA0MyAxNTQuMjM5IDI2LjA4NjYgMTU0LjE5OSAyNi4wODE4QzE1NC4xNjYgMjYuMDc4NyAxNTQuMTM0IDI2LjA3NzEgMTU0LjEwMSAyNi4wNzVaTTEyMi4wMTggMjYuNjE0NkMxMjEuOTY4IDI2LjYyNzUgMTIxLjkxNyAyNi42Mzg5IDEyMS44NjcgMjYuNjU1NUMxMjEuODU0IDI2LjY2IDEyMS44NDEgMjYuNjgwMSAxMjEuODM3IDI2LjY5NTJDMTIxLjgzMyAyNi43MDk1IDEyMS44MzUgMjYuNzMwNCAxMjEuODQzIDI2Ljc0MjNDMTIxLjg2NSAyNi43NzM3IDEyMS44OTkgMjYuNzc0NSAxMjEuOTI3IDI2LjczOTFDMTIxLjk1OSAyNi42OTgxIDEyMS45ODQgMjYuNjUxMyAxMjIuMDEyIDI2LjYwNjlDMTIyLjA0NyAyNi42MDI5IDEyMi4wODMgMjYuNjAyNCAxMjIuMTE4IDI2LjU5MzdDMTIyLjE2OSAyNi41ODA3IDEyMi4xNzYgMjYuNTUzOCAxMjIuMTM2IDI2LjUyODZDMTIyLjEyNCAyNi41MjIgMTIyLjA5NyAyNi41MjY1IDEyMi4wODYgMjYuNTM1OEMxMjIuMDYgMjYuNTU4OCAxMjIuMDQxIDI2LjU4NzkgMTIyLjAxOCAyNi42MTQ2Wk0xNDkuMTU3IDI2LjE4MkMxNDkuMTM1IDI2LjE1NjkgMTQ5LjExNyAyNi4xMjUyIDE0OS4wOSAyNi4xMDg1QzE0OS4wNTEgMjYuMDgzNyAxNDkuMDIxIDI2LjA5ODIgMTQ5LjAyMiAyNi4xMzc0QzE0OS4wMjIgMjYuMTQ2NiAxNDkuMDQ3IDI2LjE2MDYgMTQ5LjA2MiAyNi4xNjM4QzE0OS4wOTUgMjYuMTY5OSAxNDkuMTMgMjYuMTcwNyAxNDkuMTY0IDI2LjE3NDFDMTQ5LjEzIDI2LjIzMzkgMTQ5LjA5MyAyNi4yOTE4IDE0OS4wNjUgMjYuMzU0MkMxNDkuMDQ5IDI2LjM5MDEgMTQ5LjA3IDI2LjQyNDIgMTQ5LjEwOCAyNi40Mzg1QzE0OS4xMjEgMjYuNDQzNSAxNDkuMTQ3IDI2LjQzOSAxNDkuMTU1IDI2LjQyOTJDMTQ5LjE4NCAyNi4zODk4IDE0OS4yMjEgMjYuMzQ5NyAxNDkuMjMyIDI2LjMwNDJDMTQ5LjI0NSAyNi4yNTA1IDE0OS4yMDYgMjYuMjA4OCAxNDkuMTU3IDI2LjE4MlpNMTE2Ljk2MyAyMC42NzA2QzExNi44ODggMjAuNjcwNiAxMTYuODEzIDIwLjY3MDYgMTE2LjczNyAyMC42NzA2QzExNi43MzggMjAuNjE2OSAxMTYuNzQyIDIwLjU2MyAxMTYuNzQgMjAuNTA5NEMxMTYuNzM2IDIwLjQzNTEgMTE2LjcxMiAyMC40MDY1IDExNi42NDkgMjAuMzk4M0MxMTYuNTc4IDIwLjM4OTEgMTE2LjUwNiAyMC4zNzkzIDExNi40MzQgMjAuMzcyNEMxMTYuNDE5IDIwLjM3MDggMTE2LjM5OSAyMC4zNzg1IDExNi4zODggMjAuMzg5MUMxMTYuMzYgMjAuNDE0NCAxMTYuMzYyIDIwLjQ0NyAxMTYuMzgzIDIwLjQ4NDJDMTE2LjQxNyAyMC41NDY5IDExNi40NDMgMjAuNjA3MiAxMTYuNTM2IDIwLjYwOUMxMTYuNjA2IDIwLjYxMDYgMTE2LjY3NSAyMC42NDQ3IDExNi43NDQgMjAuNjYzNUMxMTYuNzU4IDIwLjcxMTkgMTE2Ljc2NSAyMC43NjM0IDExNi43ODcgMjAuODA3OEMxMTYuODEzIDIwLjg2MDQgMTE2Ljg5NCAyMC44NjEyIDExNi45MTggMjAuODA4OUMxMTYuOTM5IDIwLjc2NDUgMTE2Ljk0NCAyMC43MTI5IDExNi45NTcgMjAuNjY0OEMxMTcuMDEgMjAuNjQ0NyAxMTcuMDQ5IDIwLjYxMDEgMTE3LjA2OCAyMC41NTUzQzExNy4xNDQgMjAuNjAyOSAxMTcuMjE4IDIwLjY1MzQgMTE3LjI5NiAyMC42OTY1QzExNy4zMzMgMjAuNzE2NiAxMTcuMzY3IDIwLjY5NzMgMTE3LjM4MSAyMC42NTU1QzExNy40MTIgMjAuNTY4MyAxMTcuNDEzIDIwLjQ4IDExNy4zNzUgMjAuMzk1N0MxMTcuMjczIDIwLjE2NzUgMTE3LjE3MiAxOS45Mzg2IDExNy4wNjMgMTkuNzEzNkMxMTcuMDE3IDE5LjYxNzkgMTE2Ljk1MiAxOS41MzEyIDExNi44OTYgMTkuNDQwNUMxMTYuODM5IDE5LjM0OTUgMTE2Ljg0NCAxOS4yMzI0IDExNi43NjQgMTkuMTUwMkMxMTYuNzMyIDE5LjExNzcgMTE2LjY1NCAxOS4wOTc4IDExNi42MjIgMTkuMTM0OUMxMTYuNjAyIDE5LjE1ODQgMTE2LjU3OSAxOS4yMDM2IDExNi41ODkgMTkuMjI1QzExNi42NCAxOS4zMzY2IDExNi43NDUgMTkuNDIyOCAxMTYuNzQzIDE5LjU2QzExNi43MzcgMTkuODU1IDExNi44NCAyMC4xMTY1IDExNyAyMC4zNjI0QzExNy4wMzggMjAuNDIwNSAxMTcuMDUgMjAuNDk0NSAxMTcuMDc0IDIwLjU2MTRDMTE3LjAyMSAyMC41ODE1IDExNi45ODUgMjAuNjE4OCAxMTYuOTYzIDIwLjY3MDZaTTEyNC41NCAyMC40NDY3QzEyNC41ODYgMjAuNDE5MiAxMjQuNjM2IDIwLjM5NzUgMTI0LjY3NSAyMC4zNjM3QzEyNC43MTYgMjAuMzI4IDEyNC43MTMgMjAuMjY2OSAxMjQuNjc2IDIwLjIyMTJDMTI0LjY2NiAyMC4yMDg1IDEyNC42NDkgMjAuMTk4NCAxMjQuNjMzIDIwLjE5NDJDMTI0LjU5NSAyMC4xODU1IDEyNC41NTcgMjAuMjAxOSAxMjQuNTUyIDIwLjI0MjFDMTI0LjU0MyAyMC4zMTE2IDEyNC41NDggMjAuMzgzIDEyNC41NDcgMjAuNDUzNkMxMjQuNDk3IDIwLjQ3MTUgMTI0LjQ4NyAyMC40ODcxIDEyNC41MTYgMjAuNDg4N0MxMjQuNTI0IDIwLjQ4OSAxMjQuNTMyIDIwLjQ2MTUgMTI0LjU0IDIwLjQ0NjdaTTEyMS40NjkgMy4xNjMxNkMxMjEuNDE2IDMuMTYxODQgMTIxLjM2MyAzLjE1OTQ3IDEyMS4zMDkgMy4xNTk0N0MxMjEuMjkyIDMuMTU5NDcgMTIxLjI3NCAzLjE2NDQ5IDEyMS4yNTcgMy4xNjk1MUMxMjEuMjE3IDMuMTgyMiAxMjEuMTk4IDMuMjA2NzggMTIxLjIwNSAzLjIzOTgzQzEyMS4yMDggMy4yNTU2OSAxMjEuMjE2IDMuMjczNDEgMTIxLjIyOCAzLjI4NDI1QzEyMS4zMTYgMy4zNjMzIDEyMS4zOTcgMy4zNTQ1NyAxMjEuNDQxIDMuMjU5MTNDMTIxLjQ1NSAzLjIyODQ3IDEyMS40NTcgMy4xOTE3MiAxMjEuNDY0IDMuMTU3ODhDMTIxLjQ3OCAzLjE1MjU5IDEyMS40OTYgMy4xNTA0NyAxMjEuNTA3IDMuMTQxNDlDMTIxLjUxNSAzLjEzNTkzIDEyMS41MTUgMy4xMjAzNCAxMjEuNTE4IDMuMTA4OTdDMTIxLjQ4OSAzLjEwNDQ3IDEyMS40NzMgMy4xMjI3MSAxMjEuNDY5IDMuMTYzMTZaTTE0Ni40MDkgMjcuOTAyOUMxNDYuNDQxIDI3Ljg4NjcgMTQ2LjQ3NyAyNy44NzY0IDE0Ni41MDMgMjcuODUzN0MxNDYuNjA0IDI3Ljc2NDkgMTQ2LjcwOCAyNy43MzQyIDE0Ni44NDUgMjcuNzc5MUMxNDYuOTkgMjcuODI2NSAxNDcuMTMgMjcuNzc4NiAxNDcuMjQ4IDI3LjY4NjZDMTQ3LjM1MSAyNy42MDUyIDE0Ny40MDIgMjcuNDk1MiAxNDcuMzk4IDI3LjM2M0MxNDcuNDI5IDI3LjM3NyAxNDcuNDYgMjcuMzkxOCAxNDcuNDkyIDI3LjQwNEMxNDcuNTA4IDI3LjQwOTggMTQ3LjUyNiAyNy40MTQ2IDE0Ny41NDIgMjcuNDExOUMxNDcuNTU2IDI3LjQwOTMgMTQ3LjU3MiAyNy4zOTkgMTQ3LjU4IDI3LjM4NzFDMTQ3LjYwMiAyNy4zNTU2IDE0Ny41OTYgMjcuMzIyMyAxNDcuNTYyIDI3LjMwNDFDMTQ3LjQ4NCAyNy4yNjI4IDE0Ny40MzggMjcuMzA0MyAxNDcuNDAzIDI3LjM2OTFDMTQ3LjI5NyAyNy4zNTg4IDE0Ny4xODggMjcuMzM4MiAxNDcuMDg0IDI3LjM3ODFDMTQ2Ljg4NSAyNy40NTQ3IDE0Ni42ODYgMjcuNTMxOSAxNDYuNDkyIDI3LjYyMDVDMTQ2LjQ1NCAyNy42MzggMTQ2LjQzMSAyNy43MDQxIDE0Ni40MTkgMjcuNzUyN0MxNDYuNDA3IDI3LjgwMjQgMTQ2LjQxNyAyNy44NTc0IDE0Ni40MTcgMjcuOTFDMTQ2LjM2OSAyNy45MjY3IDE0Ni4zNTggMjcuOTQxNyAxNDYuMzg0IDI3Ljk0MkMxNDYuMzkyIDI3Ljk0MjUgMTQ2LjQwMSAyNy45MTY5IDE0Ni40MDkgMjcuOTAyOVpNMTQ0LjU0MSAyNy4xNDZMMTQ0LjU0OSAyNy4xNTQxQzE0NC40NzcgMjcuMDE2OSAxNDQuMzcxIDI2LjkzNDcgMTQ0LjIwOCAyNi45MzIxQzE0NC4xMDcgMjYuOTMwOCAxNDQuMDM1IDI2Ljk3MDEgMTQzLjk5MSAyNy4wNTlDMTQzLjk2IDI3LjEyMjQgMTQzLjkyNiAyNy4xODU2IDE0My45MzMgMjcuMjYwMkMxNDMuOTQxIDI3LjM0NDggMTQzLjg0NiAyNy4zNjY3IDE0My44MjQgMjcuNDMzNkMxNDMuODExIDI3LjQ3MDYgMTQzLjgxMSAyNy41MDU1IDE0My44NDEgMjcuNTI2OUMxNDMuODY5IDI3LjU0NTcgMTQzLjkwNCAyNy41NjIxIDE0My45MzcgMjcuNTY0MkMxNDMuOTcxIDI3LjU2NjggMTQ0LjAxNCAyNy41NjA1IDE0NC4wNCAyNy41NDA5QzE0NC4yMTcgMjcuNDA2NiAxNDQuNDI2IDI3LjM1NTkgMTQ0LjYzOSAyNy4zMTMzQzE0NC42ODggMjcuMzAzNSAxNDQuNzM0IDI3LjI2NzMgMTQ0Ljc3OCAyNy4yMzk2QzE0NC43ODkgMjcuMjMyOSAxNDQuNzk2IDI3LjIwODYgMTQ0Ljc5MiAyNy4xOTcyQzE0NC43ODcgMjcuMTgyNCAxNDQuNzY5IDI3LjE2NDIgMTQ0Ljc1NSAyNy4xNjIzQzE0NC42ODQgMjcuMTU0MiAxNDQuNjEyIDI3LjE1MSAxNDQuNTQxIDI3LjE0NlpNMTQ4LjgzMiAyNi43MTM3QzE0OC44NTEgMjYuNzYxNiAxNDguODY2IDI2Ljc3MTkgMTQ4Ljg2NiAyNi43NDUyQzE0OC44NjYgMjYuNzM3IDE0OC44MzkgMjYuNzI5NiAxNDguODI0IDI2LjcyMTZDMTQ4Ljc4NCAyNi42MDQ4IDE0OC43NDYgMjYuNDg2NiAxNDguNzAyIDI2LjM3MDhDMTQ4LjY3NiAyNi4zMDI5IDE0OC42MzEgMjYuMjQ2MyAxNDguNTYgMjYuMjE5NkMxNDguNDE2IDI2LjE2NjUgMTQ4LjI3OSAyNi4xNjEyIDE0OC4xNjcgMjYuMjg4OUwxNDguMTczIDI2LjI4MzZDMTQ4LjA5MyAyNi4zMjU2IDE0OC4wMTEgMjYuMzY1OCAxNDcuOTMzIDI2LjQxMTNDMTQ3LjkwNCAyNi40Mjg0IDE0Ny44NjUgMjYuNDU1OSAxNDcuODU5IDI2LjQ4NDhDMTQ3LjgyOCAyNi42Mjc4IDE0Ny43MzYgMjYuNzQxNyAxNDcuNjgyIDI2Ljg3MzRDMTQ3LjY3NyAyNi44ODU4IDE0Ny42OSAyNi45MDcyIDE0Ny42OTggMjYuOTIyOEMxNDcuNzM3IDI3LjAwMzUgMTQ3Ljg1OCAyNy4wMzg2IDE0Ny45MjcgMjYuOTg3M0MxNDggMjYuOTM0MiAxNDguMDcgMjYuODc2MyAxNDguMTQxIDI2LjgyMTNDMTQ4LjIxNCAyNi43NjQyIDE0OC4yMzYgMjYuNzYxIDE0OC4zMzIgMjYuODI0MkMxNDguNDA4IDI2Ljg3NDIgMTQ4LjQ4MiAyNi45Mjg5IDE0OC41NzkgMjYuOTE1MkMxNDguNjA4IDI2LjkxMDkgMTQ4LjY1OCAyNi44ODMyIDE0OC42NTggMjYuODY1MkMxNDguNjYxIDI2Ljc0NzggMTQ4LjczMiAyNi43MTY5IDE0OC44MzIgMjYuNzEzN1pNMTQzLjM1OCAxOS40ODgzQzE0My4zNjMgMTkuNTAzMSAxNDMuMzY3IDE5LjUxOTggMTQzLjM3NiAxOS41MzE3QzE0My4zODIgMTkuNTM5NCAxNDMuMzk3IDE5LjU0MDkgMTQzLjQwOCAxOS41NDQ2QzE0My4zODkgMTkuNTI4IDE0My4zNyAxOS41MTE2IDE0My4zNTEgMTkuNDk0OUMxNDMuNTE1IDE5LjI4MzIgMTQzLjYwMiAxOS4wMzQ3IDE0My43MDIgMTguNzkyQzE0My43MSAxOC43NzQgMTQzLjcxMyAxOC43NDkxIDE0My43MDYgMTguNzMyMkMxNDMuNjkxIDE4LjY5NiAxNDMuNjc1IDE4LjY1NSAxNDMuNjQ3IDE4LjYzMTJDMTQzLjYxOSAxOC42MDgyIDE0My41NzYgMTguNjAwMyAxNDMuNTM5IDE4LjU5NDVDMTQzLjUyMyAxOC41OTIxIDE0My41MDIgMTguNjExOSAxNDMuNDg2IDE4LjYyMzNDMTQzLjMzMyAxOC43MjQ4IDE0My4yODUgMTguNzI3MiAxNDMuMTggMTguNjIwNEMxNDMuMTA4IDE4LjU0ODIgMTQzLjA0NSAxOC40Njg0IDE0Mi45NzggMTguMzkyQzE0My4wMzggMTguMzcxNiAxNDMuMDUgMTguMzUzOSAxNDMuMDEzIDE4LjM0OTRDMTQzLjAwNiAxOC4zNDg2IDE0Mi45OTUgMTguMzgxNyAxNDIuOTg2IDE4LjM5OTRDMTQyLjgyIDE4LjM4NjcgMTQyLjY2NiAxOC4zNTY1IDE0Mi41MjMgMTguMjU0MkMxNDIuMjU4IDE4LjA2MzYgMTQxLjk3OSAxNy44ODk3IDE0MS43MDQgMTcuNzExN0MxNDEuMzkxIDE3LjUwOSAxNDEuMDQ4IDE3LjM3ODQgMTQwLjY3NyAxNy4zMjFDMTQwLjY0MyAxNy4zMTU3IDE0MC41OTUgMTcuMzM5IDE0MC41NjcgMTcuMzYzOEMxNDAuNDUzIDE3LjQ2NDUgMTQwLjM4NyAxNy41ODk5IDE0MC40MjkgMTcuNzQyNEMxNDAuNDk0IDE3Ljk3NzIgMTQwLjU3NSAxOC4yMDc3IDE0MC43MTQgMTguNDEyNkMxNDAuNzcyIDE4LjQ5ODIgMTQwLjgxMSAxOC41ODE1IDE0MC44MTMgMTguNjkxQzE0MC44MTUgMTguODA5OSAxNDAuODY1IDE4LjkyNTcgMTQwLjc5OSAxOS4wNDU4QzE0MC43NTYgMTkuMTI1MSAxNDAuNzkzIDE5LjIwMzEgMTQwLjg1IDE5LjI2ODFDMTQwLjkzMSAxOS4zNjAxIDE0MS4wMSAxOS40NTI2IDE0MS4xMjkgMTkuNTAxOEMxNDEuMjU1IDE5LjU1MzYgMTQxLjMzMyAxOS42Mzc3IDE0MS4zMSAxOS43ODI4QzE0MS40MDEgMTkuOTYyNiAxNDEuNDY5IDIwLjE1MDYgMTQxLjU0MiAyMC4zMzc1QzE0MS41NzggMjAuNDMgMTQxLjY0NSAyMC41MTI1IDE0MS43MDcgMjAuNTkyOUMxNDEuNzczIDIwLjY3NzggMTQxLjg2NyAyMC43MTU2IDE0MS45NzcgMjAuNzE1OEMxNDIuMTA5IDIwLjcxNjQgMTQyLjIxOSAyMC42NzE5IDE0Mi4yOTYgMjAuNTY1OUMxNDIuMzMyIDIwLjUxNjggMTQyLjM2NyAyMC40NjMzIDE0Mi4zODUgMjAuNDA2NUMxNDIuNDIzIDIwLjI4NzggMTQyLjQ5OSAyMC4yNDgxIDE0Mi42MTcgMjAuMjc1MUMxNDIuNzA0IDIwLjI5NDQgMTQyLjc3OSAyMC4yNiAxNDIuODUyIDIwLjIyMzZDMTQyLjkwNyAyMC4xOTYzIDE0Mi43NTYgMjAuMzA4MiAxNDIuNzAyIDIwLjIyMzZDMTQyLjY5NCAyMC4xODM5IDE0Mi42ODYgMjAuMTQzNSAxNDIuNjcgMjAuMTA3QzE0Mi42MzMgMjAuMDIxOCAxNDIuNjU2IDE5Ljk0NyAxNDIuNzEgMTkuODgxN0MxNDMuMDU1IDE5LjYwNjUgMTQzLjE3OSAxOS41MDI5IDE0My4zNTggMTkuNDg4M1pNMTE0LjIwNCAxNy4zNDcyQzExNC4yIDE3LjM0NzcgMTE0LjE5NiAxNy4zNDgyIDExNC4xOTIgMTcuMzQ4NUMxMTQuMTk5IDE3LjUxIDExNC4yMDUgMTcuNjcxMyAxMTQuMjE2IDE3LjgzMjVDMTE0LjIxOSAxNy44ODU3IDExNC4yMjQgMTcuOTQzMSAxMTQuMjQ4IDE3Ljk4OTNDMTE0LjMxMiAxOC4xMTcgMTE0LjM4MSAxOC4yNDUyIDExNC40OTQgMTguMzM5NkMxMTQuNTEzIDE4LjM1NTUgMTE0LjU2NiAxOC4zNTM2IDExNC41OSAxOC4zMzkxQzExNC42NzUgMTguMjg5MSAxMTQuNzE1IDE4LjIwMjkgMTE0LjcwNiAxOC4xMTE3QzExNC42OTcgMTguMDExNSAxMTQuNzM0IDE3Ljk0MjggMTE0Ljc5NiAxNy44NzE0QzExNC44OTQgMTcuNzYwMSAxMTQuODgxIDE3LjYzNDUgMTE0Ljc5NyAxNy41MjU5QzExNC43MTkgMTcuNDI0NiAxMTQuNjU1IDE3LjMxODMgMTE0LjYwMiAxNy4yMDM5QzExNC41NTcgMTcuMTA1OCAxMTQuNTA1IDE3LjAxMDYgMTE0LjQ1NSAxNi45MTQ5QzExNC40MTYgMTYuODM4NSAxMTQuMzUxIDE2LjgwMzkgMTE0LjI4MSAxNi44MTg5QzExNC4yMDQgMTYuODM1NiAxMTQuMTUzIDE2Ljg5OSAxMTQuMTYxIDE2Ljk3MzlDMTE0LjE3NCAxNy4wOTg0IDExNC4xOSAxNy4yMjMyIDExNC4yMDQgMTcuMzQ3MlpNMTE1LjM4MSAyMC4xNjgzQzExNS4zMSAyMC4xNzIgMTE1LjI1NSAyMC4xNzgzIDExNS4yMDIgMjAuMTc1N0MxMTUuMTU3IDIwLjE3MzYgMTE1LjEzIDIwLjE4NjMgMTE1LjEyMyAyMC4yMzFDMTE1LjEyMSAyMC4yNDgxIDExNS4xMiAyMC4yNjk4IDExNS4xMjkgMjAuMjgzOEMxMTUuMjU3IDIwLjUwMzMgMTE1LjQ0NyAyMC42NzExIDExNS42MzIgMjAuODQxOUMxMTUuNjQ1IDIwLjg1NDQgMTE1LjcxMyAyMC44MzkgMTE1LjcyNiAyMC44MTg3QzExNS43ODMgMjAuNzI1OSAxMTUuODY0IDIwLjcyNjkgMTE1Ljk1NyAyMC43MzhDMTE1Ljk4NCAyMC43NDEyIDExNi4wMyAyMC43MDkyIDExNi4wNDEgMjAuNjgzQzExNi4wOTcgMjAuNTM1IDExNi4wODcgMjAuMzYzNCAxMTYuMjIgMjAuMjQzN0MxMTYuMjU5IDIwLjIwOTUgMTE2LjIyNCAyMC4xNDMyIDExNi4xNjQgMjAuMTE3M0MxMTYuMTMxIDIwLjEwMzMgMTE2LjA5NiAyMC4wNzY4IDExNi4wNjQgMjAuMDc4N0MxMTUuOTM2IDIwLjA4NjkgMTE1Ljg2NSAyMC4wMjU1IDExNS44MTIgMTkuOTE4MkMxMTUuNzY1IDE5LjgyMzggMTE1LjcyOSAxOS43MTk5IDExNS42MzQgMTkuNjUyOEMxMTUuNiAxOS42Mjg0IDExNS41MDYgMTkuNjQ3OCAxMTUuNDkyIDE5LjY5MjJDMTE1LjQ4MyAxOS43MjQ5IDExNS40NjcgMTkuNzYyMiAxMTUuNDc0IDE5Ljc5MjZDMTE1LjQ5OSAxOS44OTczIDExNS41MzMgMTkuOTk5OSAxMTUuNTYyIDIwLjEwMzVDMTE1LjU4MSAyMC4xNjggMTE1LjU1NyAyMC4xODk1IDExNS40NzIgMjAuMTgzNkMxMTUuNDM1IDIwLjE4MTggMTE1LjQgMjAuMTcyIDExNS4zODEgMjAuMTY4M1pNMTQzLjI2NSAyOC40ODk1QzE0My4zMDkgMjguNDk2MSAxNDMuMzQ2IDI4LjUwOTEgMTQzLjM4MSAyOC41MDUxQzE0My41MSAyOC40ODk1IDE0My42MjkgMjguNDQ5OSAxNDMuNzA1IDI4LjMzNDZDMTQzLjczIDI4LjI5NiAxNDMuNzE5IDI4LjI2NDggMTQzLjY3OSAyOC4yNDQ3QzE0My41NTYgMjguMTgzNCAxNDMuNDIzIDI4LjE5ODcgMTQzLjMwOSAyOC4yNDQ3QzE0My4xNDcgMjguMzA5MiAxNDIuOTk1IDI4LjMyNDMgMTQyLjgzIDI4LjI3NDNDMTQyLjgwMiAyOC4yNjU4IDE0Mi43NTMgMjguMjgwMSAxNDIuNzMgMjguMzAxQzE0Mi42NSAyOC4zNzI0IDE0Mi41NzYgMjguNDQ5OSAxNDIuNTAxIDI4LjUyNzZDMTQyLjQ5MyAyOC41MzY4IDE0Mi40OTQgMjguNTcwMSAxNDIuNTAzIDI4LjU3ODFDMTQyLjUyOCAyOC42MDAzIDE0Mi41NjQgMjguNjM0OSAxNDIuNTg4IDI4LjYyOTZDMTQyLjcyOSAyOC41OTcxIDE0Mi44NjkgMjguNTU5OCAxNDMuMDA2IDI4LjUxMzhDMTQzLjA5NSAyOC40ODQyIDE0My4xODEgMjguNDcxNSAxNDMuMjY1IDI4LjQ4OTVaTTExNi4wNDYgMTkuMjAzM0MxMTYuMDAzIDE5LjIyOSAxMTUuOTcgMTkuMjQ0OCAxMTUuOTQzIDE5LjI2NjhDMTE1LjkzMSAxOS4yNzY2IDExNS45MiAxOS4zMDM1IDExNS45MjUgMTkuMzE0OUMxMTYuMDQ0IDE5LjU2ODcgMTE2LjIxMSAxOS43OTkyIDExNi40NjIgMjAuMDQ4OEMxMTYuNDcyIDIwLjA1OTEgMTE2LjUzMiAyMC4wNDA2IDExNi41NSAyMC4wMjAzQzExNi42MzEgMTkuOTI2OSAxMTYuNjQzIDE5LjgwMjkgMTE2LjU3OCAxOS43MjUyQzExNi40NjEgMTkuNTg3NyAxMTYuMzQzIDE5LjQ1MTMgMTE2LjIxOCAxOS4zMjE1QzExNi4xNyAxOS4yNzE1IDExNi4xMDEgMTkuMjQwNCAxMTYuMDQ2IDE5LjIwMzNaTTE0MC45MzMgMjguNDU5MUMxNDAuODExIDI4LjQ1MyAxNDAuNzI3IDI4LjQ3NTIgMTQwLjY3MyAyOC41NTk2QzE0MC42NjQgMjguNTcyOCAxNDAuNjU3IDI4LjYwMTkgMTQwLjY2NCAyOC42MDg1QzE0MC43NTcgMjguNjk3OCAxNDAuODYyIDI4Ljc2MjMgMTQxLjAwMSAyOC43NDg5QzE0MS4wNDkgMjguNzQ0MSAxNDEuMDkyIDI4LjcwMjYgMTQxLjEwOCAyOC42NDI2QzE0MS4xMjQgMjguNTgyIDE0MS4xMDUgMjguNTIxMiAxNDEuMDYgMjguNTAzQzE0MS4wMTEgMjguNDgyNiAxNDAuOTU5IDI4LjQ2NzggMTQwLjkzMyAyOC40NTkxWk0xMTQuNzM4IDEyLjk1MDlDMTE0LjcyOSAxMi45MTgxIDExNC43MjUgMTIuODgyOSAxMTQuNzEgMTIuODUyOEMxMTQuNjgxIDEyLjc5NTkgMTE0LjU5NSAxMi43ODExIDExNC41MjEgMTIuODE2M0MxMTQuNDczIDEyLjgzODIgMTE0LjQ1NyAxMi44OTY3IDExNC40ODEgMTIuOTUzMkMxMTQuNTAzIDEzLjAwNTEgMTE0LjUzOCAxMy4wNDEgMTE0LjU5MyAxMy4wNTc0QzExNC42NjcgMTMuMDc5OSAxMTQuNzQxIDEzLjAyNTkgMTE0LjczOCAxMi45NTA5Wk0xNTMuNjYgMjcuNjAzOUMxNTMuNjQ5IDI3LjU3NzQgMTUzLjYzMiAyNy41MjggMTUzLjYwNyAyNy40ODQxQzE1My41NjQgMjcuNDEwMyAxNTMuNDgxIDI3LjQxMyAxNTMuNDQyIDI3LjQ4NTdDMTUzLjM2MyAyNy42MzI5IDE1My40MTQgMjcuNzI4NCAxNTMuNTcyIDI3LjczMzdDMTUzLjYxOSAyNy43MzQ3IDE1My42NjkgMjcuNjc1OCAxNTMuNjYgMjcuNjAzOVpNMTQyLjI4MiAxNy42ODY5QzE0Mi4zNDUgMTcuNjg4NSAxNDIuNDE4IDE3LjYyNzEgMTQyLjQyOCAxNy41NjQyQzE0Mi40MzkgMTcuNTA1OCAxNDIuMzY4IDE3LjQzMzEgMTQyLjMgMTcuNDMxMkMxNDIuMjIzIDE3LjQyOTEgMTQyLjE1IDE3LjQ4ODMgMTQyLjE1NiAxNy41NDdDMTQyLjE2NCAxNy42MjM3IDE0Mi4yMiAxNy42ODUzIDE0Mi4yODIgMTcuNjg2OVpNMTM1LjcwOSAxNS40NjhDMTM1LjY5OCAxNS42Njk3IDEzNS42OTggMTUuNjY2IDEzNS43NDggMTUuNjY1NUMxMzUuODA3IDE1LjY2NDQgMTM1Ljg0OSAxNS42MzM1IDEzNS44ODQgMTUuNTkzQzEzNS45MDYgMTUuNTY3MSAxMzUuOTE5IDE1LjUzMzggMTM1LjkzMyAxNS41MDIxQzEzNS45NSAxNS40NjE0IDEzNS45MDQgMTUuNDAxNCAxMzUuODQ4IDE1LjM4NTVDMTM1Ljc5MiAxNS4zNjk5IDEzNS43MTUgMTUuMzk0IDEzNS43MSAxNS40MzEyQzEzNS43MDYgMTUuNDY1OSAxMzUuNzA5IDE1LjUwMSAxMzUuNzA5IDE1LjQ2OFpNMTIwLjQwNSAyMC43ODAzQzEyMC4zNjUgMjAuNzgzNSAxMjAuMzEyIDIwLjc4NTkgMTIwLjI2IDIwLjc5MjhDMTIwLjI0NCAyMC43OTQ5IDEyMC4yMyAyMC44MDk3IDEyMC4yMTUgMjAuODE4N0MxMjAuMjMzIDIwLjg0MjUgMTIwLjI0NyAyMC44NzgyIDEyMC4yNzEgMjAuODg4NUMxMjAuMzM0IDIwLjkxNDQgMTIwLjQwMiAyMC45MzUzIDEyMC40NyAyMC45NDQyQzEyMC40OTQgMjAuOTQ3NCAxMjAuNTI2IDIwLjkxMzMgMTIwLjU0OSAyMC44OTA2QzEyMC41NzggMjAuODYxMiAxMjAuNTI0IDIwLjc4OTkgMTIwLjQ3IDIwLjc4NTFDMTIwLjQ1MiAyMC43ODMgMTIwLjQzNSAyMC43ODI0IDEyMC40MDUgMjAuNzgwM1pNMTE3LjgyNCAyMi4zNDM4QzExNy44MTQgMjIuMzEyOSAxMTcuODA3IDIyLjI4MDcgMTE3Ljc5MyAyMi4yNTA4QzExNy43ODggMjIuMjM4OSAxMTcuNzY5IDIyLjIzMDIgMTE3Ljc1NCAyMi4yMjU5QzExNy43MTUgMjIuMjE0MyAxMTcuNjc4IDIyLjIyNjcgMTE3LjY2OSAyMi4yNjQzQzExNy42NTYgMjIuMzEwOCAxMTcuNjUxIDIyLjM2MTMgMTE3LjY1NyAyMi40MDg0QzExNy42NjIgMjIuNDU1NCAxMTcuNzUgMjIuNDcwNyAxMTcuNzggMjIuNDMxNkMxMTcuOCAyMi40MDYyIDExNy44MDkgMjIuMzczMiAxMTcuODI0IDIyLjM0MzhaTTE0MS45NTUgMjguNTEyM0MxNDEuODM3IDI4LjUxNDEgMTQxLjgxMSAyOC41Mjc2IDE0MS44MzcgMjguNTY4M0MxNDEuODU1IDI4LjU5NTUgMTQxLjg4NCAyOC42MTY0IDE0MS45MTIgMjguNjM0NEMxNDEuOTI2IDI4LjY0MjggMTQxLjk0OCAyOC42Mzk5IDE0MS45NjYgMjguNjM5OUMxNDIuMDM1IDI4LjYzODkgMTQyLjA5NSAyOC42MDE5IDE0Mi4wODUgMjguNTU1M0MxNDIuMDY4IDI4LjQ3ODEgMTQxLjk5OSAyOC41MTg5IDE0MS45NTUgMjguNTEyM1pNMTU0LjA1MSAyNi44ODkzQzE1NC4wMjggMjYuODUxNyAxNTQuMDE3IDI2LjgxNzkgMTUzLjk5MyAyNi43OTcyQzE1My45NjIgMjYuNzY5OCAxNTMuOTI3IDI2Ljc4MDYgMTUzLjkwNSAyNi44MTY1QzE1My44ODcgMjYuODQ1MSAxNTMuODczIDI2Ljg3NTggMTUzLjg1NyAyNi45MDUxQzE1My44MzcgMjYuOTQwMyAxNTMuODM1IDI2Ljk3NzMgMTUzLjg2NiAyNi45OTIxQzE1My44OTEgMjcuMDA0IDE1My45MzUgMjcuMDA2NiAxNTMuOTU1IDI2Ljk5MjRDMTUzLjk5NCAyNi45NjUxIDE1NC4wMjEgMjYuOTIyOCAxNTQuMDUxIDI2Ljg4OTNaTTEyMi45NjYgMjAuMDExOEMxMjIuOTY2IDE5Ljk2NDUgMTIyLjkwMSAxOS45MTU4IDEyMi44NjUgMTkuOTQwNEMxMjIuODQxIDE5Ljk1NjUgMTIyLjgxNyAxOS45OTA0IDEyMi44MTcgMjAuMDE2OEMxMjIuODE3IDIwLjA0MTkgMTIyLjg0MiAyMC4wNzUgMTIyLjg2NiAyMC4wOUMxMjIuOTAxIDIwLjExNDEgMTIyLjk2NSAyMC4wNjEgMTIyLjk2NiAyMC4wMTE4Wk0xNDkuMzY1IDI2LjkwNjRDMTQ5LjM4OSAyNi44ODkgMTQ5LjQxNSAyNi44NzgxIDE0OS40MTQgMjYuODY4NkMxNDkuNDA5IDI2LjgxMTggMTQ5LjM2OSAyNi43ODA5IDE0OS4zMiAyNi43NTkyQzE0OS4yODEgMjYuNzQyNSAxNDkuMjUgMjYuNzQ5NCAxNDkuMjMyIDI2Ljc4NTFDMTQ5LjIyNyAyNi43OTYyIDE0OS4yMzUgMjYuODIyOSAxNDkuMjQ1IDI2LjgzMDZDMTQ5LjI4NCAyNi44NTg4IDE0OS4zMjcgMjYuODgzMiAxNDkuMzY1IDI2LjkwNjRaTTE1NC4zNzEgMTAuNzU2M0MxNTQuMzkzIDEwLjczNjUgMTU0LjQxMyAxMC43MjY5IDE1NC40MTYgMTAuNzEzN0MxNTQuNDMgMTAuNjU5NSAxNTQuNDE5IDEwLjYwOTMgMTU0LjM3NSAxMC41NzEyQzE1NC4zNjMgMTAuNTYwNiAxNTQuMzQyIDEwLjU1MDMgMTU0LjMyOCAxMC41NTNDMTU0LjI4NSAxMC41NjA2IDE1NC4yNjggMTAuNTkxMSAxNTQuMjg4IDEwLjYyODZDMTU0LjMxMSAxMC42NzIyIDE1NC4zNDMgMTAuNzEyNyAxNTQuMzcxIDEwLjc1NjNaTTE0OS40NzEgMjYuNTY5NkMxNDkuNDk5IDI2LjU1NTMgMTQ5LjUzNyAyNi41NDg1IDE0OS41NTQgMjYuNTI2M0MxNDkuNTc4IDI2LjQ5NTMgMTQ5LjU2MSAyNi40NjIzIDE0OS41MjYgMjYuNDQ0QzE0OS40ODEgMjYuNDIxIDE0OS40MTcgMjYuNDUyNSAxNDkuNDIxIDI2LjQ5ODhDMTQ5LjQyMyAyNi41MjM2IDE0OS40NTMgMjYuNTQ1OCAxNDkuNDcxIDI2LjU2OTZaTTE1MC42NjIgMjYuMDk2MUMxNTAuNjc2IDI2LjA1ODMgMTUwLjY2NCAyNi4wMzA2IDE1MC42MjggMjYuMDEyM0MxNTAuNTk0IDI1Ljk5NTcgMTUwLjU2NiAyNi4wMDIzIDE1MC41NDIgMjYuMDMxMUMxNTAuNTExIDI2LjA2ODYgMTUwLjUzNSAyNi4xMzYzIDE1MC41ODQgMjYuMTM2OEMxNTAuNjEgMjYuMTM3NCAxNTAuNjM3IDI2LjExMDkgMTUwLjY2MiAyNi4wOTYxWk0xMjAuODcgMjUuOTM5M0MxMjAuODUxIDI1LjkgMTIwLjgyIDI1Ljg4NTkgMTIwLjc4MSAyNS45MDIxQzEyMC43NCAyNS45MTg3IDEyMC43MjUgMjUuOTUxIDEyMC43NDIgMjUuOTg5MUMxMjAuNzU5IDI2LjAyNzcgMTIwLjc5MyAyNi4wNDI3IDEyMC44MyAyNi4wMjcxQzEyMC44NyAyNi4wMTEgMTIwLjg4MiAyNS45Nzc5IDEyMC44NyAyNS45MzkzWk0xMjAuNzMzIDI1LjM3NjJDMTIwLjcyIDI1LjM2NzIgMTIwLjcwNyAyNS4zNDkzIDEyMC42OTUgMjUuMzQ5OEMxMjAuNjEyIDI1LjM1NDggMTIwLjU2NCAyNS4zODk1IDEyMC41NDcgMjUuNDU2MUMxMjAuNTQ1IDI1LjQ2NjEgMTIwLjU1OCAyNS40ODc4IDEyMC41NyAyNS40OTI4QzEyMC42NDUgMjUuNTI0NSAxMjAuNzQ0IDI1LjQ1MjkgMTIwLjczMyAyNS4zNzYyWk0xMTkuMjA1IDI3Ljc2N0MxMTkuMTg3IDI3Ljc1MDMgMTE5LjE3NiAyNy43MzMxIDExOS4xNiAyNy43Mjg0QzExOS4xNDUgMjcuNzIzOSAxMTkuMTIgMjcuNzI1NyAxMTkuMTA5IDI3LjczNTNDMTE5LjA2NiAyNy43NzIzIDExOS4wNSAyNy44MjA5IDExOS4wNTUgMjcuODc2MkMxMTkuMDU5IDI3LjkxNzkgMTE5LjA3OSAyNy45NDI1IDExOS4xMTIgMjcuOTM4OEMxMTkuMTI3IDI3LjkzNzIgMTE5LjE0NyAyNy45MjMyIDExOS4xNTIgMjcuOTFDMTE5LjE3MyAyNy44NjI5IDExOS4xODkgMjcuODEzNSAxMTkuMjA1IDI3Ljc2N1pNMTE0LjUxNSAxNi4wMTEzQzExNC41MTggMTUuOTc0OCAxMTQuNTAzIDE1Ljk0NTcgMTE0LjQ2NSAxNS45MzNDMTE0LjQyNSAxNS45MTkzIDExNC4zOTMgMTUuOTM1MSAxMTQuMzc0IDE1Ljk3MzJDMTE0LjM1IDE2LjAyMTMgMTE0LjM5NSAxNi4wOTI3IDExNC40NDMgMTYuMDc2NkMxMTQuNDcxIDE2LjA2NzEgMTE0LjQ5MSAxNi4wMzQgMTE0LjUxNSAxNi4wMTEzWk0xMjkuNTQyIDIyLjQ0NjRDMTI5LjUyNSAyMi40MTg3IDEyOS41MTEgMjIuMzg4MyAxMjkuNDkgMjIuMzYzN0MxMjkuNDgyIDIyLjM1MzkgMTI5LjQ1NiAyMi4zNDk3IDEyOS40NDQgMjIuMzU1NUMxMjkuNDA2IDIyLjM3MzUgMTI5LjM5OCAyMi40MDQ3IDEyOS40MTcgMjIuNDQwNkMxMjkuNDM1IDIyLjQ3NjggMTI5LjQ2NSAyMi40OTExIDEyOS41MDMgMjIuNDc4NEMxMjkuNTE4IDIyLjQ3MzQgMTI5LjUyOSAyMi40NTczIDEyOS41NDIgMjIuNDQ2NFpNMTIxLjM0NCAyNS4yODRDMTIxLjQwNyAyNS4yODkzIDEyMS40NDcgMjUuMjUxNCAxMjEuNDM0IDI1LjE5NjJDMTIxLjQzIDI1LjE4MjcgMTIxLjQxMyAyNS4xNjM5IDEyMS40IDI1LjE2MjZDMTIxLjM0OSAyNS4xNTczIDEyMS4yOTYgMjUuMjA5MSAxMjEuMzA4IDI1LjI1MzNDMTIxLjMxMSAyNS4yNjU3IDEyMS4zMzIgMjUuMjczOSAxMjEuMzQ0IDI1LjI4NFpNMTU1LjEyMyAxMy40ODAxQzE1NS4xMDggMTMuNDQzNyAxNTUuMDc5IDEzLjQyMjUgMTU1LjA0IDEzLjQzMzZDMTU1LjAwOSAxMy40NDIxIDE1NC45ODIgMTMuNDY1MyAxNTQuOTUzIDEzLjQ4MkMxNTQuOTgyIDEzLjQ5ODkgMTU1LjAwOCAxMy41MjMyIDE1NS4wMzkgMTMuNTMwNEMxNTUuMDc4IDEzLjUzOTYgMTU1LjEwNyAxMy41MTY2IDE1NS4xMjMgMTMuNDgwMVpNMTI4LjAxOSAxLjI0MzU0QzEyOC4wMjcgMS4yNTY0OSAxMjguMDMyIDEuMjc1NzkgMTI4LjA0NCAxLjI4MTA4QzEyOC4wODIgMS4yOTc3MyAxMjguMTE0IDEuMjg0NzggMTI4LjEzMSAxLjI0NjcxQzEyOC4xMzYgMS4yMzI5NiAxMjguMTM2IDEuMjExODEgMTI4LjEyOSAxLjE5ODg2QzEyOC4xMjIgMS4xODc0OSAxMjguMDk2IDEuMTczNDggMTI4LjA5IDEuMTc2OTFDMTI4LjA2NSAxLjE5NjIxIDEyOC4wNDMgMS4yMjAyNyAxMjguMDE5IDEuMjQzNTRaTTExMy43NTEgMTEuMzM0N0MxMTMuNzg3IDExLjM1MDYgMTEzLjgyIDExLjMzODIgMTEzLjgzOSAxMS4zMDE3QzExMy44NDYgMTEuMjg4MiAxMTMuODQ3IDExLjI2NjMgMTEzLjg0IDExLjI1MjhDMTEzLjgzNSAxMS4yNDExIDExMy44MDggMTEuMjI2MyAxMTMuODAzIDExLjIyOThDMTEzLjc3NiAxMS4yNDkxIDExMy43NTIgMTEuMjcyMSAxMTMuNzMgMTEuMjk3MkMxMTMuNzI3IDExLjMwMTcgMTEzLjc0IDExLjMyOTcgMTEzLjc1MSAxMS4zMzQ3Wk0xMTUuODQxIDYuODY1NzRDMTE1Ljg3MyA2LjgzODI1IDExNS45NCA2LjgxMjYgMTE1Ljg2NSA2Ljc2NTI4QzExNS44NTUgNi43NTkyIDExNS44MTYgNi43OTQzNiAxMTUuNzk1IDYuODE0OThDMTE1Ljc4OSA2LjgyMDggMTE1Ljc5NSA2Ljg0NjQ0IDExNS44MDQgNi44NTY0OUMxMTUuODExIDYuODY0OTUgMTE1LjgzNiA2Ljg3MDc2IDExNS44NDEgNi44NjU3NFpNMTI1IDQuMjYxMTFDMTI0Ljk2OSA0LjI3MzggMTI0LjkyNyA0LjI3ODAzIDEyNC45MDcgNC4zMDA3N0MxMjQuODggNC4zMzMwMiAxMjQuODk2IDQuMzgwMDggMTI0LjkzNyA0LjM4NjQzQzEyNC45NjUgNC4zOTA5MiAxMjUgNC4zNjMxNiAxMjUuMDI5IDQuMzQzODZDMTI1LjAzOSA0LjMzNjczIDEyNS4wNDMgNC4zMTAwMiAxMjUuMDM5IDQuMjk2OEMxMjUuMDMzIDQuMjgyMjYgMTI1LjAxNCA0LjI3MzI4IDEyNSA0LjI2MTExWk0xMTUuMDg2IDE5LjQyMTdDMTE1LjA5NSAxOS4zODQ0IDExNS4wNzMgMTkuMzQ0OCAxMTUuMDM3IDE5LjM0NDVDMTE1LjAwMyAxOS4zNDQyIDExNC45ODggMTkuMzgzMSAxMTQuOTg5IDE5LjQyMkMxMTQuOTkgMTkuNDYwMyAxMTUuMDA0IDE5LjQ5NzMgMTE1LjAzOSAxOS40OTg5QzExNS4wNTQgMTkuNDk5NyAxMTUuMDc5IDE5LjQ1MDggMTE1LjA4NiAxOS40MjE3Wk0xMzkuMDU2IDIuMjEzNzlDMTM5LjA0NCAyLjIyMTQ2IDEzOS4wMjYgMi4yMjYyMiAxMzkuMDIxIDIuMjM3MDZDMTM5LjAxNyAyLjI0NTI1IDEzOS4wMjggMi4yNjkzMSAxMzkuMDM3IDIuMjcxNDNDMTM5LjA3NyAyLjI4MjUzIDEzOS4xIDIuMjY3MiAxMzkuMDk0IDIuMjM0MTVDMTM5LjA5MiAyLjIyNTQzIDEzOS4wNjkgMi4yMjA2NyAxMzkuMDU2IDIuMjEzNzlaTTEyMi4wNjEgMzAuMzUxNUMxMjIuMDU3IDMwLjM0MDcgMTIyLjA1NyAzMC4zMjQgMTIyLjA1IDMwLjMyMDZDMTIyLjAzOCAzMC4zMTQ1IDEyMi4wMTggMzAuMzA5NyAxMjIuMDA5IDMwLjMxNThDMTIxLjk3NiAzMC4zMzU5IDEyMS45ODIgMzAuMzU2NSAxMjIuMDIzIDMwLjM2NTVDMTIyLjAzNCAzMC4zNjc5IDEyMi4wNDggMzAuMzU2MyAxMjIuMDYxIDMwLjM1MTVaTTEyNC4wNyAyLjMyNTg5QzEyNC4wNzIgMi4zMTA4MiAxMjQuMDc5IDIuMjkzOSAxMjQuMDc1IDIuMjgxMjFDMTI0LjA3MiAyLjI3MTE2IDEyNC4wNSAyLjI1Nzk1IDEyNC4wNDMgMi4yNjA4NUMxMjQuMDMxIDIuMjY1MzUgMTI0LjAxOSAyLjI4MTc0IDEyNC4wMTcgMi4yOTQxNkMxMjQuMDE2IDIuMzA2ODUgMTI0LjAyNCAyLjMyNDU3IDEyNC4wMzQgMi4zMzMwM0MxMjQuMDQgMi4zMzc3OSAxMjQuMDU3IDIuMzI5MDYgMTI0LjA3IDIuMzI1ODlaTTEzOC42MzUgMi4xNDk4MkMxMzguNjMzIDIuMTM4NzEgMTM4LjYzNSAyLjEyMjMyIDEzOC42MjggMi4xMTgzNUMxMzguNjE3IDIuMTExMjIgMTM4LjU5OCAyLjEwNTQgMTM4LjU4NyAyLjExMDQyQzEzOC41NSAyLjEyODE0IDEzOC41NTQgMi4xNDk1NSAxMzguNTk2IDIuMTYxNDVDMTM4LjYwNyAyLjE2NDg4IDEzOC42MjIgMi4xNTQzMSAxMzguNjM1IDIuMTQ5ODJaTTEzNy4zMzYgMi4xNTgwMUMxMzcuMzExIDIuMTk2NjEgMTM3LjMxOCAyLjIxNjcgMTM3LjM1NyAyLjIxMTE1QzEzNy4zNjMgMi4yMTAzNiAxMzcuMzcgMi4xODQ5NyAxMzcuMzY5IDIuMTcxNDlDMTM3LjM2OCAyLjE2NjIgMTM3LjM0OCAyLjE2MjUgMTM3LjMzNiAyLjE1ODAxWk0xMjEuMDYyIDMuNDQzNEMxMjEuMDU5IDMuNDMxNzcgMTIxLjA2IDMuNDE0MzIgMTIxLjA1MiAzLjQwOTgzQzEyMS4wNDEgMy40MDI0MiAxMjEuMDE5IDMuMzk2NjEgMTIxLjAwOSAzLjQwMjQyQzEyMC45NzMgMy40MjM4NCAxMjAuOTc5IDMuNDQ2ODQgMTIxLjAyMiAzLjQ1NzY4QzEyMS4wMzMgMy40NjAzMiAxMjEuMDQ4IDMuNDQ4NjkgMTIxLjA2MiAzLjQ0MzRaTTEyMC40NzYgMy41MDk3NkMxMjAuNDY0IDMuNTE2OSAxMjAuNDQ3IDMuNTIxOTIgMTIwLjQ0MyAzLjUzMjVDMTIwLjQzOSAzLjUzOTkgMTIwLjQ1MSAzLjU2MjExIDEyMC40NiAzLjU2NDIyQzEyMC40OTkgMy41NzQgMTIwLjUyIDMuNTU4OTMgMTIwLjUxMiAzLjUyNzc0QzEyMC41MDkgMy41MTkyOCAxMjAuNDg5IDMuNTE1NTggMTIwLjQ3NiAzLjUwOTc2Wk0xMjUuNjc2IDMuOTUzMzhDMTI1LjY2MSAzLjk0ODM2IDEyNS42NDUgMy45Mzc3OCAxMjUuNjMyIDMuOTQwMTZDMTI1LjYxNyAzLjk0MjI4IDEyNS42MDQgMy45NTY1NSAxMjUuNTkxIDMuOTY1ODFDMTI1LjYwMyAzLjk3NzE3IDEyNS42MTIgMy45OTM4MyAxMjUuNjI1IDMuOTk4MDZDMTI1LjYzOSA0LjAwMjI5IDEyNS42NTggMy45OTcgMTI1LjY3IDMuOTg5MDdDMTI1LjY3NyAzLjk4NDA1IDEyNS42NzQgMy45NjU4MSAxMjUuNjc2IDMuOTUzMzhaTTExOC44NzkgNC4zMDAyNEMxMTguODcxIDQuMjg3ODIgMTE4Ljg2NiA0LjI2OTA1IDExOC44NTUgNC4yNjQ4MkMxMTguODQyIDQuMjYwMDYgMTE4LjgxNyA0LjI2MjE3IDExOC44MDkgNC4yNzExNkMxMTguNzgzIDQuMzAwMjQgMTE4Ljc5NiA0LjMyMjk4IDExOC44NDEgNC4zMjQ4M0MxMTguODUzIDQuMzI1MDkgMTE4Ljg2NiA0LjMwODcgMTE4Ljg3OSA0LjMwMDI0Wk0xNDYuOTg1IDI2LjY3NzVDMTQ2Ljk4MSAyNi42NjQ1IDE0Ni45NzkgMjYuNjQxIDE0Ni45NzUgMjYuNjQwN0MxNDYuOTYgMjYuNjM5NCAxNDYuOTQ0IDI2LjY0NiAxNDYuOTI5IDI2LjY0OTVDMTQ2LjkzMiAyNi42NjIxIDE0Ni45MzQgMjYuNjg0OSAxNDYuOTM5IDI2LjY4NTdDMTQ2Ljk1MyAyNi42ODc4IDE0Ni45NjkgMjYuNjgxMiAxNDYuOTg1IDI2LjY3NzVaTTEyNC4zMjcgNC41OTA3OUMxMjQuMzE1IDQuNTk3OTMgMTI0LjI5OSA0LjYwMjQyIDEyNC4yOTMgNC42MTI3M0MxMjQuMjkgNC42MTkzNCAxMjQuMzAxIDQuNjQyMDggMTI0LjMxIDQuNjQzOTNDMTI0LjM0OCA0LjY1MjY1IDEyNC4zNjkgNC42MzgzOCAxMjQuMzYyIDQuNjA4NUMxMjQuMzYgNC42MDA1NyAxMjQuMzM5IDQuNTk2NiAxMjQuMzI3IDQuNTkwNzlaTTEyNi4xMjkgMS44MzIwM0MxMjYuMTA0IDEuODcwMzcgMTI2LjExMSAxLjg5MDczIDEyNi4xNDggMS44ODUxN0MxMjYuMTU1IDEuODg0MTIgMTI2LjE2MSAxLjg1OSAxMjYuMTYgMS44NDUyNUMxMjYuMTYgMS44NDA1IDEyNi4xNCAxLjgzNiAxMjYuMTI5IDEuODMyMDNaTTE0Ny44MDcgMjUuODExMUMxNDcuODQ3IDI1LjgzNDQgMTQ3Ljg2NyAyNS44MjcgMTQ3Ljg2MSAyNS43ODk0QzE0Ny44NjEgMjUuNzgzOSAxNDcuODM0IDI1Ljc3NzYgMTQ3LjgyMSAyNS43NzkxQzE0Ny44MTUgMjUuNzc5NyAxNDcuODEyIDI1Ljc5OTggMTQ3LjgwNyAyNS44MTExWk0xNTAuNTIxIDI1LjY5NjlDMTUwLjUwOSAyNS42ODc3IDE1MC40OTcgMjUuNjY5MiAxNTAuNDg2IDI1LjY3MDVDMTUwLjQzIDI1LjY3NzEgMTUwLjQyNyAyNS42OTY5IDE1MC40NzkgMjUuNzE1NEMxNTAuNDkgMjUuNzE5MSAxNTAuNTA3IDI1LjcwMzggMTUwLjUyMSAyNS42OTY5Wk0xNTUuMDY0IDI1LjQyODNDMTU1LjA1NCAyNS4zNzM5IDE1NS4wMzYgMjUuMzcwNyAxNTUuMDE2IDI1LjQyMjJDMTU1LjAxMyAyNS40MzIzIDE1NS4wMjkgMjUuNDQ5NSAxNTUuMDM1IDI1LjQ2MzVDMTU1LjA0NSAyNS40NTE4IDE1NS4wNTQgMjUuNDM5OSAxNTUuMDY0IDI1LjQyODNaTTE1MC42MzggMjQuNzE1QzE1MC42NTMgMjQuNzUyIDE1MC42ODEgMjQuNzY2OCAxNTAuNzIgMjQuNzUzNkMxNTAuNzMzIDI0Ljc0ODMgMTUwLjc1NCAyNC43MjgyIDE1MC43NTIgMjQuNzIwNkMxNTAuNzQyIDI0LjY4MTIgMTUwLjcxMiAyNC42NjU5IDE1MC42NzMgMjQuNjgwNEMxNTAuNjU5IDI0LjY4NTQgMTUwLjY1IDI0LjcwMzQgMTUwLjYzOCAyNC43MTVaTTEyMS44NzIgMjIuNTM0NUMxMjEuODczIDIyLjUyMDcgMTIxLjg4IDIyLjUwNTQgMTIxLjg3NiAyMi40OTM1QzEyMS44NzMgMjIuNDg0OCAxMjEuODU3IDIyLjQ3OTIgMTIxLjg0NyAyMi40NzI5QzEyMS44NCAyMi40ODM3IDEyMS44MjcgMjIuNDk0NSAxMjEuODI2IDIyLjUwNTlDMTIxLjgyNSAyMi41MTc4IDEyMS44MzIgMjIuNTMzNCAxMjEuODQxIDIyLjU0MjdDMTIxLjg0NCAyMi41NDYxIDEyMS44NjEgMjIuNTM3OSAxMjEuODcyIDIyLjUzNDVaTTEyMS41MDcgMjIuMzU3OUMxMjEuNTAzIDIyLjM0NTQgMTIxLjUwNCAyMi4zMjY0IDEyMS40OTYgMjIuMzIxNkMxMjEuNDgzIDIyLjMxNCAxMjEuNDYgMjIuMzA3OSAxMjEuNDQ5IDIyLjMxNEMxMjEuNDExIDIyLjMzNzIgMTIxLjQxNiAyMi4zNjI0IDEyMS40NjMgMjIuMzc0M0MxMjEuNDc2IDIyLjM3NzQgMTIxLjQ5MiAyMi4zNjM5IDEyMS41MDcgMjIuMzU3OVpNMTE2LjQ1NSAyMC45MTA5QzExNi40NjggMjAuOTA3OCAxMTYuNDkxIDIwLjkwNDYgMTE2LjQ5MSAyMC45MDA5QzExNi40OTEgMjAuODg2MSAxMTYuNDg0IDIwLjg3MSAxMTYuNDggMjAuODU1N0MxMTYuNDY4IDIwLjg1OTYgMTE2LjQ0NSAyMC44NjIzIDExNi40NDUgMjAuODY2NUMxMTYuNDQ0IDIwLjg4MTMgMTE2LjQ1MSAyMC44OTU5IDExNi40NTUgMjAuOTEwOVpNMTI3LjAxOSAyMC4xNzQ5QzEyNy4wMDUgMjAuMTg1NSAxMjYuOTg2IDIwLjE5MzIgMTI2Ljk4IDIwLjIwNjZDMTI2Ljk2MyAyMC4yNDQ3IDEyNi45NzUgMjAuMjc2NCAxMjcuMDE1IDIwLjI4ODlDMTI3LjAyNCAyMC4yOTIgMTI3LjA0OCAyMC4yNzMgMTI3LjA1NCAyMC4yNTk1QzEyNy4wNzEgMjAuMjIyIDEyNy4wNTcgMjAuMTkyNiAxMjcuMDE5IDIwLjE3NDlaTTEyOC40MjggMS40OTg2NkMxMjguNDI1IDEuNDg3MjkgMTI4LjQyNiAxLjQ3MDYzIDEyOC40MTkgMS40NjYxNEMxMjguNDA3IDEuNDU5MjYgMTI4LjM4NiAxLjQ1MzcxIDEyOC4zNzcgMS40NTk1M0MxMjguMzQzIDEuNDgwMTUgMTI4LjM0OSAxLjUwMjA5IDEyOC4zOSAxLjUxMjRDMTI4LjQwMSAxLjUxNTMxIDEyOC40MTUgMS41MDM2OCAxMjguNDI4IDEuNDk4NjZaTTEzMC40MTEgMjAuMDg5M0MxMzAuMzgzIDIwLjEzMjkgMTMwLjM5MiAyMC4xNTQ4IDEzMC40MzYgMjAuMTQ4MkMxMzAuNDQzIDIwLjE0NzIgMTMwLjQ1IDIwLjExODkgMTMwLjQ0OCAyMC4xMDM4QzEzMC40NDggMjAuMDk4MiAxMzAuNDI0IDIwLjA5NCAxMzAuNDExIDIwLjA4OTNaTTExNS4wMjQgMTkuOTdDMTE1LjAxNyAxOS45NTg3IDExNS4wMTIgMTkuOTQxNyAxMTUuMDAzIDE5LjkzOEMxMTQuOTkxIDE5LjkzMzMgMTE0Ljk2OSAxOS45MzQxIDExNC45NjEgMTkuOTQxN0MxMTQuOTM3IDE5Ljk2NzYgMTE0Ljk0OCAxOS45ODgzIDExNC45ODkgMTkuOTkwOUMxMTUgMTkuOTkxNCAxMTUuMDEyIDE5Ljk3NzQgMTE1LjAyNCAxOS45N1pNMTUyLjk3NiAxMy43NTkxQzE1Mi45NjYgMTMuNzA0MyAxNTIuOTQ4IDEzLjcwMTQgMTUyLjkyOSAxMy43NTI3QzE1Mi45MjUgMTMuNzYzIDE1Mi45NDEgMTMuNzgwNSAxNTIuOTQ3IDEzLjc5NDVDMTUyLjk1NyAxMy43ODIzIDE1Mi45NjcgMTMuNzcxIDE1Mi45NzYgMTMuNzU5MVpNMTEzLjA3NiAxMy43OTM3QzExMy4wNzggMTMuODA1MSAxMTMuMDc4IDEzLjgyMiAxMTMuMDg1IDEzLjgyNjVDMTEzLjA5NyAxMy44MzMxIDExMy4xMTcgMTMuODM3OCAxMTMuMTI3IDEzLjgzMkMxMTMuMTYxIDEzLjgxMTQgMTEzLjE1NiAxMy43ODk3IDExMy4xMTQgMTMuNzc5N0MxMTMuMTAzIDEzLjc3NyAxMTMuMDg5IDEzLjc4ODcgMTEzLjA3NiAxMy43OTM3Wk0xMTUuODYxIDEzLjg4NkMxMTUuODQ4IDEzLjg5MzQgMTE1LjgzMSAxMy44OTg0IDExNS44MjUgMTMuOTA5MkMxMTUuODIyIDEzLjkxNTMgMTE1LjgzNSAxMy45Mzk0IDExNS44NDQgMTMuOTQxNUMxMTUuODg0IDEzLjk1MSAxMTUuOTA2IDEzLjkzNTcgMTE1Ljg5OSAxMy45MDQyQzExNS44OTcgMTMuODk1NSAxMTUuODc0IDEzLjg5MTggMTE1Ljg2MSAxMy44ODZaTTE0Ni40MTQgMTYuMzQyQzE0Ni40NDkgMTYuMzc5MyAxNDYuNDgxIDE2LjQxODQgMTQ2LjUxOCAxNi40NTM4QzE0Ni41NjcgMTYuNTAxNyAxNDYuNjEyIDE2LjU1OTggMTQ2LjY3MSAxNi41ODk1QzE0Ni43MyAxNi42MTg4IDE0Ni44MDUgMTYuNjEzMiAxNDYuODcgMTYuNjMxMkMxNDYuOTU2IDE2LjY1NTMgMTQ3LjAyNyAxNi43MDU1IDE0Ny4wNzcgMTYuNzgwM0wxNDcuMDY3IDE2Ljc3MjRDMTQ3LjE4NyAxNi43OTQzIDE0Ny4zMDggMTYuODE3MyAxNDcuNDMgMTYuODM2MUMxNDcuNDQxIDE2LjgzOCAxNDcuNDYxIDE2LjgxNjggMTQ3LjQ2OCAxNi44MDJDMTQ3LjQ3NSAxNi43ODgzIDE0Ny40NzggMTYuNzYyNiAxNDcuNDcgMTYuNzUzMUMxNDcuMzQ1IDE2LjYwNTMgMTQ3LjE2IDE2LjUxNzggMTQ3LjA1OSAxNi4zNDU0QzE0Ny4wMjkgMTYuMjk0MiAxNDYuOTk1IDE2LjI5MzYgMTQ2LjkyMiAxNi4zMzY3QzE0Ni44NiAxNi4zNzI3IDE0Ni44MDYgMTYuNDE3NiAxNDYuNzI3IDE2LjM4NTlDMTQ2LjYyNSAxNi4zNDU0IDE0Ni41MTggMTYuMzQwOSAxNDYuNDEgMTYuMzQ3TDE0Ni40MTQgMTYuMzQyWk0xMjEuMDI1IDI0LjY5MDJDMTIwLjkzOCAyNC42NjM3IDEyMC44NDggMjQuNjY1OSAxMjAuNzY5IDI0LjcxOUMxMjAuNzU2IDI0LjcyNzcgMTIwLjc0NCAyNC43NDY1IDEyMC43NDMgMjQuNzYxM0MxMjAuNzQyIDI0Ljc3NDIgMTIwLjc2MiAyNC44MDA0IDEyMC43NjQgMjQuNzk5NkMxMjAuODY4IDI0Ljc2MzQgMTIwLjk2OSAyNC44MTQ3IDEyMS4wNyAyNC44MDM2QzEyMS4wNzkgMjQuODAyNSAxMjEuMDg2IDI0Ljc3NjkgMTIxLjA5MyAyNC43NjMxQzEyMS4wNzEgMjQuNzM3NSAxMjEuMDUzIDI0LjY5ODQgMTIxLjAyNSAyNC42OTAyWk0xNTEuOTExIDI5Ljc0MTZDMTUxLjg2MSAyOS44MzE1IDE1MS43NzUgMjkuODQ5NyAxNTEuNjgyIDI5Ljg1NThMMTUxLjY4NyAyOS44NTAzQzE1MS44MjggMjkuOTYzOSAxNTEuOTMgMjkuOTYxOCAxNTIuMDQ1IDI5LjgzNjVDMTUyLjA2OSAyOS44MTAzIDE1Mi4wNSAyOS43NzYgMTUyLjAwOCAyOS43NjNDMTUxLjk3NSAyOS43NTMyIDE1MS45MzkgMjkuNzUyMiAxNTEuOTA0IDI5Ljc0NzRMMTUxLjkxMSAyOS43NDE2Wk0xMTMuMTY5IDE5LjAzNjJDMTEzLjE1NSAxOS4wODgxIDExMy4xODEgMTkuMTM1NyAxMTMuMjIzIDE5LjE3QzExMy4yMzUgMTkuMTgwMyAxMTMuMjY3IDE5LjE4ODUgMTEzLjI3IDE5LjE4NTFDMTEzLjI4NyAxOS4xNTc5IDExMy4zMDcgMTkuMTI4NSAxMTMuMzEgMTkuMDk3OEMxMTMuMzE2IDE5LjA0NiAxMTMuMjkzIDE5LjAwMjQgMTEzLjIzOSAxOC45ODEzQzExMy4yMTUgMTguOTk4NyAxMTMuMTc2IDE5LjAxMzIgMTEzLjE2OSAxOS4wMzYyWk0xNTYuMjk4IDIxLjA5NTJDMTU2LjMyMSAyMS4wNjkgMTU2LjM1NCAyMS4wNDY4IDE1Ni4zNjYgMjEuMDE2N0MxNTYuNDA1IDIwLjkxNDEgMTU2LjQwMiAyMC44MDY1IDE1Ni4zODkgMjAuNjk5N0MxNTYuMzg2IDIwLjY4MzMgMTU2LjM3MiAyMC42Njg4IDE1Ni4zNjMgMjAuNjUzN0MxNTYuMzUzIDIwLjY2MTEgMTU2LjMzMyAyMC42NjgyIDE1Ni4zMzMgMjAuNjc2NEMxNTYuMzIyIDIwLjgxNzYgMTU2LjMxNCAyMC45NTkzIDE1Ni4zMDUgMjEuMTAxTDE1Ni4yOTggMjEuMDk1MlpNMTQ3LjA1NiAzMS40OTJDMTQ2Ljk2NSAzMS40NzI1IDE0Ni44ODggMzEuNDk3NiAxNDYuODI4IDMxLjU2NzlDMTQ2LjgxNyAzMS41ODAzIDE0Ni44MDQgMzEuNjAxNSAxNDYuODA5IDMxLjYxMzFDMTQ2LjgyMiAzMS42NTEyIDE0Ni44NTYgMzEuNjY3IDE0Ni44OTIgMzEuNjUxMkMxNDYuOTU0IDMxLjYyNDIgMTQ3LjAxMyAzMS41OTI3IDE0Ny4wNzIgMzEuNTU5N0MxNDcuMDg0IDMxLjU1MzQgMTQ3LjA4OSAzMS41MzQxIDE0Ny4wOTcgMzEuNTIxMUMxNDcuMDgzIDMxLjUxMTMgMTQ3LjA3MSAzMS40OTU3IDE0Ny4wNTYgMzEuNDkyWk0xMjUuMzI4IDEuMzk4NzNDMTI1LjM2NyAxLjM4NTc3IDEyNS4zOTIgMS4zNTYxNiAxMjUuMzg1IDEuMzE2MjRDMTI1LjM3NSAxLjI3MDUgMTI1LjM0MiAxLjI1OTY2IDEyNS4yOTkgMS4yODAwMkMxMjUuMjgzIDEuMjg3OTUgMTI1LjI2NCAxLjI5MjcxIDEyNS4yNSAxLjMwMzgxQzEyNS4yMjQgMS4zMjYyOCAxMjUuMiAxLjM1MjE5IDEyNS4xNzUgMS4zNzY3OEMxMjUuMjA4IDEuMzg3NjIgMTI1LjI0MiAxLjM5ODQ2IDEyNS4yNzUgMS40MDkwNEMxMjUuMjkyIDEuNDA1ODYgMTI1LjMxMSAxLjQwNDI4IDEyNS4zMjggMS4zOTg3M1pNMTU2LjMwNSAyMS4xMDEzQzE1Ni4yNTYgMjEuMTMwNCAxNTYuMjIyIDIxLjE3MzIgMTU2LjIxNyAyMS4yMjlDMTU2LjIxNSAyMS4yNjE1IDE1Ni4yMzEgMjEuMjk1MSAxNTYuMjM5IDIxLjMyODFDMTU2LjI1NCAyMS4zMDQzIDE1Ni4yNzggMjEuMjgyMSAxNTYuMjg0IDIxLjI1NjJDMTU2LjI5NCAyMS4yMDM2IDE1Ni4yOTQgMjEuMTQ5MSAxNTYuMjk4IDIxLjA5NTVMMTU2LjMwNSAyMS4xMDEzWk0xNDMuNDQzIDAuNDYyNTczQzE0My40MTMgMC40MTM5MjggMTQzLjM2NyAwLjM4NzQ4OSAxNDMuMzEyIDAuMzg0ODQ1QzE0My4yNzkgMC4zODMyNTkgMTQzLjIzOSAwLjM5MDY2NCAxNDMuMjE2IDAuNDA5Njk5QzE0My4yMDUgMC40MTgxNTkgMTQzLjI0NSAwLjQ0OTM1MyAxNDMuMjg5IDAuNDQ5ODgyQzE0My4zNDIgMC40NTA0MSAxNDMuMzk2IDAuNDUyNzg5IDE0My40NSAwLjQ1NDM3NkwxNDMuNDQzIDAuNDYyNTczWk0xNDcuNjI2IDEuNDI2NDhDMTQ3LjY2MiAxLjQ5MzkgMTQ3LjcyMyAxLjUyMjcyIDE0Ny43OTUgMS41MzA5MUMxNDcuODQ3IDEuNTM2NzMgMTQ3LjkgMS41MzM1NSAxNDcuOTUzIDEuNTM0NjFMMTQ3Ljk0NSAxLjU0MzZDMTQ3LjkwMiAxLjQ4Mzg1IDE0Ny44MzggMS40NjYxNCAxNDcuNzcgMS40NTYzNkMxNDcuNzIgMS40NDkyMiAxNDcuNjY5IDEuNDQyMzUgMTQ3LjYxOSAxLjQzNTIxTDE0Ny42MjYgMS40MjY0OFpNMTE0LjMyOCAyMC4xMjE1QzExNC4zNCAyMC4xNjk5IDExNC4zNSAyMC4yMTgzIDExNC4zNjUgMjAuMjY1M0MxMTQuMzcgMjAuMjc5MyAxMTQuMzg3IDIwLjI5MjMgMTE0LjQwMiAyMC4yOTgxQzExNC40MTUgMjAuMzAzNyAxMTQuNDM3IDIwLjMwMzkgMTE0LjQ0OCAyMC4yOTczQzExNC40OCAyMC4yNzc1IDExNC40NzggMjAuMjQ3MyAxMTQuNDQyIDIwLjIxODhDMTE0LjQwMyAyMC4xODcxIDExNC4zNiAyMC4xNTg4IDExNC4zMiAyMC4xMjg5TDExNC4zMjggMjAuMTIxNVpNMTQ4LjUxNSAzMS4xMDc0TDE0OC41MjIgMzEuMDc1NEwxNDguNDcxIDMxLjA4NTdMMTQ4LjUxNSAzMS4xMDc0Wk0xNTQuNDM4IDI3LjI1NDlDMTU0LjQ0MSAyNy4yODc0IDE1NC40NDIgMjcuMzIwNCAxNTQuNDQ5IDI3LjM1MjRDMTU0LjQ2IDI3LjQwMDMgMTU0LjQ4NSAyNy40MDgyIDE1NC41MDggMjcuMzcyNUMxNTQuNTE1IDI3LjM2MjIgMTU0LjUxMSAyNy4zMzY4IDE1NC41MDIgMjcuMzI2NUMxNTQuNDgyIDI3LjMwMjIgMTU0LjQ1NSAyNy4yODI2IDE1NC40MyAyNy4yNjEyTDE1NC40MzggMjcuMjU0OVpNMTIxLjU3MiAyNC45ODc2QzEyMS41OTggMjQuOTY2NSAxMjEuNjMxIDI0Ljk0OTggMTIxLjY0OCAyNC45MjM0QzEyMS42NzIgMjQuODg2MyAxMjEuNjU3IDI0Ljg1NjcgMTIxLjYxOSAyNC44NTU0QzEyMS42MSAyNC44NTQ5IDEyMS41OTYgMjQuODggMTIxLjU5MyAyNC44OTQ1QzEyMS41ODYgMjQuOTI3NiAxMjEuNTg0IDI0Ljk2MTIgMTIxLjU4IDI0Ljk5NDJMMTIxLjU3MiAyNC45ODc2Wk0xNDguMTY4IDEuNjUxMkMxNDguMTE2IDEuNTcxMSAxNDguMDMgMS41NTgxNCAxNDcuOTQ1IDEuNTQzNkwxNDcuOTUzIDEuNTM0NjFDMTQ3Ljk5NyAxLjYyOTc5IDE0OC4wODUgMS42MzgyNSAxNDguMTc1IDEuNjQyNzRMMTQ4LjE2OCAxLjY1MTJaTTE0Ny42MTkgMS40MzQ5NEMxNDcuNTk0IDEuNDEzNTMgMTQ3LjU3MiAxLjM4NjgzIDE0Ny41NDMgMS4zNzI1NUMxNDcuNTAyIDEuMzUxNjcgMTQ3LjQ3NiAxLjM2NTE1IDE0Ny40ODIgMS4zOTc2N0MxNDcuNDg0IDEuNDA2NjYgMTQ3LjUxIDEuNDEzMjcgMTQ3LjUyNiAxLjQxNTkxQzE0Ny41NTkgMS40MjEyIDE0Ny41OTMgMS40MjI3OCAxNDcuNjI2IDEuNDI2MjJMMTQ3LjYxOSAxLjQzNDk0Wk0xMjcuNjE1IDIwLjAxNUMxMjcuNjkyIDIwLjAxNSAxMjcuNzY4IDIwLjAxNDQgMTI3Ljg0NCAyMC4wMTQ0TDEyNy44MzggMjAuMDIyNkMxMjcuNzM0IDE5LjkxIDEyNy43MzQgMTkuOTEgMTI3LjYyMiAyMC4wMjIxTDEyNy42MTUgMjAuMDE1Wk0xMjEuNTcyIDE5LjY5OThDMTIxLjU2NiAxOS42Njc2IDEyMS41NjMgMTkuNjM0OCAxMjEuNTU3IDE5LjYwMjhDMTIxLjU0NyAxOS41NTM5IDEyMS41MjUgMTkuNTQzNiAxMjEuNTAxIDE5LjU3NzdDMTIxLjQ5NSAxOS41ODY5IDEyMS41MDIgMTkuNjEyMSAxMjEuNTExIDE5LjYyMzRDMTIxLjUzMSAxOS42NDg1IDEyMS41NTcgMTkuNjY5NyAxMjEuNTggMTkuNjkyNEwxMjEuNTcyIDE5LjY5OThaTTExMy40MTcgMTkuNjAzNkMxMTMuNDIyIDE5LjU5MiAxMTMuNDIgMTkuNTcxMSAxMTMuNDEyIDE5LjU2MzRDMTEzLjM4NyAxOS41MzggMTEzLjM2NyAxOS41NDgxIDExMy4zNjUgMTkuNTg3N0MxMTMuMzY0IDE5LjU5OTEgMTEzLjM3OCAxOS42MTA1IDExMy4zODUgMTkuNjIyNEMxMTMuMzk3IDE5LjYxNTggMTEzLjQxNCAxOS42MTIzIDExMy40MTcgMTkuNjAzNlpNMTQ2LjE5NiAxNi4yMzI4QzE0Ni4yNDIgMTYuMzIwMyAxNDYuMzI0IDE2LjM0MDQgMTQ2LjQxNCAxNi4zNDJMMTQ2LjQxIDE2LjM0N0MxNDYuMzcxIDE2LjI0MzcgMTQ2LjI4IDE2LjI0MzEgMTQ2LjE5IDE2LjIzOTdMMTQ2LjE5NiAxNi4yMzI4Wk0xNDYuMTkgMTYuMjM5NEMxNDYuMTY4IDE2LjIxNDMgMTQ2LjE1IDE2LjE4MjEgMTQ2LjEyMiAxNi4xNjU5QzE0Ni4wODMgMTYuMTQyNyAxNDYuMDUyIDE2LjE1ODMgMTQ2LjA1MSAxNi4xOTY2QzE0Ni4wNTEgMTYuMjA1NiAxNDYuMDc2IDE2LjIyMDEgMTQ2LjA5MiAxNi4yMjNDMTQ2LjEyNiAxNi4yMjkxIDE0Ni4xNjEgMTYuMjI5NiAxNDYuMTk2IDE2LjIzMjZMMTQ2LjE5IDE2LjIzOTRaTTEzNC4yMTEgMTMuNjM4MkMxMzQuMjAyIDEzLjY1MDkgMTM0LjE5MyAxMy42NjM2IDEzNC4xODMgMTMuNjc2M0MxMzQuMTk1IDEzLjY2NiAxMzQuMjA2IDEzLjY1NTcgMTM0LjIxOCAxMy42NDUxTDEzNC4yMTEgMTMuNjM4MlpNMTMzLjc3NyAyLjI5MTI1QzEzMy43OTcgMi4zMzY5OSAxMzMuODEzIDIuMzQ2MjQgMTMzLjgxIDIuMzIwODZDMTMzLjgwOSAyLjMxMjQgMTMzLjc4MyAyLjMwNjMyIDEzMy43NjkgMi4yOTkxOEwxMzMuNzc3IDIuMjkxMjVaTTEzNS43NDkgMTYuMDI0QzEzNS43MjcgMTUuOTcxOSAxMzUuNjkxIDE1LjkzNDMgMTM1LjYzNyAxNS45MTRMMTM1LjY0NCAxNS45MDc2QzEzNS42NjUgMTUuOTYwOCAxMzUuNzAxIDE1Ljk5ODggMTM1Ljc1NyAxNi4wMTY4TDEzNS43NDkgMTYuMDI0Wk0xNTQuOTg3IDEyLjY2NDNDMTU0Ljk4NyAxMi43MDM5IDE1NC45ODcgMTIuNzQzNiAxNTQuOTg3IDEyLjc4M0wxNTQuOTggMTIuNzc2NkMxNTQuOTk0IDEyLjc2NjYgMTU1LjAxMyAxMi43NTk1IDE1NS4wMiAxMi43NDYyQzE1NS4wMzYgMTIuNzE0OCAxNTUuMDE5IDEyLjY4ODYgMTU0Ljk3OSAxMi42NzE0TDE1NC45ODcgMTIuNjY0M1pNMTM2LjM3IDEyLjIxNDZDMTM2LjM1NCAxMi4xNjQxIDEzNi4zMzkgMTIuMTUzMiAxMzYuMzM1IDEyLjE4MzZDMTM2LjMzNCAxMi4xODk1IDEzNi4zNjMgMTIuMTk5IDEzNi4zNzcgMTIuMjA3MkwxMzYuMzcgMTIuMjE0NlpNMTM5LjQ4NCAwLjM0ODM2MUMxMzkuNTMyIDAuMzI3NDc1IDEzOS41NDEgMC4zMTE2MTUgMTM5LjUxNSAwLjMxNDUyM0MxMzkuNTA2IDAuMzE1MzE2IDEzOS40OTkgMC4zNDEyMjMgMTM5LjQ5MiAwLjM1NTc2M0wxMzkuNDg0IDAuMzQ4MzYxWk0xNDQuNzYxIDAuNzg2OTU4QzE0NC43MzggMC43NDI1NDMgMTQ0LjcyMiAwLjczNDYxNCAxNDQuNzI2IDAuNzYxMDUyQzE0NC43MjcgMC43Njg5ODMgMTQ0Ljc1MyAwLjc3MzIxMyAxNDQuNzY4IDAuNzc5Mjk0TDE0NC43NjEgMC43ODY5NThaTTExOC44MjYgMTkuMDQxOEMxMTguODY1IDE5LjA0MjEgMTE4LjkwNCAxOS4wNDIzIDExOC45NDMgMTkuMDQyNkwxMTguOTM3IDE5LjA0OTJDMTE4LjkwMiAxOC45ODU1IDExOC44NjcgMTguOTkzNyAxMTguODMyIDE5LjA1TDExOC44MjYgMTkuMDQxOFpNMTIwLjkxNCAxOS4zNzQ0QzEyMC44OTUgMTkuMzI2IDEyMC44OCAxOS4zMTYyIDEyMC44NzkgMTkuMzQ1M0MxMjAuODc4IDE5LjM1MjIgMTIwLjkwNyAxOS4zNTk4IDEyMC45MjEgMTkuMzY3TDEyMC45MTQgMTkuMzc0NFpNMTI2Ljk1NiAxLjIxMjM0QzEyNy4wMDQgMS4xOTM4MyAxMjcuMDE0IDEuMTc4NSAxMjYuOTg4IDEuMTc5NTZDMTI2Ljk4IDEuMTc5ODIgMTI2Ljk3MiAxLjIwNTczIDEyNi45NjQgMS4yMjAwMUwxMjYuOTU2IDEuMjEyMzRaTTEyMi44OSAxOS42OTExQzEyMi45MyAxOS42OTExIDEyMi45NyAxOS42OTExIDEyMy4wMSAxOS42OTA4TDEyMy4wMDMgMTkuNjk4QzEyMi45NjggMTkuNjM2NiAxMjIuOTMyIDE5LjYzMzcgMTIyLjg5NyAxOS42OThMMTIyLjg5IDE5LjY5MTFaTTE0NS44NTcgMS4yMTIzNEMxNDUuOTA4IDEuMTk0NjMgMTQ1LjkxOSAxLjE3OTAzIDE0NS44OSAxLjE3Nzk3QzE0NS44ODMgMS4xNzc3MSAxNDUuODc0IDEuMjA1NDcgMTQ1Ljg2NSAxLjIyMDI3TDE0NS44NTcgMS4yMTIzNFpNMTU0Ljc2NiAxMC44Mjg3QzE1NC43NzIgMTAuODQxNCAxNTQuNzc2IDEwLjg1NTcgMTU0Ljc4NCAxMC44NjYzQzE1NC43ODkgMTAuODczMSAxNTQuODAxIDEwLjg3NDcgMTU0LjgxMSAxMC44NzlDMTU0Ljc5NCAxMC44NjQ3IDE1NC43NzYgMTAuODUwNyAxNTQuNzU5IDEwLjgzNjRMMTU0Ljc2NiAxMC44Mjg3Wk0xNDguMDg1IDguMDQ2OTdDMTQ4LjA4NSA4LjAwNzU4IDE0OC4wODYgNy45NjgxOCAxNDguMDg2IDcuOTI4NTNMMTQ4LjA5MSA3LjkzNDYxQzE0OC4wMjEgNy45ODQzMSAxNDguMDIxIDcuOTg0MzEgMTQ4LjA5MyA4LjAzOTgzTDE0OC4wODUgOC4wNDY5N1pNMTQ5LjQ4NCAyNC44ODU4QzE0OS40ODUgMjQuODQ3MiAxNDkuNDg1IDI0LjgwODkgMTQ5LjQ4NSAyNC43NzAzTDE0OS40OTEgMjQuNzc1M0MxNDkuNDc3IDI0Ljc4NTEgMTQ5LjQ1OCAyNC43OTIgMTQ5LjQ1MSAyNC44MDQ5QzE0OS40MzUgMjQuODM3NyAxNDkuNDUxIDI0Ljg2NDEgMTQ5LjQ5MiAyNC44NzkyTDE0OS40ODQgMjQuODg1OFpNMTIyLjEyOSAyNS42NDMyTDEyMi4xNSAyNS42MDA5QzEyMi4xNCAyNS42MTI4IDEyMi4xMzEgMjUuNjI0MiAxMjIuMTIxIDI1LjYzNTZMMTIyLjEyOSAyNS42NDMyWk0xNDYuNTI3IDI2LjA2N0MxNDYuNTEzIDI2LjA2MDQgMTQ2LjQ5OSAyNi4wNTM4IDE0Ni40ODQgMjYuMDQ2OUMxNDYuNDk2IDI2LjA1NjUgMTQ2LjUwOCAyNi4wNjU3IDE0Ni41MTkgMjYuMDc1TDE0Ni41MjcgMjYuMDY3Wk0xMjIuNTY5IDI2LjI4MDlWMjYuMzk5OUwxMjIuNTYxIDI2LjM5M0MxMjIuNTc2IDI2LjM4MjcgMTIyLjU5NiAyNi4zNzYxIDEyMi42MDQgMjYuMzYyMUMxMjIuNjIyIDI2LjMyODUgMTIyLjYwNiAyNi4zMDIzIDEyMi41NjEgMjYuMjg4NkwxMjIuNTY5IDI2LjI4MDlaTTE1NC43NjYgMjYuOTMwMkMxNTQuNzg0IDI2Ljk3OTEgMTU0LjggMjYuOTg5NCAxNTQuODAxIDI2Ljk2MTJDMTU0LjgwMSAyNi45NTM4IDE1NC43NzMgMjYuOTQ1MyAxNTQuNzU5IDI2LjkzNzlMMTU0Ljc2NiAyNi45MzAyWk0xNTQuMjE3IDI3LjU3OUMxNTQuMjM3IDI3LjYyNzQgMTU0LjI1MyAyNy42MzcyIDE1NC4yNTIgMjcuNjA5NEMxNTQuMjUyIDI3LjYwMTIgMTU0LjIyNCAyNy41OTQxIDE1NC4yMDkgMjcuNTg2NEwxNTQuMjE3IDI3LjU3OVpNMTM1Ljc1NyAyLjE4Mjg2VjIuMzAwMjVMMTM1Ljc0OCAyLjI5MzYzQzEzNS43NjEgMi4yODM1OSAxMzUuNzc5IDIuMjc1OTIgMTM1Ljc4NiAyLjI2MjdDMTM1LjgwMiAyLjIzMTc3IDEzNS43ODYgMi4yMDYxMiAxMzUuNzQ4IDIuMTg5NzNMMTM1Ljc1NyAyLjE4Mjg2WiIvPiYjeGE7PHBhdGggZmlsbD0id2hpdGUiIGQ9Ik0xMTcuOTY0IDQ3LjkxMjRIMTE3LjgzNEMxMTcuODI4IDQ3LjgyMTkgMTE3LjgxMyA0Ny43NDYxIDExNy43OSA0Ny42ODVDMTE3Ljc2NyA0Ny42MjQgMTE3LjczMyA0Ny41NzY2IDExNy42ODkgNDcuNTQyOUMxMTcuNjQ3IDQ3LjUwNzEgMTE3LjU5MyA0Ny40ODE4IDExNy41MjggNDcuNDY3MUMxMTcuNDYzIDQ3LjQ1MjQgMTE3LjM4NSA0Ny40NDUgMTE3LjI5NCA0Ny40NDVDMTE3LjIxNyA0Ny40NDUgMTE3LjE1MyA0Ny40NDcxIDExNy4xMDUgNDcuNDUxM0MxMTcuMDU5IDQ3LjQ1MzQgMTE3LjAyMyA0Ny40NTg3IDExNi45OTggNDcuNDY3MUMxMTYuOTcyIDQ3LjQ3NTUgMTE2Ljk1NSA0Ny40ODYxIDExNi45NDcgNDcuNDk4N0MxMTYuOTQxIDQ3LjUwOTIgMTE2LjkzOCA0Ny41MjQgMTE2LjkzOCA0Ny41NDI5VjQ5LjIzMjVDMTE2LjkzOCA0OS4yOTk5IDExNi45NDIgNDkuMzU3OCAxMTYuOTUgNDkuNDA2MkMxMTYuOTYxIDQ5LjQ1NDYgMTE2Ljk4IDQ5LjQ5NDYgMTE3LjAwNyA0OS41MjYyQzExNy4wMzcgNDkuNTU1NyAxMTcuMDc4IDQ5LjU3ODkgMTE3LjEzIDQ5LjU5NTdDMTE3LjE4NSA0OS42MTA0IDExNy4yNTcgNDkuNjE4OSAxMTcuMzQ1IDQ5LjYyMVY0OS43NDFIMTE2LjE1MVY0OS42MjFDMTE2LjI0IDQ5LjYxODkgMTE2LjMxMSA0OS42MTA0IDExNi4zNjYgNDkuNTk1N0MxMTYuNDIxIDQ5LjU3ODkgMTE2LjQ2MiA0OS41NTU3IDExNi40ODkgNDkuNTI2MkMxMTYuNTE5IDQ5LjQ5NDYgMTE2LjUzOCA0OS40NTQ2IDExNi41NDYgNDkuNDA2MkMxMTYuNTU2IDQ5LjM1NzggMTE2LjU2MiA0OS4yOTk5IDExNi41NjIgNDkuMjMyNVY0Ny41NDI5QzExNi41NjIgNDcuNTI0IDExNi41NTggNDcuNTA5MiAxMTYuNTQ5IDQ3LjQ5ODdDMTE2LjU0MyA0Ny40ODYxIDExNi41MjggNDcuNDc1NSAxMTYuNTA1IDQ3LjQ2NzFDMTE2LjQ4NCA0Ny40NTg3IDExNi40NTMgNDcuNDUzNCAxMTYuNDEzIDQ3LjQ1MTNDMTE2LjM3MyA0Ny40NDcxIDExNi4zMiA0Ny40NDUgMTE2LjI1MiA0Ny40NDVDMTE2LjE3IDQ3LjQ0NSAxMTYuMDkzIDQ3LjQ0ODIgMTE2LjAyMiA0Ny40NTQ1QzExNS45NTIgNDcuNDYwOCAxMTUuODkxIDQ3LjQ3OTcgMTE1LjgzOSA0Ny41MTEzQzExNS43ODggNDcuNTQwOCAxMTUuNzQ3IDQ3LjU4NzEgMTE1LjcxNSA0Ny42NTAzQzExNS42ODQgNDcuNzEzNCAxMTUuNjY3IDQ3LjgwMDggMTE1LjY2NSA0Ny45MTI0SDExNS41NDhWNDcuMzA5MkgxMTcuOTMyTDExNy45NjQgNDcuOTEyNFoiLz4mI3hhOzxwYXRoIGZpbGw9IndoaXRlIiBkPSJNMTIwLjA3IDQ5LjE3NTdMMTIwLjg5MSA0Ny4zMDkySDEyMS41OThWNDcuNDI5MkMxMjEuNTMxIDQ3LjQzMTMgMTIxLjQ3NiA0Ny40Mzk3IDEyMS40MzQgNDcuNDU0NUMxMjEuMzk0IDQ3LjQ2OTIgMTIxLjM2MiA0Ny40OTQ1IDEyMS4zMzkgNDcuNTMwM0MxMjEuMzE4IDQ3LjU2NCAxMjEuMzAzIDQ3LjYxMTMgMTIxLjI5NSA0Ny42NzI0QzEyMS4yODkgNDcuNzMzNCAxMjEuMjg2IDQ3LjgxMTQgMTIxLjI4NiA0Ny45MDYxVjQ5LjE0NDFDMTIxLjI4NiA0OS4yNDk0IDEyMS4yOSA0OS4zMzI1IDEyMS4yOTggNDkuMzkzNkMxMjEuMzA3IDQ5LjQ1NDYgMTIxLjMyMiA0OS41MDIgMTIxLjM0NiA0OS41MzU3QzEyMS4zNzEgNDkuNTY5NCAxMjEuNDA2IDQ5LjU5MTUgMTIxLjQ1IDQ5LjYwMkMxMjEuNDk2IDQ5LjYxMjYgMTIxLjU1NiA0OS42MTg5IDEyMS42MyA0OS42MjFWNDkuNzQxSDEyMC42MDZWNDkuNjIxQzEyMC42OCA0OS42MTg5IDEyMC43MzkgNDkuNjEyNiAxMjAuNzgzIDQ5LjYwMkMxMjAuODMgNDkuNTg5NCAxMjAuODY1IDQ5LjU2NzMgMTIwLjg5MSA0OS41MzU3QzEyMC45MTYgNDkuNTA0MSAxMjAuOTMzIDQ5LjQ1OTkgMTIwLjk0MSA0OS40MDMxQzEyMC45NSA0OS4zNDQxIDEyMC45NTQgNDkuMjY1MiAxMjAuOTU0IDQ5LjE2NjJWNDcuNzAwOEgxMjAuOTIyTDEyMCA0OS43NzI2SDExOS45MzFMMTE5LjAyNCA0Ny43MDA4SDExOS4wMTJWNDkuMTQ0MUMxMTkuMDEyIDQ5LjI0OTQgMTE5LjAxNiA0OS4zMzI1IDExOS4wMjQgNDkuMzkzNkMxMTkuMDMzIDQ5LjQ1NDYgMTE5LjA0OCA0OS41MDIgMTE5LjA3MiA0OS41MzU3QzExOS4wOTcgNDkuNTY5NCAxMTkuMTMyIDQ5LjU5MTUgMTE5LjE3NiA0OS42MDJDMTE5LjIyMiA0OS42MTI2IDExOS4yODIgNDkuNjE4OSAxMTkuMzU2IDQ5LjYyMVY0OS43NDFIMTE4LjQ3NVY0OS42MjFDMTE4LjU0OCA0OS42MTg5IDExOC42MDcgNDkuNjEyNiAxMTguNjUyIDQ5LjYwMkMxMTguNjk4IDQ5LjU4OTQgMTE4LjczNCA0OS41NjczIDExOC43NTkgNDkuNTM1N0MxMTguNzg0IDQ5LjUwNDEgMTE4LjgwMSA0OS40NTk5IDExOC44MSA0OS40MDMxQzExOC44MTggNDkuMzQ0MSAxMTguODIyIDQ5LjI2NTIgMTE4LjgyMiA0OS4xNjYyVjQ3Ljg4NEMxMTguODIyIDQ3Ljc5NTYgMTE4LjgxOCA0Ny43MjI5IDExOC44MSA0Ny42NjYxQzExOC44MDMgNDcuNjA3MSAxMTguNzg4IDQ3LjU2MDggMTE4Ljc2NSA0Ny41MjcxQzExOC43NDQgNDcuNDkzNCAxMTguNzEzIDQ3LjQ3MDMgMTE4LjY3MSA0Ny40NTc2QzExOC42MjggNDcuNDQyOSAxMTguNTc0IDQ3LjQzMzQgMTE4LjUwNiA0Ny40MjkyVjQ3LjMwOTJIMTE5LjI2MUwxMjAuMDU3IDQ5LjE3NTdIMTIwLjA3WiIvPiYjeGE7PC9zdmc+;strokeColor=#000000;fontColor=#000000;" parent="1" vertex="1">
          <mxGeometry x="733.0000000000001" y="1686" width="194.68" height="62" as="geometry" />
        </mxCell>
      </root>
    </mxGraphModel>
  </diagram>
</mxfile>
